<svg width="24" height="24" viewBox="0 0 24 24" fill="none" xmlns="http://www.w3.org/2000/svg">
<g clip-path="url(#clip0_125_131)">
<path d="M0 4.47989V19.2429H7.155C7.80636 19.2442 8.45512 19.1608 9.085 18.9949C9.68659 18.8429 10.2557 18.5834 10.765 18.2289C11.2549 17.8825 11.655 17.4241 11.932 16.8919C12.218 16.3499 12.362 15.7049 12.362 14.9569C12.362 14.0329 12.142 13.2459 11.694 12.5869C11.248 11.9329 10.575 11.4739 9.666 11.2129C10.334 10.8969 10.832 10.4899 11.172 9.99489C11.51 9.49889 11.678 8.87789 11.678 8.13489C11.678 7.44689 11.566 6.86689 11.341 6.40289C11.1246 5.94911 10.7925 5.56039 10.378 5.27589C9.92454 4.97888 9.41789 4.77242 8.886 4.66789C8.25252 4.53688 7.60686 4.47386 6.96 4.47989H0ZM15.667 5.46989V6.92689H21.652V5.47089L15.667 5.46989ZM3.251 6.99589H6.291C6.579 6.99589 6.86 7.01589 7.127 7.06889C7.4 7.11489 7.635 7.20289 7.843 7.32889C8.053 7.44889 8.219 7.62089 8.344 7.84089C8.465 8.06089 8.525 8.34489 8.525 8.68889C8.525 9.30789 8.344 9.75889 7.97 10.0319C7.592 10.3089 7.116 10.4459 6.54 10.4459H3.25L3.251 6.99589ZM18.796 8.24989C17.976 8.24989 17.237 8.39589 16.566 8.68589C15.896 8.97589 15.32 9.37389 14.835 9.87789C14.3442 10.3925 13.9632 11.0015 13.715 11.6679C13.4483 12.383 13.3145 13.1407 13.32 13.9039C13.32 14.7309 13.449 15.4939 13.704 16.1839C13.962 16.8749 14.324 17.4649 14.79 17.9639C15.2755 18.4674 15.8643 18.8598 16.516 19.1139C17.196 19.3829 17.954 19.5189 18.796 19.5189C20.004 19.5189 21.04 19.2419 21.891 18.6859C22.751 18.1329 23.381 17.2149 23.797 15.9289H21.212C21.112 16.2589 20.852 16.5779 20.428 16.8749C19.998 17.1749 19.486 17.3249 18.894 17.3249C18.07 17.3249 17.434 17.1079 16.995 16.6779C16.554 16.2479 16.268 15.4489 16.268 14.6039H23.981C24.0394 13.8048 23.9705 13.0014 23.777 12.2239C23.5984 11.4929 23.2791 10.8038 22.837 10.1949C22.3998 9.59935 21.8292 9.11442 21.171 8.77889C20.491 8.42489 19.701 8.24989 18.796 8.24989ZM18.707 10.4669C19.428 10.4669 20.02 10.6769 20.368 11.0619C20.718 11.4519 20.975 12.0059 21.045 12.7539H16.268C16.2871 12.5147 16.332 12.2784 16.402 12.0489C16.477 11.7829 16.606 11.5329 16.796 11.2959C16.986 11.0639 17.236 10.8659 17.54 10.7059C17.85 10.5459 18.238 10.4669 18.707 10.4669ZM3.251 12.6639H6.784C7.484 12.6639 8.053 12.8239 8.479 13.1479C8.905 13.4759 9.119 14.0159 9.119 14.7769C9.119 15.1649 9.057 15.4869 8.925 15.7329C8.795 15.9829 8.615 16.1799 8.397 16.3229C8.16454 16.4764 7.90434 16.5831 7.631 16.6369C7.33163 16.7009 7.02612 16.7318 6.72 16.7289H3.25L3.251 12.6639Z" fill="#999999"/>
</g>
<defs>
<clipPath id="clip0_125_131">
<rect width="24" height="24" fill="white"/>
</clipPath>
</defs>
</svg>
