<svg width="498" height="176" viewBox="0 0 498 176" fill="none" xmlns="http://www.w3.org/2000/svg">
<g opacity="0.4">
<path d="M184.193 81.3964L184.18 81.403L184.381 81.8427C186.237 85.8853 187.176 90.772 187.176 96.5189C187.176 104.85 185.187 111.959 181.232 117.871L181.232 117.871C177.27 123.801 171.743 128.33 164.631 131.465C157.517 134.6 149.177 136.168 139.59 136.168C133.556 136.168 127.978 135.508 122.859 134.184L122.858 134.184C117.724 132.864 113.134 131.167 109.103 129.112L109.102 129.112C105.045 127.047 101.566 124.93 98.6707 122.768L98.6701 122.768C95.9129 120.715 93.7113 118.906 92.0597 117.338L104.797 96.7845C106.472 98.235 108.433 99.8383 110.685 101.6C113.155 103.533 115.915 105.38 118.971 107.149C122.044 108.927 125.366 110.377 128.935 111.507C132.525 112.644 136.346 113.206 140.387 113.206C144.166 113.206 147.52 112.626 150.438 111.453C153.368 110.275 155.714 108.475 157.45 106.053C159.2 103.612 160.06 100.601 160.06 97.0582C160.06 93.8967 159.362 91.1402 157.953 88.8172L157.952 88.8161C156.548 86.514 154.527 84.4575 151.898 82.6415C149.286 80.837 146.087 79.0644 142.315 77.33C138.559 75.6028 134.28 73.6934 129.487 71.6183C125.939 70.0354 122.566 68.222 119.365 66.1864C116.179 64.1593 113.348 61.8057 110.879 59.1258L110.878 59.1252C108.411 56.4555 106.466 53.4261 105.018 50.0503C103.586 46.6848 102.857 42.9112 102.857 38.7138C102.857 33.7298 103.856 28.9527 105.854 24.3862C107.853 19.8183 110.705 15.7485 114.412 12.1749C118.116 8.60473 122.537 5.76728 127.673 3.65694C132.796 1.56046 138.501 0.5 144.78 0.5C149.526 0.5 154.282 1.13282 159.033 2.39972C163.794 3.66944 168.254 5.33401 172.399 7.3924C176.399 9.37878 179.79 11.5361 182.577 13.8539L172.268 33.2344C170.067 31.4468 167.6 29.8009 164.874 28.3026L164.874 28.3023C161.935 26.6915 158.813 25.4002 155.508 24.4279L155.507 24.4276C152.191 23.4604 148.822 22.9722 145.419 22.9722C141.576 22.9722 138.289 23.6456 135.57 25.0255C132.859 26.3887 130.776 28.2226 129.343 30.5164C127.904 32.8069 127.191 35.3639 127.191 38.1662C127.191 40.4168 127.654 42.3827 128.62 44.0423C129.568 45.6831 130.926 47.1042 132.679 48.3179L132.681 48.3189C134.416 49.5112 136.496 50.6295 138.918 51.6763C141.321 52.7146 143.956 53.8191 146.839 54.9898C153.006 57.5907 158.582 60.1656 163.576 62.7143C168.553 65.2545 172.802 68.0618 176.336 71.1498L176.337 71.1503C179.729 74.106 182.341 77.5208 184.193 81.3964Z" stroke="#B71C1C"/>
<path d="M184.193 81.3964L184.18 81.403L184.381 81.8427C186.237 85.8853 187.176 90.772 187.176 96.5189C187.176 104.85 185.187 111.959 181.232 117.871L181.232 117.871C177.27 123.801 171.743 128.33 164.631 131.465C157.517 134.6 149.177 136.168 139.59 136.168C133.556 136.168 127.978 135.508 122.859 134.184L122.858 134.184C117.724 132.864 113.134 131.167 109.103 129.112L109.102 129.112C105.045 127.047 101.566 124.93 98.6707 122.768L98.6701 122.768C95.9129 120.715 93.7113 118.906 92.0597 117.338L104.797 96.7845C106.472 98.235 108.433 99.8383 110.685 101.6C113.155 103.533 115.915 105.38 118.971 107.149C122.044 108.927 125.366 110.377 128.935 111.507C132.525 112.644 136.346 113.206 140.387 113.206C144.166 113.206 147.52 112.626 150.438 111.453C153.368 110.275 155.714 108.475 157.45 106.053C159.2 103.612 160.06 100.601 160.06 97.0582C160.06 93.8967 159.362 91.1402 157.953 88.8172L157.952 88.8161C156.548 86.514 154.527 84.4575 151.898 82.6415C149.286 80.837 146.087 79.0644 142.315 77.33C138.559 75.6028 134.28 73.6934 129.487 71.6183C125.939 70.0354 122.566 68.222 119.365 66.1864C116.179 64.1593 113.348 61.8057 110.879 59.1258L110.878 59.1252C108.411 56.4555 106.466 53.4261 105.018 50.0503C103.586 46.6848 102.857 42.9112 102.857 38.7138C102.857 33.7298 103.856 28.9527 105.854 24.3862C107.853 19.8183 110.705 15.7485 114.412 12.1749C118.116 8.60473 122.537 5.76728 127.673 3.65694C132.796 1.56046 138.501 0.5 144.78 0.5C149.526 0.5 154.282 1.13282 159.033 2.39972C163.794 3.66944 168.254 5.33401 172.399 7.3924C176.399 9.37878 179.79 11.5361 182.577 13.8539L172.268 33.2344C170.067 31.4468 167.6 29.8009 164.874 28.3026L164.874 28.3023C161.935 26.6915 158.813 25.4002 155.508 24.4279L155.507 24.4276C152.191 23.4604 148.822 22.9722 145.419 22.9722C141.576 22.9722 138.289 23.6456 135.57 25.0255C132.859 26.3887 130.776 28.2226 129.343 30.5164C127.904 32.8069 127.191 35.3639 127.191 38.1662C127.191 40.4168 127.654 42.3827 128.62 44.0423C129.568 45.6831 130.926 47.1042 132.679 48.3179L132.681 48.3189C134.416 49.5112 136.496 50.6295 138.918 51.6763C141.321 52.7146 143.956 53.8191 146.839 54.9898C153.006 57.5907 158.582 60.1656 163.576 62.7143C168.553 65.2545 172.802 68.0618 176.336 71.1498L176.337 71.1503C179.729 74.106 182.341 77.5208 184.193 81.3964Z" stroke="#B71C1C"/>
<path d="M184.193 81.3964L184.18 81.403L184.381 81.8427C186.237 85.8853 187.176 90.772 187.176 96.5189C187.176 104.85 185.187 111.959 181.232 117.871L181.232 117.871C177.27 123.801 171.743 128.33 164.631 131.465C157.517 134.6 149.177 136.168 139.59 136.168C133.556 136.168 127.978 135.508 122.859 134.184L122.858 134.184C117.724 132.864 113.134 131.167 109.103 129.112L109.102 129.112C105.045 127.047 101.566 124.93 98.6707 122.768L98.6701 122.768C95.9129 120.715 93.7113 118.906 92.0597 117.338L104.797 96.7845C106.472 98.235 108.433 99.8383 110.685 101.6C113.155 103.533 115.915 105.38 118.971 107.149C122.044 108.927 125.366 110.377 128.935 111.507C132.525 112.644 136.346 113.206 140.387 113.206C144.166 113.206 147.52 112.626 150.438 111.453C153.368 110.275 155.714 108.475 157.45 106.053C159.2 103.612 160.06 100.601 160.06 97.0582C160.06 93.8967 159.362 91.1402 157.953 88.8172L157.952 88.8161C156.548 86.514 154.527 84.4575 151.898 82.6415C149.286 80.837 146.087 79.0644 142.315 77.33C138.559 75.6028 134.28 73.6934 129.487 71.6183C125.939 70.0354 122.566 68.222 119.365 66.1864C116.179 64.1593 113.348 61.8057 110.879 59.1258L110.878 59.1252C108.411 56.4555 106.466 53.4261 105.018 50.0503C103.586 46.6848 102.857 42.9112 102.857 38.7138C102.857 33.7298 103.856 28.9527 105.854 24.3862C107.853 19.8183 110.705 15.7485 114.412 12.1749C118.116 8.60473 122.537 5.76728 127.673 3.65694C132.796 1.56046 138.501 0.5 144.78 0.5C149.526 0.5 154.282 1.13282 159.033 2.39972C163.794 3.66944 168.254 5.33401 172.399 7.3924C176.399 9.37878 179.79 11.5361 182.577 13.8539L172.268 33.2344C170.067 31.4468 167.6 29.8009 164.874 28.3026L164.874 28.3023C161.935 26.6915 158.813 25.4002 155.508 24.4279L155.507 24.4276C152.191 23.4604 148.822 22.9722 145.419 22.9722C141.576 22.9722 138.289 23.6456 135.57 25.0255C132.859 26.3887 130.776 28.2226 129.343 30.5164C127.904 32.8069 127.191 35.3639 127.191 38.1662C127.191 40.4168 127.654 42.3827 128.62 44.0423C129.568 45.6831 130.926 47.1042 132.679 48.3179L132.681 48.3189C134.416 49.5112 136.496 50.6295 138.918 51.6763C141.321 52.7146 143.956 53.8191 146.839 54.9898C153.006 57.5907 158.582 60.1656 163.576 62.7143C168.553 65.2545 172.802 68.0618 176.336 71.1498L176.337 71.1503C179.729 74.106 182.341 77.5208 184.193 81.3964Z" stroke="#B71C1C"/>
<path d="M272.94 55.9164C279.013 59.6506 283.8 64.7421 287.296 71.2085L287.293 71.2105C290.795 77.6754 292.547 85.0177 292.547 93.2415C292.547 101.415 290.803 108.734 287.334 115.2C283.861 121.672 279.121 126.784 273.127 130.536L273.127 130.536C267.143 134.291 260.361 136.168 252.783 136.168C247.208 136.168 241.992 135.021 237.137 132.739C232.278 130.455 228.033 127.213 224.398 123.008L223.52 121.991V123.335V175.122H199.917V52.8705H223.52V62.3518V63.7395L224.405 62.6707C227.659 58.7411 231.69 55.701 236.529 53.5492L236.529 53.5491C241.36 51.3974 246.588 50.3233 252.227 50.3233C259.973 50.3233 266.873 52.1935 272.94 55.9164ZM264.803 81.4221L264.802 81.4216C262.843 77.9474 260.201 75.1958 256.88 73.1753L256.879 73.1748C253.546 71.1563 249.726 70.1488 245.435 70.1488C241.143 70.1488 237.284 71.1563 233.871 73.172C230.465 75.1837 227.795 77.9281 225.859 81.3812C223.918 84.8428 222.956 88.8289 222.956 93.3245C222.956 97.7634 223.919 101.732 225.858 105.224C227.794 108.712 230.449 111.433 233.833 113.396C237.222 115.361 241.063 116.334 245.352 116.334C249.689 116.334 253.556 115.362 256.945 113.396C260.331 111.433 262.977 108.702 264.88 105.222C266.785 101.738 267.74 97.7624 267.74 93.3245C267.74 88.8848 266.768 84.9155 264.803 81.4221Z" stroke="#B71C1C"/>
<path d="M272.94 55.9164C279.013 59.6506 283.8 64.7421 287.296 71.2085L287.293 71.2105C290.795 77.6754 292.547 85.0177 292.547 93.2415C292.547 101.415 290.803 108.734 287.334 115.2C283.861 121.672 279.121 126.784 273.127 130.536L273.127 130.536C267.143 134.291 260.361 136.168 252.783 136.168C247.208 136.168 241.992 135.021 237.137 132.739C232.278 130.455 228.033 127.213 224.398 123.008L223.52 121.991V123.335V175.122H199.917V52.8705H223.52V62.3518V63.7395L224.405 62.6707C227.659 58.7411 231.69 55.701 236.529 53.5492L236.529 53.5491C241.36 51.3974 246.588 50.3233 252.227 50.3233C259.973 50.3233 266.873 52.1935 272.94 55.9164ZM264.803 81.4221L264.802 81.4216C262.843 77.9474 260.201 75.1958 256.88 73.1753L256.879 73.1748C253.546 71.1563 249.726 70.1488 245.435 70.1488C241.143 70.1488 237.284 71.1563 233.871 73.172C230.465 75.1837 227.795 77.9281 225.859 81.3812C223.918 84.8428 222.956 88.8289 222.956 93.3245C222.956 97.7634 223.919 101.732 225.858 105.224C227.794 108.712 230.449 111.433 233.833 113.396C237.222 115.361 241.063 116.334 245.352 116.334C249.689 116.334 253.556 115.362 256.945 113.396C260.331 111.433 262.977 108.702 264.88 105.222C266.785 101.738 267.74 97.7624 267.74 93.3245C267.74 88.8848 266.768 84.9155 264.803 81.4221Z" stroke="#B71C1C"/>
<path d="M272.94 55.9164C279.013 59.6506 283.8 64.7421 287.296 71.2085L287.293 71.2105C290.795 77.6754 292.547 85.0177 292.547 93.2415C292.547 101.415 290.803 108.734 287.334 115.2C283.861 121.672 279.121 126.784 273.127 130.536L273.127 130.536C267.143 134.291 260.361 136.168 252.783 136.168C247.208 136.168 241.992 135.021 237.137 132.739C232.278 130.455 228.033 127.213 224.398 123.008L223.52 121.991V123.335V175.122H199.917V52.8705H223.52V62.3518V63.7395L224.405 62.6707C227.659 58.7411 231.69 55.701 236.529 53.5492L236.529 53.5491C241.36 51.3974 246.588 50.3233 252.227 50.3233C259.973 50.3233 266.873 52.1935 272.94 55.9164ZM264.803 81.4221L264.802 81.4216C262.843 77.9474 260.201 75.1958 256.88 73.1753L256.879 73.1748C253.546 71.1563 249.726 70.1488 245.435 70.1488C241.143 70.1488 237.284 71.1563 233.871 73.172C230.465 75.1837 227.795 77.9281 225.859 81.3812C223.918 84.8428 222.956 88.8289 222.956 93.3245C222.956 97.7634 223.919 101.732 225.858 105.224C227.794 108.712 230.449 111.433 233.833 113.396C237.222 115.361 241.063 116.334 245.352 116.334C249.689 116.334 253.556 115.362 256.945 113.396C260.331 111.433 262.977 108.702 264.88 105.222C266.785 101.738 267.74 97.7624 267.74 93.3245C267.74 88.8848 266.768 84.9155 264.803 81.4221Z" stroke="#B71C1C"/>
<path d="M374.074 62.3434V52.8787H397.603V133.621H374.074V123.343V122.013L373.198 123.013C369.512 127.222 365.282 130.465 360.497 132.749C355.718 135.03 350.544 136.176 344.977 136.176C337.559 136.176 330.816 134.324 324.744 130.624C318.669 126.921 313.856 121.826 310.3 115.321L310.3 115.32C306.75 108.831 304.973 101.448 304.973 93.1667C304.973 84.9922 306.7 77.6904 310.145 71.2496C313.592 64.803 318.324 59.7082 324.35 55.9475L324.351 55.9473C330.359 52.1932 337.232 50.315 344.977 50.315C350.716 50.315 356.07 51.4057 361.035 53.5834C366 55.7611 370.052 58.7926 373.186 62.6583L374.074 63.7541V62.3434ZM371.728 81.3498L371.728 81.3493C369.793 77.8726 367.149 75.1273 363.799 73.1393L363.799 73.139C360.433 71.1467 356.581 70.157 352.243 70.157C347.953 70.157 344.111 71.1472 340.722 73.1382C337.339 75.1256 334.669 77.8705 332.709 81.3469L332.709 81.3473C330.744 84.8408 329.772 88.81 329.772 93.2497C329.772 97.6398 330.736 101.583 332.666 105.066L332.666 105.067C334.602 108.554 337.272 111.307 340.679 113.319C344.092 115.335 347.951 116.342 352.243 116.342C356.581 116.342 360.441 115.353 363.799 113.36C367.157 111.372 369.793 108.635 371.728 105.15C373.667 101.665 374.631 97.6884 374.631 93.2497C374.631 88.8108 373.667 84.8425 371.728 81.3498Z" stroke="#B71C1C"/>
<path d="M374.074 62.3434V52.8787H397.603V133.621H374.074V123.343V122.013L373.198 123.013C369.512 127.222 365.282 130.465 360.497 132.749C355.718 135.03 350.544 136.176 344.977 136.176C337.559 136.176 330.816 134.324 324.744 130.624C318.669 126.921 313.856 121.826 310.3 115.321L310.3 115.32C306.75 108.831 304.973 101.448 304.973 93.1667C304.973 84.9922 306.7 77.6904 310.145 71.2496C313.592 64.803 318.324 59.7082 324.35 55.9475L324.351 55.9473C330.359 52.1932 337.232 50.315 344.977 50.315C350.716 50.315 356.07 51.4057 361.035 53.5834C366 55.7611 370.052 58.7926 373.186 62.6583L374.074 63.7541V62.3434ZM371.728 81.3498L371.728 81.3493C369.793 77.8726 367.149 75.1273 363.799 73.1393L363.799 73.139C360.433 71.1467 356.581 70.157 352.243 70.157C347.953 70.157 344.111 71.1472 340.722 73.1382C337.339 75.1256 334.669 77.8705 332.709 81.3469L332.709 81.3473C330.744 84.8408 329.772 88.81 329.772 93.2497C329.772 97.6398 330.736 101.583 332.666 105.066L332.666 105.067C334.602 108.554 337.272 111.307 340.679 113.319C344.092 115.335 347.951 116.342 352.243 116.342C356.581 116.342 360.441 115.353 363.799 113.36C367.157 111.372 369.793 108.635 371.728 105.15C373.667 101.665 374.631 97.6884 374.631 93.2497C374.631 88.8108 373.667 84.8425 371.728 81.3498Z" stroke="#B71C1C"/>
<path d="M374.074 62.3434V52.8787H397.603V133.621H374.074V123.343V122.013L373.198 123.013C369.512 127.222 365.282 130.465 360.497 132.749C355.718 135.03 350.544 136.176 344.977 136.176C337.559 136.176 330.816 134.324 324.744 130.624C318.669 126.921 313.856 121.826 310.3 115.321L310.3 115.32C306.75 108.831 304.973 101.448 304.973 93.1667C304.973 84.9922 306.7 77.6904 310.145 71.2496C313.592 64.803 318.324 59.7082 324.35 55.9475L324.351 55.9473C330.359 52.1932 337.232 50.315 344.977 50.315C350.716 50.315 356.07 51.4057 361.035 53.5834C366 55.7611 370.052 58.7926 373.186 62.6583L374.074 63.7541V62.3434ZM371.728 81.3498L371.728 81.3493C369.793 77.8726 367.149 75.1273 363.799 73.1393L363.799 73.139C360.433 71.1467 356.581 70.157 352.243 70.157C347.953 70.157 344.111 71.1472 340.722 73.1382C337.339 75.1256 334.669 77.8705 332.709 81.3469L332.709 81.3473C330.744 84.8408 329.772 88.81 329.772 93.2497C329.772 97.6398 330.736 101.583 332.666 105.066L332.666 105.067C334.602 108.554 337.272 111.307 340.679 113.319C344.092 115.335 347.951 116.342 352.243 116.342C356.581 116.342 360.441 115.353 363.799 113.36C367.157 111.372 369.793 108.635 371.728 105.15C373.667 101.665 374.631 97.6884 374.631 93.2497C374.631 88.8108 373.667 84.8425 371.728 81.3498Z" stroke="#B71C1C"/>
<path d="M493.455 65.5654C496.12 70.3707 497.467 75.9783 497.469 82.3872L497.461 82.3892V133.621H473.932V87.5831C473.932 81.639 472.38 76.9387 469.205 73.5511C466.03 70.1628 461.694 68.4812 456.261 68.4812C452.573 68.4812 449.363 69.2252 446.666 70.7443C443.982 72.2556 441.889 74.3107 440.406 76.9235C438.923 79.536 438.182 82.4765 438.182 85.7494V133.629H414.579V52.8873H438.182V61.4061V62.7005L439.052 61.7422C442.09 58.3966 445.943 55.6471 450.63 53.523L450.63 53.5227C455.301 51.3978 460.444 50.3318 466.084 50.3318C472.244 50.3318 477.663 51.6753 482.378 54.3409C487.087 57.0077 490.775 60.7487 493.455 65.5654Z" stroke="#B71C1C"/>
<path d="M493.455 65.5654C496.12 70.3707 497.467 75.9783 497.469 82.3872L497.461 82.3892V133.621H473.932V87.5831C473.932 81.639 472.38 76.9387 469.205 73.5511C466.03 70.1628 461.694 68.4812 456.261 68.4812C452.573 68.4812 449.363 69.2252 446.666 70.7443C443.982 72.2556 441.889 74.3107 440.406 76.9235C438.923 79.536 438.182 82.4765 438.182 85.7494V133.629H414.579V52.8873H438.182V61.4061V62.7005L439.052 61.7422C442.09 58.3966 445.943 55.6471 450.63 53.523L450.63 53.5227C455.301 51.3978 460.444 50.3318 466.084 50.3318C472.244 50.3318 477.663 51.6753 482.378 54.3409C487.087 57.0077 490.775 60.7487 493.455 65.5654Z" stroke="#B71C1C"/>
<path d="M493.455 65.5654C496.12 70.3707 497.467 75.9783 497.469 82.3872L497.461 82.3892V133.621H473.932V87.5831C473.932 81.639 472.38 76.9387 469.205 73.5511C466.03 70.1628 461.694 68.4812 456.261 68.4812C452.573 68.4812 449.363 69.2252 446.666 70.7443C443.982 72.2556 441.889 74.3107 440.406 76.9235C438.923 79.536 438.182 82.4765 438.182 85.7494V133.629H414.579V52.8873H438.182V61.4061V62.7005L439.052 61.7422C442.09 58.3966 445.943 55.6471 450.63 53.523L450.63 53.5227C455.301 51.3978 460.444 50.3318 466.084 50.3318C472.244 50.3318 477.663 51.6753 482.378 54.3409C487.087 57.0077 490.775 60.7487 493.455 65.5654Z" stroke="#B71C1C"/>
<path d="M0.941125 133.621L62.8337 26.5101L63.2672 25.7599H62.4008H0.5V1.86893H76.7825H89.5532H104.679L28.5495 133.621H0.941125Z" stroke="#B71C1C"/>
<path d="M0.941125 133.621L62.8337 26.5101L63.2672 25.7599H62.4008H0.5V1.86893H76.7825H89.5532H104.679L28.5495 133.621H0.941125Z" stroke="#B71C1C"/>
<path d="M0.941125 133.621L62.8337 26.5101L63.2672 25.7599H62.4008H0.5V1.86893H76.7825H89.5532H104.679L28.5495 133.621H0.941125Z" stroke="#B71C1C"/>
</g>
</svg>
