<svg width="124" height="59" viewBox="0 0 124 59" fill="none" xmlns="http://www.w3.org/2000/svg">
<path d="M51.0949 0.148488C48.427 0.380765 45.9514 1.6287 44.1822 3.63323C42.413 5.63777 41.4862 8.24483 41.5944 10.9128V39.8372C41.6012 40.0909 41.5569 40.3433 41.4642 40.5797C41.3715 40.816 41.2322 41.0315 41.0546 41.2133C40.877 41.3951 40.6647 41.5395 40.4302 41.6382C40.1957 41.7368 39.9437 41.7875 39.6892 41.7874H30.6205C11.0098 41.7874 12.8388 16.8142 29.452 16.7888H39.4606V9.51975H29.071C26.2871 9.41055 23.5126 9.90421 20.9384 10.9667C18.3643 12.0292 16.0516 13.6353 14.1597 15.6744C10.8487 19.4423 9.04072 24.2914 9.07922 29.3008C9.00721 34.3008 10.8203 39.1457 14.1597 42.8766C16.1732 44.9535 18.6089 46.5771 21.3033 47.6386C23.9978 48.7001 26.8887 49.1749 29.7822 49.0312H46.8781C47.4284 49.018 47.9517 48.7907 48.3362 48.3979C48.7207 48.0051 48.9359 47.4778 48.9357 46.929V11.6726C48.8855 10.8925 49.088 10.117 49.5133 9.46031C49.9386 8.80365 50.5643 8.30066 51.2981 8.02542C52.0083 7.82616 52.7638 7.85877 53.454 8.11856C54.1442 8.37834 54.7329 8.85166 55.1339 9.46912C59.9858 17.3967 79.2916 48.2714 79.317 48.322C79.4668 48.608 79.7082 48.8356 80.0029 48.9688C80.2976 49.1019 80.6285 49.1328 80.9428 49.0566C81.4 48.9046 81.8573 48.398 81.8573 47.1823V11.7233C81.8071 10.9432 82.0096 10.1677 82.4349 9.51101C82.8602 8.85436 83.4859 8.35129 84.2197 8.07604C84.9226 7.88454 85.6684 7.92127 86.3489 8.18085C87.0295 8.44044 87.6094 8.9094 88.0047 9.51975C92.8565 17.4474 112.162 48.322 112.188 48.3727C112.334 48.6617 112.575 48.8922 112.871 49.0258C113.167 49.1594 113.499 49.1881 113.814 49.1072C114.296 48.9552 114.779 48.4993 114.779 47.2582V0.325724H107.565V27.7051C107.565 27.7051 103.195 20.2587 95.7016 7.44285C88.2079 -5.37305 74.5414 0.0724793 74.5414 10.8875V27.7051C74.5414 27.7051 70.2484 20.2587 62.7546 7.44285C59.5539 1.9467 55.1339 -0.155446 51.0695 0.148488H51.0949ZM30.3665 0.325724C-10.4045 0.325724 -10.0234 58.2759 30.9253 58.3012H46.9289C53.813 58.3012 58.2076 54.2488 58.2076 46.7264V32.0869L70.731 52.7038C76.726 62.5817 91.2054 60.6314 91.053 48.2967V32.0869L103.526 52.7038C109.521 62.5817 124.025 60.6314 124 48.2967V0.325724H116.684V47.2836C116.747 48.0395 116.563 48.7955 116.161 49.439C115.758 50.0825 115.157 50.5791 114.449 50.8548C113.762 51.0498 113.031 51.0196 112.364 50.7688C111.696 50.518 111.127 50.0597 110.74 49.4618C110.74 49.4618 91.434 18.6885 86.5059 10.6595C86.3316 10.3813 86.0715 10.1668 85.7648 10.0481C85.458 9.92936 85.1209 9.91285 84.804 10.001C84.2451 10.1783 83.7371 10.6342 83.7371 11.8499V47.3089C83.7986 48.0711 83.6184 48.8333 83.2218 49.4878C82.8252 50.1423 82.2324 50.656 81.527 50.9562C80.8392 51.1488 80.107 51.112 79.4421 50.8514C78.7771 50.5907 78.2159 50.1206 77.8437 49.5125C77.8437 49.5125 58.5124 18.6631 53.6097 10.6595C53.4454 10.3624 53.186 10.1286 52.873 9.9955C52.5599 9.86238 52.2112 9.83757 51.8824 9.925C51.3235 10.1023 50.8155 10.5582 50.8155 11.774V47.081C50.8089 48.1158 50.3954 49.1067 49.6639 49.8408C48.9324 50.5749 47.9413 50.9935 46.9035 51.0068H29.8076C26.6647 51.1362 23.5298 50.6004 20.6095 49.4349C17.6891 48.2693 15.0495 46.5002 12.8642 44.2442C9.19979 40.1711 7.20501 34.8734 7.27564 29.4021C7.1872 23.8807 9.15067 18.5218 12.788 14.3574C14.8586 12.134 17.3838 10.3798 20.1929 9.21312C23.002 8.04647 26.0296 7.49455 29.071 7.59481H39.4606V0.249744H30.3157L30.3665 0.325724Z" fill="#CC0000"/>
</svg>
