<svg width="166" height="57" viewBox="0 0 166 57" fill="none" xmlns="http://www.w3.org/2000/svg">
<path fill-rule="evenodd" clip-rule="evenodd" d="M56.8898 44.4449V35.0898H59.844C60.5826 35.0898 61.3211 35.336 62.0597 35.8284C62.552 36.3207 62.7982 37.0593 62.7982 37.7978C62.7982 38.2902 62.5521 38.7826 62.3059 39.275C62.0597 39.7673 61.5673 40.0135 61.0749 40.2597C60.3364 40.5059 59.844 40.5059 59.1054 40.5059H58.1207V44.6911H56.8898V44.4449ZM59.5978 36.3208H58.1207V39.275H59.5978C60.0902 39.275 60.5826 39.275 60.8287 38.7826C61.0749 38.5364 61.3211 38.0441 61.3211 37.5517C61.3211 36.8131 60.8287 36.3208 59.5978 36.3208ZM66.491 38.2902C67.4758 38.2902 68.2143 38.5364 68.9529 39.275C69.6914 39.7673 69.9376 40.7521 69.9376 41.4906C69.9376 42.2292 69.6914 43.214 68.9529 43.7064C68.2143 44.1987 67.4758 44.6911 66.491 44.6911C65.5063 44.6911 64.7677 44.4449 64.0292 43.7064C62.7982 42.4754 62.7982 40.5059 64.0292 39.275C64.7677 38.5364 65.5063 38.044 66.491 38.2902ZM66.491 39.275C65.9987 39.275 65.5063 39.5212 65.0139 39.7674C64.5215 40.2597 64.5215 40.7521 64.5215 41.2445C64.5215 41.7369 64.7677 42.2292 65.0139 42.7216C65.5063 43.2139 65.9987 43.214 66.491 43.214C66.9834 43.214 67.4758 42.9677 67.9681 42.7216C68.7067 41.983 68.7067 40.5059 67.9681 39.7674C67.4758 39.5212 66.9834 39.275 66.491 39.275ZM78.8003 38.2902H80.0313L77.3232 44.4449H76.8308L75.1075 40.0136L73.3842 44.4449H72.8919L70.1838 38.044H71.4147L73.1381 41.7368L74.6152 38.044H75.5999L77.077 41.983L78.8003 38.2902ZM85.9397 41.4906H81.5084C81.5084 41.983 81.7546 42.4754 82.0008 42.9678C82.4931 43.2139 82.9855 43.4602 83.4779 43.4602C84.2164 43.4602 84.955 43.2139 85.6936 42.7216V43.9525C85.4474 44.1987 84.955 44.4449 84.4626 44.4449C83.9702 44.4449 83.7241 44.4449 83.2317 44.4449C82.7393 44.4449 82.0008 44.4449 81.5084 43.9525C81.016 43.7063 80.7698 43.2139 80.5236 42.7216C80.2775 42.2292 80.0313 41.7369 80.0313 40.9983C80.0313 40.2597 80.2775 39.275 80.7698 38.7826C81.2622 38.2903 82.0008 37.7978 82.7393 37.7978C83.4779 37.7978 84.2164 38.0441 84.7088 38.7826C85.2012 39.5212 85.4474 40.2597 85.4474 40.9983L85.9397 41.4906ZM81.5084 40.7521H84.4626C84.4626 40.2597 84.2164 40.0135 83.9702 39.5212C83.7241 39.275 83.2317 39.0288 82.9855 39.0288C82.4931 39.0288 82.2469 39.275 82.0008 39.5212C81.7546 39.7674 81.7546 40.2597 81.5084 40.7521ZM88.6478 38.2902V39.5212C89.1402 38.5364 89.8787 38.044 90.3711 38.044C90.8635 38.044 91.3558 38.2903 91.8482 38.7826L91.1096 39.7674C90.8635 39.5212 90.3711 39.275 89.8787 39.275C89.3863 39.275 89.1402 39.5212 88.894 39.7674C88.6478 40.2597 88.4016 40.7521 88.4016 40.9983V44.1987H87.1707V38.044H88.6478V38.2902ZM94.3101 35.0898H102.188V36.3208H98.7414V44.4449H97.5105V36.3208H94.3101V35.0898ZM104.158 38.2902C105.142 38.2902 105.881 38.5364 106.619 39.275C107.358 39.7673 107.604 40.7521 107.604 41.4906C107.604 42.2292 107.358 43.214 106.619 43.7064C105.881 44.1987 105.142 44.6911 104.158 44.6911C103.173 44.6911 102.434 44.4449 101.696 43.7064C100.465 42.4754 100.465 40.5059 101.696 39.275C102.434 38.5364 103.173 38.044 104.158 38.2902ZM104.158 39.275C103.665 39.275 103.173 39.5212 102.68 39.7674C102.188 40.2597 102.188 40.7521 102.188 41.2445C102.188 41.7369 102.434 42.2292 102.68 42.7216C103.173 43.2139 103.665 43.214 104.158 43.214C104.65 43.214 105.142 42.9677 105.635 42.7216C106.373 41.983 106.373 40.5059 105.635 39.7674C105.142 39.5212 104.65 39.275 104.158 39.275ZM112.774 35.0898H118.19V36.3208H114.005V39.275H117.944V40.5059H114.005V43.4602H118.19V44.6911H112.774V35.0898ZM124.591 40.0136V44.4449H123.36V40.9983C123.36 40.5059 123.36 40.0135 123.114 39.5212C122.868 39.275 122.621 39.0288 122.129 39.0288C121.883 39.0288 121.637 39.0288 121.391 39.275C121.144 39.5211 120.898 39.7674 120.652 40.0136V44.4449H119.421V38.2902H120.652V39.0288C121.144 38.5364 121.883 38.044 122.621 38.044C123.36 38.044 124.099 38.5364 124.345 39.275C124.837 38.5364 125.576 38.2902 126.314 38.044C126.807 38.044 127.545 38.2903 127.791 38.7826C128.284 39.275 128.53 40.0135 128.284 40.7521V44.4449H127.053V40.7521C127.053 40.2597 127.053 40.0135 126.807 39.5212C126.56 39.275 126.314 39.0288 125.822 39.0288C125.576 39.2749 125.083 39.5212 124.591 40.0136ZM130.253 47.6453V38.2902H132.469C133.454 38.2902 134.192 38.5364 134.931 39.0288C135.669 39.5211 135.916 40.5059 135.916 41.2445C135.916 41.9831 135.669 42.9678 135.177 43.4602C134.685 43.9525 133.7 44.4449 132.961 44.4449C132.469 44.4449 131.977 44.4449 131.73 44.1987V47.6453H130.253ZM132.223 39.275H131.484V42.9678C131.73 43.2139 132.223 43.214 132.715 43.214C133.207 43.214 133.7 42.9677 134.192 42.7216C134.685 42.2292 134.685 41.7369 134.685 41.2445C134.685 40.7521 134.685 40.5059 134.438 40.2597C134.192 40.0135 133.946 39.7674 133.7 39.5212C133.207 39.5212 132.715 39.275 132.223 39.275ZM140.101 38.2902C141.085 38.2902 141.824 38.5364 142.563 39.275C143.301 39.7673 143.547 40.7521 143.547 41.4906C143.547 42.2292 143.301 43.214 142.563 43.7064C141.824 44.1987 141.085 44.6911 140.101 44.6911C139.116 44.6911 138.377 44.4449 137.885 43.7064C136.654 42.4754 136.654 40.5059 137.885 39.275C138.377 38.5364 139.362 38.044 140.101 38.2902ZM140.101 39.275C139.608 39.275 139.116 39.5212 138.624 39.7674C138.131 40.2597 138.131 40.7521 138.131 41.2445C138.131 41.7369 138.377 42.2292 138.624 42.7216C139.116 43.2139 139.608 43.214 140.101 43.214C140.593 43.214 141.085 42.9677 141.578 42.7216C142.316 41.983 142.316 40.5059 141.578 39.7674C141.332 39.5212 140.593 39.275 140.101 39.275ZM152.41 38.2902H153.641L150.687 44.4449H150.194L148.471 40.0136L146.748 44.4449H146.255L143.547 38.044H145.024L146.748 41.7368L148.225 38.044H149.21L150.687 41.7368L152.41 38.2902ZM159.549 41.4906H155.118C155.118 41.983 155.364 42.4754 155.61 42.9678C156.103 43.2139 156.595 43.4602 157.088 43.4602C157.826 43.4602 158.565 43.2139 159.303 42.7216V43.9525C159.057 44.1987 158.565 44.4449 158.072 44.4449C157.58 44.4449 157.088 44.6911 156.841 44.6911C156.349 44.6911 155.61 44.6911 155.118 44.1987C154.626 43.9525 154.379 43.4601 154.133 42.9678C153.887 42.4754 153.641 41.9831 153.641 41.2445C153.641 40.5059 153.887 39.5211 154.379 39.0288C154.872 38.5364 155.61 38.044 156.349 38.044C157.088 38.044 157.826 38.2902 158.318 39.0288C159.303 39.7673 159.549 40.5059 159.549 41.4906ZM155.364 40.7521H158.565C158.565 40.2597 158.318 40.0135 158.072 39.5212C157.826 39.275 157.334 39.0288 157.088 39.0288C156.595 39.0288 156.349 39.275 156.103 39.5212C155.61 39.7674 155.364 40.2597 155.364 40.7521ZM162.257 38.2902V39.5212C162.75 38.5364 163.488 38.044 163.981 38.044C164.473 38.044 164.965 38.2903 165.458 38.7826L164.719 39.7674C164.473 39.5212 163.981 39.275 163.488 39.275C162.996 39.275 162.75 39.5212 162.504 39.7674C162.257 40.2597 162.011 40.7521 162.011 40.9983V44.1987H160.78V38.044H162.257V38.2902Z" fill="#444847"/>
<path fill-rule="evenodd" clip-rule="evenodd" d="M31.0402 42.4751L29.8093 44.6908C27.3474 49.1221 23.4085 52.8149 18.9771 55.2767L17.7462 55.7691C17.2538 56.0153 16.7614 56.0153 16.5152 56.2615C24.6394 54.7844 32.025 50.353 37.4411 43.9522C43.3495 37.0589 46.3038 28.4424 46.0576 19.5797C45.319 9.97849 39.9029 2.59295 31.7788 0.623458C23.1623 -1.59222 16.5153 2.34672 11.8377 8.50137C11.3453 9.23993 10.6068 9.97849 10.3606 10.9632C16.7614 7.76281 24.3932 6.2857 30.7941 10.9632C36.4563 14.9022 38.1796 23.2725 36.7025 30.4119C35.7178 34.3509 34.2407 37.7976 32.025 41.2442C31.5326 41.7365 31.2864 41.9827 31.0402 42.4751Z" fill="#E66020"/>
<path fill-rule="evenodd" clip-rule="evenodd" d="M8.63734 56.0147C8.14497 56.507 5.68311 55.7685 5.19074 55.5223C6.91404 56.507 8.63734 56.9994 10.3606 56.9994C12.3301 56.9994 14.5458 56.7532 16.5153 56.2608C17.0077 56.0146 17.2539 55.7685 17.7462 55.7685L18.9772 55.2761C23.4085 52.8142 27.1013 49.1214 29.8094 44.6901L31.0403 42.4744C31.2865 41.9821 31.5327 41.4897 31.7788 40.9973C33.7483 37.0583 34.4869 32.3807 34.2407 27.9494C33.9945 25.4875 33.5021 23.0257 32.2712 21.0562C28.3322 14.6554 20.4543 12.1935 13.5611 15.394C10.1145 17.1173 7.16022 19.8252 5.43692 23.0257C5.19073 23.518 4.94455 24.0104 4.69836 24.5028C5.19074 24.2566 5.68311 24.0105 6.17548 23.7643C7.89879 22.7795 9.86827 22.2871 11.8378 22.0409C17.2539 20.81 22.67 23.0257 25.6242 27.4571C26.8551 29.9189 27.3475 32.8731 26.8551 35.8274C26.1166 40.9973 24.1471 45.6748 20.9467 49.6138C20.2081 50.5986 19.4695 51.3371 18.4848 52.0757C17.5 52.8142 16.7615 53.5528 15.7767 54.2913C14.0534 55.2761 11.3454 56.0147 8.63734 56.0147Z" fill="#009744"/>
<path fill-rule="evenodd" clip-rule="evenodd" d="M5.19069 55.523C5.68306 55.523 8.14493 56.2616 8.6373 56.0154C7.65255 55.7692 6.91399 55.0306 6.66781 54.292C5.68306 51.8302 6.42162 47.1527 7.16018 44.6908C7.65255 42.7213 8.14493 40.7518 8.88348 38.7823L10.853 33.3662H3.46739C2.72883 35.3357 2.23645 37.059 1.74408 39.0285C0.266965 44.1984 -0.963962 53.0611 5.19069 55.523Z" fill="#005BA1"/>
<path fill-rule="evenodd" clip-rule="evenodd" d="M2.97498 28.4421L3.46735 28.9345C3.95972 28.4421 4.4521 28.1959 4.94447 27.9497C6.42158 27.2111 8.39107 27.2111 9.622 28.4421C9.86819 28.6883 10.1144 28.9345 10.3606 28.9345L10.8529 28.4421C10.3606 27.9497 9.86819 27.4573 9.37582 27.2111C7.8987 26.4726 6.1754 26.4726 4.69828 27.2111C3.95972 27.4573 3.46735 27.7035 2.97498 28.4421Z" fill="#005BA1"/>
<path fill-rule="evenodd" clip-rule="evenodd" d="M3.95972 29.427L4.45209 30.1656C5.43683 29.1808 6.91395 28.9346 8.14488 29.427C8.63725 29.6732 8.88344 29.9194 9.12962 30.1656L9.86818 29.427C9.12963 28.6884 7.89869 28.196 6.91395 28.196C5.9292 27.9499 4.69828 28.4422 3.95972 29.427Z" fill="#005BA1"/>
<path fill-rule="evenodd" clip-rule="evenodd" d="M4.94446 30.4119L5.43683 30.9043H5.68301C5.9292 30.6581 6.42157 30.4119 6.91395 30.4119C7.6525 30.4119 7.89869 30.6581 8.39106 30.9043L8.88344 30.4119C7.89869 29.4272 6.17539 29.4272 4.94446 30.4119C5.19064 30.4119 5.19064 30.4119 4.94446 30.4119Z" fill="#005BA1"/>
<path fill-rule="evenodd" clip-rule="evenodd" d="M5.9292 31.3961L6.91394 32.3809L7.89869 31.3961C7.40631 30.9038 6.66776 30.9038 5.9292 31.3961C6.17539 31.3961 5.9292 31.3961 5.9292 31.3961Z" fill="#005BA1"/>
<path fill-rule="evenodd" clip-rule="evenodd" d="M63.2906 15.6411C71.1686 14.9025 68.4605 23.2729 65.0139 25.2424C63.2906 25.981 61.5673 26.2271 59.844 25.9809L63.2906 15.6411ZM56.1512 28.4428C59.3517 28.689 62.5521 28.6889 65.7525 27.9504C71.1686 25.4885 72.8919 17.6106 70.1838 14.6563C68.4605 12.6869 64.0292 13.1792 61.3212 13.1792L56.1512 28.4428Z" fill="#444847"/>
<path fill-rule="evenodd" clip-rule="evenodd" d="M78.5542 29.6733C80.5237 29.1809 82.7394 31.1503 80.0313 31.6427C77.3233 32.1351 75.6 30.658 78.5542 29.6733ZM81.7546 20.5643C83.9703 19.8258 83.2317 23.5186 82.0008 24.011C80.7699 24.5034 80.0313 24.011 80.2775 22.5339C80.5237 21.0568 80.7699 20.8105 81.7546 20.5643ZM78.8004 25.2419C78.0618 25.2419 77.3233 25.7343 76.8309 26.4729C76.3385 27.2114 76.5847 28.4424 77.5695 28.9347C75.1076 29.9195 74.1229 31.6427 75.3538 32.8736C77.3233 34.8431 85.4474 33.8584 83.9703 29.1809C83.2317 26.9652 80.0313 27.9499 79.2928 26.719C79.7851 25.4881 81.2623 26.9652 83.9703 25.2419C85.2012 24.2572 85.9398 22.5338 85.6936 20.8105H87.1707L87.6631 18.5949C84.2165 18.1025 79.2928 18.1025 78.0618 21.7953C77.8156 22.5338 77.8156 23.2724 77.8156 23.7648C77.8156 24.011 78.0618 24.2571 78.0618 24.5033L78.8004 25.2419Z" fill="#444847"/>
<path fill-rule="evenodd" clip-rule="evenodd" d="M144.04 25.9809C139.854 26.9657 140.593 20.5648 145.763 20.811C145.271 22.5343 144.778 24.2576 144.04 25.9809ZM146.748 18.103C142.809 18.3491 139.854 18.8415 138.624 23.2729C137.393 28.4428 141.824 28.9352 146.009 28.1966L150.933 12.9331H148.225L146.748 18.103Z" fill="#444847"/>
<path fill-rule="evenodd" clip-rule="evenodd" d="M106.866 20.5647C106.619 21.7956 106.127 23.2727 105.635 24.5037C105.142 25.7346 105.388 25.4884 104.404 25.9808C101.203 27.2117 101.942 23.7651 103.173 22.288C104.157 21.0571 105.388 20.3185 106.866 20.5647ZM104.404 27.7041V27.9503C104.404 27.9503 104.404 28.1965 104.404 28.4427H106.866L110.312 18.349C108.096 17.8566 106.127 17.8566 103.911 18.5952C97.5105 21.0571 97.7566 31.8893 104.404 27.7041Z" fill="#444847"/>
<path fill-rule="evenodd" clip-rule="evenodd" d="M162.011 20.5651C161.765 21.7961 161.273 23.2732 160.78 24.5041C160.534 25.7351 159.549 26.4736 158.318 26.2275C158.072 26.2275 157.826 26.2274 157.826 25.9813C156.595 24.9965 157.826 20.3189 162.011 20.5651ZM159.549 27.7046V28.4431H162.011L165.458 18.3495C161.765 17.1185 157.826 18.3495 155.61 21.5499C153.149 25.7351 154.626 30.905 159.549 27.7046Z" fill="#444847"/>
<path fill-rule="evenodd" clip-rule="evenodd" d="M126.314 28.4427H129.022L130.746 23.2727L130.992 22.7804C130.992 22.0419 131.484 21.5495 131.977 21.3033C134.438 19.58 134.685 20.5647 134.192 22.5342L132.223 28.6889H134.685L136.9 22.288C136.9 22.0418 136.9 21.7956 137.147 21.7956C137.393 20.3185 137.393 18.8414 135.916 18.5952C134.438 18.5952 133.208 18.8414 131.977 19.8261L132.223 18.8414H129.515L126.314 28.4427Z" fill="#444847"/>
<path fill-rule="evenodd" clip-rule="evenodd" d="M95.2948 18.3486H93.3253L92.5868 20.5642H94.3101C94.0639 22.2875 89.1402 30.9041 97.2643 27.9498L97.7567 25.2418C97.2643 25.488 96.772 25.7342 96.2796 25.7342C94.5563 25.488 96.772 21.3029 97.0181 20.3181H98.9876L99.7262 18.1024H97.7567L98.4953 15.8867H95.7872L95.2948 18.3486Z" fill="#444847"/>
<path fill-rule="evenodd" clip-rule="evenodd" d="M120.652 28.4418H123.36L128.53 13.1782H125.822L120.652 28.4418Z" fill="#444847"/>
<path fill-rule="evenodd" clip-rule="evenodd" d="M109.574 28.4418H112.282L117.452 13.1782H114.744L109.574 28.4418Z" fill="#444847"/>
<path fill-rule="evenodd" clip-rule="evenodd" d="M70.9224 28.4424H73.6304L76.8308 18.1026H74.1228L70.9224 28.4424ZM76.8308 13.9175C77.5694 13.9175 78.0618 14.6561 77.8156 15.3946C77.5694 16.1332 77.077 16.8717 76.0923 16.8717C75.3537 16.8717 74.8613 16.1332 75.1075 15.3946C75.3537 14.6561 76.0923 14.1637 76.8308 13.9175Z" fill="#444847"/>
<path fill-rule="evenodd" clip-rule="evenodd" d="M85.9397 28.4424H88.6477L91.8482 18.1026H89.1401L85.9397 28.4424ZM91.8482 13.9175C92.5867 13.9175 93.0791 14.6561 92.8329 15.3946C92.5867 16.1332 92.0943 16.8717 91.1096 16.8717C90.371 16.8717 89.8787 16.1332 90.1249 15.3946C90.371 14.6561 91.1096 14.1637 91.8482 13.9175Z" fill="#444847"/>
<path fill-rule="evenodd" clip-rule="evenodd" d="M148.225 28.4424H150.933L154.133 18.1026H151.425L148.225 28.4424ZM154.133 13.9175C154.872 13.9175 155.364 14.6561 155.118 15.3946C154.872 16.1332 154.38 16.8717 153.395 16.8717C152.656 16.8717 152.164 16.1332 152.41 15.3946C152.656 14.6561 153.395 14.1637 154.133 13.9175Z" fill="#444847"/>
<path fill-rule="evenodd" clip-rule="evenodd" d="M164.227 29.9199H85.6936V31.1509H164.227V29.9199Z" fill="#444847"/>
<path fill-rule="evenodd" clip-rule="evenodd" d="M71.6609 29.9199H55.6588V31.1509H71.6609V29.9199Z" fill="#444847"/>
</svg>
