<svg width="126" height="69" viewBox="0 0 126 69" fill="none" xmlns="http://www.w3.org/2000/svg">
<path d="M14.326 19.235C11.042 19.235 7.99257 20.4079 5.64684 22.519C3.3011 24.3956 1.89366 27.2105 1.89366 30.2599C1.89366 32.3711 2.59738 34.4823 3.77025 36.1243C5.17769 38.0009 7.05427 39.6429 8.93086 40.8157C4.47397 41.754 2.12824 43.6306 2.12824 46.9147C2.12824 48.5567 3.06653 50.1986 4.47397 50.9024C6.11598 52.0752 9.40001 52.5444 14.7952 52.779C18.0792 52.779 21.3632 53.2481 24.4127 54.6555C26.2893 55.8284 27.2276 57.705 27.2276 59.8162C27.2276 62.1619 26.0547 64.0385 24.1781 65.4459C21.5978 67.0879 18.7829 67.7916 15.7335 67.5571C12.4495 67.7916 9.40001 67.0879 6.58513 65.4459C4.70854 64.2731 3.53568 62.3965 3.53568 60.0508C3.53568 57.9396 4.47397 56.063 5.88141 54.6555C5.64684 54.421 5.17769 54.421 4.70854 54.421C3.53568 54.421 2.12823 54.8901 1.42451 55.8284C0.720794 56.7667 0.251648 58.1742 0.251648 59.5816C0.251648 62.3965 1.89366 64.9768 4.47397 66.3842C7.758 68.2608 11.5112 69.1991 15.4989 68.9645C19.4867 69.1991 23.4744 68.2608 26.993 65.9151C31.4499 62.8657 32.3882 57.0013 29.3387 52.5444C27.9313 50.6678 26.0547 49.2604 23.709 48.7912C20.6595 48.0875 17.3755 47.8529 14.326 47.6183C11.9803 47.6183 9.40001 47.3838 7.05428 46.6801C5.88141 46.2109 5.17769 45.7418 5.17769 44.8035C5.17769 42.9269 7.758 41.754 12.9186 41.5194C18.0792 41.2849 21.5978 40.112 23.709 37.7663C25.8201 35.6552 26.993 32.8402 26.7584 30.0254C26.7584 27.6796 26.0547 25.5685 24.8818 23.6919C25.5856 22.7536 26.7584 22.0499 27.9313 21.8153C28.635 21.8153 29.1042 22.2844 29.5733 23.2227C30.0425 24.161 30.7462 24.6302 31.6845 24.6302C33.0919 24.6302 33.7956 23.9265 33.7956 22.2845C33.7956 21.5807 33.3265 20.6425 32.8573 20.1733C32.1536 19.4696 31.2153 19.235 30.0425 19.235C27.4621 19.4695 25.1164 20.6424 23.709 22.7536C21.3632 20.6424 17.8446 19.235 14.326 19.235ZM9.16543 23.4573C10.3383 21.8153 12.2149 20.877 14.326 20.877C16.2026 20.877 17.8446 21.5807 19.2521 22.9882C20.8941 25.0993 21.5978 27.9142 21.3632 30.4945C21.5978 33.0748 20.8941 35.8897 19.2521 38.0008C16.9064 40.8157 12.684 41.0503 10.1037 38.47C9.86915 38.2354 9.63458 38.0008 9.63458 38.0008C8.22714 35.8897 7.52342 33.5439 7.75799 30.9636C7.28885 28.6179 7.99257 25.8031 9.16543 23.4573ZM45.0551 6.80261C45.7589 7.50633 46.6972 7.97548 47.87 7.97548C48.8083 7.97548 49.9812 7.50633 50.6849 6.80261C51.3886 6.09889 51.8578 5.16057 51.8578 3.9877C51.8578 3.04941 51.3886 1.87659 50.6849 1.17287C49.9812 0.469147 49.0429 0 47.87 0C46.9317 0 45.7589 0.469147 45.0551 1.17287C44.3514 1.87659 43.8823 2.81484 43.8823 3.9877C43.8823 5.16057 44.3514 6.09889 45.0551 6.80261ZM50.2158 19.4696C46.9317 20.4078 43.4131 21.1116 40.1291 21.3462V22.9882H41.0674C42.0057 22.9882 42.944 22.9882 43.8823 23.2227C44.586 23.4573 45.0551 23.9265 45.2897 24.6302C45.7589 26.7414 45.9934 28.8525 45.7589 31.1982V40.3466C45.7589 43.6306 45.7589 45.7418 45.7589 46.4455C45.7589 47.1492 45.2897 47.853 44.8206 48.3221C43.8823 49.0258 42.7094 49.2604 41.302 49.0258H40.1291V50.6678H56.3147V49.0258H55.6109C54.4381 49.0258 53.2652 48.7913 52.3269 48.3221C51.6232 47.853 51.3886 47.1492 51.154 46.4455C51.154 45.5072 50.9195 43.6306 50.9195 40.3466V19.235L50.2158 19.4696ZM87.7475 30.4945C88.6858 28.1488 89.8586 26.0376 91.2661 23.9264C91.9698 22.9881 93.1427 22.519 94.3155 22.2845V20.6424H84.2289V22.2845C86.5746 22.2845 87.9821 23.2228 87.9821 24.8648C87.7475 26.7414 87.0438 28.3833 86.34 30.0254L79.0683 46.4455L70.8582 27.9142C70.1545 26.7413 69.6853 25.3339 69.4508 23.9264C69.4508 23.2227 69.6853 22.7536 70.1545 22.519C71.0928 22.2845 72.2656 22.0499 73.2039 22.0499V20.4078H59.5987V22.0499C60.7715 22.0499 61.7099 22.2844 62.6481 22.9882C63.5864 24.3956 64.5247 25.803 65.2284 27.445L76.0188 51.6061H78.13L87.7475 30.4945ZM122.464 22.9882C120.119 20.4078 116.835 19.235 113.316 19.4696C109.328 19.4696 105.34 21.1116 102.76 24.161C99.9453 27.445 98.3033 31.6674 98.5378 36.1243C98.5378 39.1737 99.2416 42.2232 100.649 44.8035C102.056 47.1492 103.933 49.0258 106.279 50.1987C110.97 52.779 116.6 52.779 121.057 49.9641C123.403 48.5566 125.045 46.6801 125.748 44.0997H123.872C122.23 47.8529 118.477 50.4332 114.254 50.1987C111.205 50.4332 108.39 48.7912 106.748 46.2109C104.871 42.4577 103.933 38.47 104.168 34.2477C104.168 33.544 104.168 32.3711 104.402 30.9636H125.514C125.748 27.9142 124.575 25.0993 122.464 22.9882ZM105.106 29.3217C106.044 23.6919 108.625 21.1116 113.081 21.1116C116.6 20.877 119.415 23.6919 119.649 27.2105C119.649 27.4451 119.649 27.6796 119.649 27.9142C119.649 28.3834 119.649 28.8525 119.649 29.3217H105.106Z" fill="#EC8888"/>
<path d="M79.0683 58.1738H77.8954V66.6185H79.0683V58.1738ZM86.34 58.1738H84.698V66.6185H85.8709V59.5813L90.3278 66.6185H91.7352V58.1738H90.5623V64.9764L86.34 58.1738ZM97.8341 66.8531H100.649C101.118 66.8531 101.822 66.8531 102.291 66.6185C102.76 66.3839 103.229 66.1494 103.698 65.9148C104.168 65.4456 104.637 65.2111 104.871 64.5073C105.106 63.8036 105.34 63.3344 105.34 62.6307C105.34 61.927 105.34 61.2233 104.871 60.7541C104.637 60.285 104.168 59.8158 103.698 59.3467C103.229 59.1121 102.76 58.643 102.291 58.643C101.822 58.4084 101.118 58.4084 100.649 58.4084H97.8341V66.8531ZM99.007 59.3467H100.414C100.884 59.3467 101.353 59.3467 101.822 59.5813C102.291 59.8159 102.526 59.8158 102.995 60.285C103.229 60.5195 103.464 60.9888 103.698 61.2233C103.933 61.6925 103.933 62.1616 103.933 62.6307C103.933 63.0999 103.933 63.569 103.698 64.0382C103.464 64.5073 103.229 64.7419 102.995 64.9764C102.76 65.211 102.291 65.4456 101.822 65.6802C101.353 65.9148 100.884 65.9148 100.414 65.9148H99.007V59.3467ZM111.909 58.1738H110.736V66.6185H111.909V58.1738ZM118.946 64.7419H122.933L123.872 66.8531H125.279L121.526 58.4084H120.353L116.835 66.8531H118.242L118.946 64.7419ZM121.057 59.5813L122.699 63.5691H119.415L121.057 59.5813Z" fill="#999999"/>
</svg>
