<svg width="45" height="37" viewBox="0 0 45 37" fill="none" xmlns="http://www.w3.org/2000/svg">
<g clip-path="url(#clip0_126_694)">
<path d="M10.2273 36.3228V17.8732L4.83521 12.6387L0 9.73389V33.0669C0 34.8684 1.37549 36.3228 3.06826 36.3228H10.2273Z" fill="#4285F4"/>
<path d="M34.7727 36.3226H41.9317C43.6296 36.3226 45 34.8628 45 33.0667V9.73389L39.5234 13.061L34.7727 17.8731V36.3226Z" fill="#34A853"/>
<path d="M10.2273 17.8734L9.49359 10.6646L10.2273 3.76514L22.5 13.5325L34.7727 3.76514L35.5934 10.2921L34.7727 17.8734L22.5 27.6408L10.2273 17.8734Z" fill="#EA4335"/>
<path d="M34.7727 3.76494V17.8732L45 9.73385V5.39277C45 1.36655 40.6688 -0.92868 37.6365 1.48593L34.7727 3.76494Z" fill="#FBBC04"/>
<path d="M0 9.73394L4.70373 13.4776L10.2273 17.8733V3.76502L7.36348 1.48602C4.32598 -0.928781 0 1.36664 0 5.39267V9.73375V9.73394Z" fill="#C5221F"/>
</g>
<defs>
<clipPath id="clip0_126_694">
<rect width="45" height="36" fill="white" transform="translate(0 0.5)"/>
</clipPath>
</defs>
</svg>
