<svg width="154" height="73" viewBox="0 0 154 73" fill="none" xmlns="http://www.w3.org/2000/svg">
<path d="M14.8882 36.8709C14.8882 41.82 19.5899 42.315 21.817 42.315C28.2509 42.315 30.9729 39.3455 32.2102 39.3455C33.4475 39.3455 31.4678 42.315 29.4882 43.5523C13.8984 52.9557 0.783081 61.1216 0.783081 68.7928C0.783081 72.2572 4.00002 72.5047 6.22714 72.5047C8.70172 72.5047 20.3322 71.02 38.3966 43.0573C39.139 41.82 40.6238 41.0776 41.8611 40.0878C43.0984 39.098 47.5526 35.881 48.2949 35.881C49.0373 35.881 49.0373 36.1284 49.0373 36.6233C49.0373 37.1183 48.2949 38.3557 48.2949 39.8404C48.2949 41.3252 49.7797 43.0573 52.2543 43.0573C57.6983 43.0573 61.6576 39.098 64.8746 35.6336C63.8848 35.3861 62.6475 35.1387 61.1627 34.8913C59.9254 35.8811 58.6882 36.8709 57.9458 36.8709C56.7085 36.8709 56.2136 36.1285 56.2136 35.6336C56.2136 35.1387 56.2136 34.3963 56.4611 33.9014C53.9865 33.159 51.2644 32.4166 48.2949 31.6742C47.5526 32.1691 46.5628 32.4167 46.0678 32.4167C45.8204 32.4167 45.8204 32.1691 46.0678 31.6742C46.0678 31.6742 46.3153 31.4268 46.3153 31.1794C44.0882 30.437 41.861 29.6946 39.6339 28.9522C35.1797 33.159 29.7356 37.3658 27.0136 37.3658C25.7763 37.3658 24.7865 36.6234 24.7865 34.6437C24.7865 33.4064 26.2712 29.4472 29.4882 24.9929C27.0136 24.0031 24.7865 23.0132 22.3119 21.7759C17.6102 27.4674 14.8882 32.9116 14.8882 36.8709ZM8.70172 65.5759C8.70172 62.1115 20.3322 53.4506 21.817 53.4506C22.0644 53.4506 22.3119 53.6979 22.3119 53.9454C22.3119 56.6674 13.8983 67.3081 10.4339 67.3081C9.19663 67.0607 8.70172 66.5657 8.70172 65.5759ZM112.386 38.1082C112.386 40.0878 112.881 43.3047 116.098 43.3047C122.78 43.3047 130.946 34.8913 131.193 34.8913C131.441 34.8913 131.441 34.8912 131.441 35.1387C131.441 35.3861 130.451 38.8505 120.8 50.4811C111.149 62.1116 106.448 66.8132 106.448 69.2878C106.448 71.7623 108.675 72.7522 109.664 72.7522C110.654 72.7522 114.861 72.5048 125.007 56.1726C132.183 44.542 135.647 37.3657 139.359 31.6742C132.678 34.6437 124.017 36.6234 112.386 38.1082ZM72.2983 37.1183C72.2983 39.3454 73.0407 42.8098 78.4848 42.8098C81.4543 42.8098 84.1763 41.0776 86.6509 38.8505C82.1966 38.6031 77.4949 37.8607 72.2983 37.1183ZM92.5899 39.0979C91.8475 40.0877 91.3526 41.0777 90.8577 41.82C90.8577 41.82 90.3627 42.315 91.1051 42.315H98.2814C98.5288 42.315 98.7763 42.0675 99.2712 41.82C99.2712 41.82 100.014 40.5827 101.003 39.0979C98.2814 39.3454 95.5594 39.3454 92.5899 39.0979Z" fill="url(#paint0_radial_169_579)"/>
<path d="M146.288 14.5995C146.288 15.8368 148.268 16.5792 148.763 16.5792C149.753 16.5792 152.97 14.5995 152.97 11.63C152.97 10.6402 152.227 9.40283 151.237 9.40283C149.753 9.65029 146.288 13.1148 146.288 14.5995ZM137.875 24.4978C133.42 29.447 127.976 35.8808 123.027 35.8808C121.295 35.8808 120.553 34.6436 120.553 33.6538C120.553 32.9114 121.295 31.9215 122.532 31.674C127.234 30.1893 134.41 24.2503 134.41 20.291C134.41 19.3012 133.915 18.0638 132.431 18.0638C130.451 18.0638 124.759 19.0537 117.831 27.2198C117.088 28.2096 116.098 28.7046 115.603 28.7046C114.861 28.7046 114.119 27.4674 114.119 24.9928C114.119 24.7453 114.119 24.4977 114.119 24.2503C109.17 25.9825 103.973 27.4673 98.7763 28.4571C97.0441 31.9215 94.3221 36.1283 92.3424 38.8503C95.3119 38.8503 98.0339 38.8503 100.508 38.8503C102.241 36.1283 104.963 32.169 104.963 31.9216C105.21 31.6741 105.458 31.4266 105.705 31.4266C106.942 31.4266 105.458 34.3961 109.664 34.3961C110.902 34.3961 111.892 33.9012 112.387 33.9012C112.634 33.9012 112.634 34.1487 112.634 34.3961C112.634 34.8911 112.139 35.8809 111.892 37.3657C111.892 37.6131 111.892 37.8605 111.892 38.108C123.522 36.6233 132.183 34.6435 139.112 31.674C140.597 29.4469 142.824 26.23 144.556 24.7452C147.525 21.7757 148.268 20.2911 148.268 19.5487C148.268 18.5589 147.773 17.8165 146.783 17.8165C146.041 17.8165 142.329 19.5487 137.875 24.4978ZM123.275 28.2097C123.275 26.9724 127.729 22.5182 129.214 22.5182C129.461 22.5182 129.709 22.7655 129.709 23.013C129.709 24.7452 125.254 28.7046 123.77 28.7046C123.522 28.7046 123.275 28.4572 123.275 28.2097ZM23.3018 21.5283C25.7763 22.7656 28.2509 23.7554 30.478 24.7452C30.9729 24.2503 31.2204 23.5079 31.7153 23.013C29.2407 22.0232 26.7661 21.2809 24.2916 20.291C24.0441 20.7859 23.5492 21.2809 23.3018 21.5283ZM40.6238 28.7046C43.0984 29.447 45.3255 30.1893 47.3051 30.9317C47.8001 30.4368 48.5424 29.1995 49.2848 28.2097C47.0577 27.7148 44.8306 27.2198 42.8509 26.7249C42.1085 27.2198 41.3662 27.9623 40.6238 28.7046ZM51.2644 29.6944C51.017 29.9418 50.0272 30.9317 49.0373 31.4266C52.0068 32.4165 54.7289 33.1589 57.2034 33.6538C57.6984 32.4165 58.4407 31.1791 59.678 29.6944C57.2034 29.4469 54.7289 28.952 52.2543 28.4571C52.0068 28.952 51.7594 29.4469 51.2644 29.6944ZM88.6306 30.1893C86.8984 33.4063 84.4238 36.1284 81.4543 36.1284C80.4645 36.1284 79.9695 35.6335 79.9695 34.8911C79.9695 33.9013 80.7119 32.4165 81.7017 30.6843C78.9797 30.9317 76.2577 30.9317 73.5356 30.6843C73.2882 31.4267 72.5458 34.6435 72.5458 36.6232C77.495 37.613 82.4441 38.108 86.8984 38.603C89.3729 36.1284 91.6 32.6639 92.8373 29.447C91.3526 29.9419 90.1153 30.1893 88.6306 30.1893ZM61.9051 34.8911C63.3899 35.1385 64.6272 35.386 65.617 35.6334C67.3492 33.6538 69.0814 31.674 70.5661 30.9317C68.8339 30.9317 67.3492 30.6843 65.617 30.6843C65.1221 31.6741 63.6373 33.6538 61.9051 34.8911Z" fill="url(#paint1_radial_169_579)"/>
<path d="M33.4474 12.6211C29.983 15.3431 26.7661 17.8176 24.2915 20.2922C26.5186 21.282 28.9932 22.0244 31.7152 23.0142C33.2 21.282 34.6847 19.5498 36.6644 17.8176C43.8407 11.1363 52.2542 7.91933 57.4508 7.91933C59.6779 7.91933 62.1525 8.41428 62.6474 8.41428C62.8949 8.41428 62.8949 8.41419 63.1423 8.16673C63.3898 7.91927 67.1017 0.990551 67.1017 0.990551V0.743003C67.1017 0.743003 66.3593 0.495605 64.8745 0.495605C59.183 0.495605 46.3152 3.2177 33.4474 12.6211ZM70.3186 7.17699C70.3186 10.8889 72.5457 15.838 81.7017 19.0549C81.9491 19.0549 82.1966 19.0549 82.1966 19.3023C82.1966 19.7972 77.7424 25.4889 73.783 26.2313C73.2881 26.2313 73.0406 25.9837 73.0406 25.4888C73.0406 24.9939 73.5356 23.7567 73.5356 22.0244C73.5356 20.0448 73.0406 17.5702 69.3288 17.5702C65.8644 17.5702 61.9051 19.3024 52.0068 28.7058C54.4813 29.2008 56.9559 29.6957 59.4305 29.9431C62.6474 26.2313 67.3491 22.5194 68.5864 22.5194C69.3288 22.5194 69.5763 22.7667 69.5763 23.0142C69.5763 24.2515 67.8441 25.2414 66.6068 26.2313C65.122 27.2211 64.8745 27.4685 64.8745 28.4583C64.8745 28.9532 65.6169 28.9533 65.6169 29.9431C65.6169 30.1906 65.6169 30.4379 65.3695 30.9329C66.8542 31.1803 68.5864 31.1804 70.3186 31.1804C71.061 30.6855 71.8034 30.4379 72.2983 30.4379C72.7932 30.4379 73.0406 30.6854 73.0406 30.9329C73.0406 30.9329 73.0406 30.933 73.0406 31.1804C75.7627 31.1804 78.4847 31.1804 81.2068 31.1804C82.6915 28.9533 84.6712 26.7262 85.661 26.2313C87.1457 25.2414 88.1356 24.2516 88.1356 23.7567C88.1356 23.2618 86.8983 22.5194 86.8983 22.0244C86.6508 21.5295 87.1457 21.0346 88.383 21.2821C89.8678 21.777 91.1051 21.777 91.1051 22.7668C91.1051 23.7566 90.1152 27.221 88.383 30.4379C89.8678 30.1905 91.1051 30.1906 92.5898 29.9431C94.0746 26.9736 94.8169 24.2516 94.8169 22.5194C94.8169 22.2719 94.8169 21.7769 95.5593 21.7769C96.0542 21.7769 97.7864 22.0244 98.5288 22.0244C99.2712 22.0244 100.508 22.7667 100.508 24.2515C100.508 25.2413 99.7661 26.7262 99.0237 28.7058C104.22 27.716 109.417 26.2312 114.366 24.499C114.614 21.2821 116.098 20.0448 116.098 18.8075C116.098 18.0652 115.851 17.8176 114.861 17.8176C112.881 17.8176 109.169 22.5194 108.427 22.5194C107.932 22.5194 107.19 20.2922 106.695 19.5499C105.705 18.3126 104.468 18.065 101.003 18.065C99.2712 18.065 98.2813 18.3126 96.5491 18.3126C94.8169 18.3126 94.322 18.3125 93.8271 17.3227C93.5797 16.5803 88.1356 2.47524 76.0101 2.47524C73.2881 2.22778 70.3186 3.46513 70.3186 7.17699ZM76.5051 8.90923C76.5051 7.17702 77.4949 6.43465 79.2271 6.43465C86.6508 6.43465 90.3627 17.0753 90.3627 17.5702C90.3627 17.8177 90.1152 18.065 89.6203 18.065C86.8983 18.065 76.5051 13.8584 76.5051 8.90923ZM48.7898 20.5396C48.0474 21.282 45.8203 23.7566 42.8508 26.4787C45.0779 26.9736 47.0576 27.4684 49.2847 27.9633C51.2644 25.2413 53.739 21.7769 54.4813 21.0346C55.4712 19.7973 56.2135 19.055 56.2135 18.8075C56.2135 18.3126 55.4712 17.8176 54.7288 17.8176C53.9864 17.8176 51.0169 18.3125 48.7898 20.5396Z" fill="url(#paint2_radial_169_579)"/>
<path d="M51.0169 29.4474C50.522 29.9423 49.5322 30.6847 48.5424 31.1796C48.7898 31.1796 49.0373 31.427 49.5322 31.427C50.522 30.6847 51.5118 29.9424 51.5118 29.9424C52.0068 29.4474 52.2542 29.2 52.7491 28.7051C52.5017 28.7051 52.2542 28.705 52.0068 28.4575C51.7593 28.9524 51.5119 29.2 51.0169 29.4474Z" fill="#63BBEB"/>
<path d="M105.21 32.1695L103.726 34.6441C102.736 36.1289 101.498 37.8611 100.756 39.3459C101.003 39.3459 101.251 39.3459 101.498 39.3459C102.241 38.1086 103.231 36.6238 104.22 35.1391L105.705 32.6645C105.953 32.417 105.953 32.4171 106.2 32.4171C106.2 32.4171 106.448 32.417 106.448 32.9119C106.695 33.9017 107.19 35.1391 110.159 35.1391C110.902 35.1391 111.892 34.8916 112.387 34.6441C112.634 34.6441 112.634 34.6442 112.881 34.3967C112.881 34.3967 112.881 34.3967 112.881 34.6441C112.881 34.6441 112.881 35.139 112.634 35.3865C112.387 35.8814 112.139 36.6238 112.139 37.6136C112.139 37.8611 112.139 38.1085 112.139 38.356C112.387 38.356 112.634 38.356 112.881 38.356C112.881 38.1085 112.881 37.861 112.881 37.861C112.881 37.1187 113.129 36.3764 113.376 35.634C113.376 35.1391 113.624 34.8916 113.624 34.6441C113.624 33.9017 113.129 33.9018 112.881 33.9018C112.634 33.9018 112.634 33.9017 112.139 34.1492C111.644 34.3966 110.902 34.6441 110.159 34.6441C107.685 34.6441 107.437 33.6542 107.19 32.9119C106.942 32.417 106.942 31.9221 106.2 31.9221C105.953 31.4272 105.458 31.6746 105.21 32.1695Z" fill="url(#paint3_linear_169_579)"/>
<path d="M88.1356 30.4368C87.3933 31.6741 86.6509 32.9115 85.6611 33.9013C84.1763 35.386 82.939 36.1285 81.4543 36.1285C80.9594 36.1285 80.217 35.8809 80.217 35.1386C80.217 34.1487 80.9594 32.664 81.9492 30.9318C81.7017 30.9318 81.4543 30.9318 81.2068 30.9318C80.217 32.4165 79.722 33.9013 79.722 35.1386C79.722 36.1284 80.4644 36.8708 81.7017 36.8708C83.1865 36.8708 84.9187 36.1284 86.4034 34.6436C87.3933 33.4063 88.3831 32.1691 89.3729 30.6844C88.6305 30.1895 88.3831 30.4368 88.1356 30.4368Z" fill="url(#paint4_linear_169_579)"/>
<path d="M56.9561 33.6542C57.2035 33.6542 57.451 33.6542 57.6984 33.9016C58.1934 32.9118 58.9357 31.4271 60.173 29.9424C59.9256 29.9424 59.6781 29.9424 59.4306 29.9424C58.4408 30.9322 57.451 32.417 56.9561 33.6542Z" fill="#3777C5"/>
<path d="M40.1288 28.458C40.3762 28.458 40.6237 28.7055 40.8712 28.7055C41.6135 27.9632 42.3559 27.2207 43.0983 26.4784C42.8508 26.4784 42.6034 26.231 42.3559 26.231C41.861 26.9733 41.1186 27.7156 40.1288 28.458Z" fill="#63BBEB"/>
<path d="M65.3696 30.437C65.1221 30.9319 64.6272 31.4269 64.1323 32.1692C63.3899 33.1591 62.4001 33.9014 61.6577 34.6438C61.9052 34.6438 62.1526 34.8914 62.4001 34.8914C63.1424 34.149 64.1323 33.4066 64.6272 32.6642C65.3696 31.9218 65.8645 31.1794 66.1119 30.437C65.8645 30.6845 65.617 30.6845 65.3696 30.437Z" fill="#63BBEB"/>
<path d="M66.1119 34.644C65.8644 34.8915 65.617 35.3864 65.1221 35.6339C65.3695 35.6339 65.617 35.6338 65.8645 35.8813C66.1119 35.6338 66.3594 35.3864 66.3594 35.1389C68.0916 33.4067 69.5763 31.6745 71.061 30.9321C70.5661 30.9321 70.3187 30.9321 69.8238 30.9321C68.8339 31.6745 67.5966 33.1592 66.1119 34.644Z" fill="#4980CA"/>
<path d="M30.2305 24.4988C30.4779 24.4988 30.7254 24.7462 30.9728 24.7462C31.4678 24.2513 31.7152 23.5089 32.2101 23.014C31.9627 23.014 31.7152 22.7666 31.4678 22.7666C30.9728 23.509 30.4779 24.0039 30.2305 24.4988Z" fill="#2F67AB"/>
<path d="M134.163 20.2918C134.163 24.2512 126.986 30.1901 122.532 31.4274C121.295 31.9223 120.305 32.6648 120.305 33.6546H121.047C121.047 32.9122 121.79 32.4173 122.78 31.9224C127.234 30.6851 134.905 24.4987 134.905 20.0444H134.163V20.2918Z" fill="url(#paint5_linear_169_579)"/>
<path d="M117.831 26.9733C117.088 27.9631 116.346 28.458 115.851 28.458C115.603 28.458 114.861 27.4682 114.861 25.241C114.861 24.9936 114.861 24.7461 114.861 24.2511C114.614 24.2511 114.366 24.4987 114.119 24.4987C114.119 24.7461 114.119 24.9936 114.119 24.9936C114.119 27.7157 115.109 28.9529 115.851 28.9529C116.841 28.9529 117.831 27.963 118.325 27.2207C119.315 26.2308 120.058 25.2411 120.8 24.4987L120.553 23.7563C119.563 24.7462 118.82 25.9834 117.831 26.9733Z" fill="url(#paint6_linear_169_579)"/>
<path d="M120.553 24.0034L120.8 24.7457C126.739 19.0542 131.193 18.5593 132.431 18.5593C133.915 18.5593 133.915 20.044 133.915 20.5389H134.658C134.658 19.3016 133.915 18.0643 132.431 18.0643C130.698 17.5694 126.244 18.3119 120.553 24.0034Z" fill="url(#paint7_linear_169_579)"/>
<path d="M123.027 28.2107C123.027 28.7056 123.522 29.2004 124.017 29.2004C125.749 29.2004 130.203 24.9936 130.203 23.014C130.203 22.5191 129.708 22.2716 129.461 22.2716C127.729 22.0242 123.027 26.4785 123.027 28.2107ZM123.522 28.2107C123.522 26.9734 127.976 22.7666 129.214 22.7666H129.461C129.461 24.4988 125.007 28.4581 123.522 28.2107C123.77 28.4581 123.522 28.2107 123.522 28.2107Z" fill="url(#paint8_linear_169_579)"/>
<path d="M146.041 14.5995C146.041 16.0843 148.02 17.0741 148.763 17.0741C149.753 17.0741 153.217 14.8469 153.217 11.8774C153.217 10.6401 152.475 9.40283 150.99 9.40283C149.505 9.40283 146.041 12.8673 146.041 14.5995ZM146.783 14.5995C146.783 13.1148 150 9.89778 151.237 9.89778C151.98 9.89778 152.722 10.8876 152.722 11.63C152.722 14.352 149.753 16.0842 149.01 16.0842C148.268 16.3317 146.783 15.5894 146.783 14.5995Z" fill="url(#paint9_linear_169_579)"/>
<path d="M92.3424 39.0982C92.5899 39.0982 92.8373 39.0982 93.0848 39.0982C95.0644 36.1287 97.7865 31.9219 99.5187 28.4575C99.2712 28.4575 99.0238 28.4576 98.5288 28.7051C96.7966 32.1695 94.0746 36.3761 92.3424 39.0982Z" fill="#72C1ED"/>
<path d="M22.8068 21.5293C23.0542 21.5293 23.3017 21.7767 23.5491 21.7767C24.0441 21.2818 24.2915 21.0343 24.7864 20.5394C24.539 20.5394 24.2915 20.292 24.0441 20.292C23.5491 20.5394 23.3017 21.0344 22.8068 21.5293Z" fill="#63BBEB"/>
<path d="M49.0374 27.9624C48.0476 29.1997 47.3052 30.1896 47.0577 30.6845C47.3052 30.6845 47.5527 30.9319 47.8001 30.9319C48.295 30.1896 49.0374 29.1997 49.7798 27.9624C49.5323 27.9624 49.2849 27.9624 49.0374 27.9624Z" fill="#326CB3"/>
<path d="M73.0407 31.6745C72.7933 32.9118 72.2984 35.139 72.0509 36.8712C72.2984 36.8712 72.5458 36.8711 72.7933 37.1186C72.7933 35.3864 73.2882 33.1593 73.7831 31.922C73.7831 31.4271 74.0306 31.1796 74.0306 30.9321C73.7831 30.9321 73.5356 30.9321 73.2882 30.9321C73.0407 31.1796 73.0407 31.427 73.0407 31.6745Z" fill="#63BBEB"/>
<path d="M92.3424 29.9419C91.6001 31.4267 90.8577 32.9114 89.8679 34.3961C89.1255 35.6334 87.6408 37.613 86.156 39.0978C86.4035 39.0978 86.6509 39.0978 87.1458 39.0978C89.6204 36.3757 91.8475 33.1589 93.0848 29.9419C93.0848 29.6945 92.5899 29.6945 92.3424 29.9419Z" fill="#4980CA"/>
<path d="M137.627 24.2512L136.142 25.736C131.936 30.4377 127.234 35.6343 123.027 35.6343C121.295 35.6343 121.047 34.6445 121.047 33.6547H120.305C120.305 35.1394 121.047 36.1292 122.532 36.3767C124.017 36.3767 125.007 36.1291 126.739 35.3868C130.203 33.6546 133.668 29.9428 136.637 26.4784L138.122 24.9937C142.576 20.0445 146.041 18.5597 147.031 18.5597V17.8173C145.793 17.5699 142.329 19.302 137.627 24.2512Z" fill="url(#paint10_linear_169_579)"/>
<path d="M147.031 18.3122C148.02 18.3122 148.268 19.0545 148.268 19.7969C148.268 20.0443 148.02 21.2816 144.556 24.746C142.824 26.4782 140.597 29.6952 138.864 32.1697C139.359 31.9223 139.607 31.9222 140.102 31.6748C141.586 29.6951 143.566 26.7257 145.051 25.241C147.525 22.7664 149.01 21.0341 149.01 19.7969C149.01 18.807 148.268 17.5698 147.031 17.5698V18.3122Z" fill="url(#paint11_linear_169_579)"/>
<path d="M56.7085 35.6339C56.7085 36.6238 57.4508 37.3662 58.6881 37.3662C59.4305 37.3662 60.9152 36.3763 62.4 35.139C62.1525 35.139 61.9051 34.8916 61.6576 34.8916C60.4204 35.8814 59.4305 36.6237 58.9356 36.6237C58.1932 36.6237 57.6983 36.3763 57.6983 35.6339C57.6983 35.139 57.6983 34.6441 57.9458 33.9017C57.6983 33.9017 57.4509 33.9018 57.2034 33.6543C56.7085 34.3967 56.7085 34.8916 56.7085 35.6339Z" fill="url(#paint12_linear_169_579)"/>
<path d="M46.8102 31.1795C46.5627 31.6744 46.3152 31.9218 46.5627 32.1693C46.5627 32.4167 46.8102 32.4168 47.0576 32.4168C47.8 32.4168 48.7898 31.9218 49.7797 31.4269C49.5322 31.4269 49.2847 31.1795 48.7898 31.1795C48.2949 31.427 47.8 31.6743 47.3051 31.6743C47.3051 31.6743 47.3051 31.4269 47.5525 31.4269C47.5525 31.4269 47.8 31.1794 48.0475 30.932C47.8 30.932 47.5525 30.6846 47.3051 30.6846C46.8102 30.932 46.8102 31.1795 46.8102 31.1795Z" fill="url(#paint13_linear_169_579)"/>
<path d="M21.8169 52.9556C20.8271 52.9556 17.3627 55.4301 14.6407 57.9047C12.4135 59.8844 8.45422 63.3487 8.45422 65.5758C8.45422 66.8131 9.19657 67.5555 10.4339 67.5555C11.9186 67.5555 14.3932 65.5759 15.878 64.0912C19.0949 60.8742 22.8068 55.925 22.5593 53.9453C22.5593 53.6978 22.5593 53.4505 22.3118 53.4505C22.3118 53.2031 22.0644 52.9556 21.8169 52.9556ZM8.94913 65.5758C8.94913 62.3589 20.3322 53.6979 21.5694 53.6979C21.5694 55.1827 18.3525 59.8844 14.8881 63.3488C12.661 65.5759 10.9288 66.8131 9.93895 66.8131C9.44403 66.8131 8.94913 66.3182 8.94913 65.5758Z" fill="url(#paint14_linear_169_579)"/>
<path d="M25.2814 34.3965C25.2814 36.6236 26.7661 37.366 27.7559 37.366C30.7254 37.366 35.6746 33.4067 40.8712 28.705C40.6238 28.705 40.3763 28.4575 40.1288 28.4575C35.6746 32.6642 30.478 36.6235 27.7559 36.6235C26.5187 36.6235 25.7763 35.8813 25.7763 34.3965C25.7763 33.1592 27.5085 29.1999 30.478 24.9932C30.2305 24.9932 29.9831 24.7456 29.7356 24.7456C27.0136 28.9524 25.2814 33.1592 25.2814 34.3965Z" fill="url(#paint15_linear_169_579)"/>
<path d="M29.9831 43.7994C31.4678 42.8096 33.4475 40.335 33.2 39.5926C33.2 39.3451 32.9526 39.0977 32.4577 39.0977C31.9628 39.0977 31.4678 39.3452 30.7255 39.8401C29.2407 40.5825 26.5187 42.0672 22.0645 42.0672V42.8095C26.5187 42.8095 29.2407 41.3249 30.9729 40.5825C31.7153 40.335 32.2102 39.8401 32.4577 39.8401C32.4577 40.3351 31.2204 42.3146 29.4882 43.3045" fill="#AF0A55"/>
<path d="M0.783081 68.7933H1.52546C1.52546 61.617 13.4034 53.9459 29.9831 43.8001L29.7356 43.3052C12.661 53.4509 0.783081 61.1221 0.783081 68.7933Z" fill="url(#paint16_linear_169_579)"/>
<path d="M14.6407 36.8717C14.6407 40.5836 17.3628 42.8106 22.0645 42.8106V42.0682C19.5899 42.0682 15.3831 41.3259 15.3831 36.8717C15.3831 33.4073 17.6102 27.9631 23.5492 21.7767C23.3017 21.7767 23.0543 21.5293 22.8068 21.5293C16.8678 27.7157 14.6407 33.1598 14.6407 36.8717Z" fill="url(#paint17_linear_169_579)"/>
<path d="M52.9966 42.81C50.7695 42.81 49.2847 41.0778 49.2847 40.088H48.5424C48.5424 41.8202 50.2746 43.5525 52.7491 43.5525C58.4407 43.5525 62.6474 39.3456 65.8644 35.8812C65.6169 35.8812 65.3695 35.8812 65.122 35.6338C62.1525 39.0982 58.1932 42.81 52.9966 42.81Z" fill="url(#paint18_linear_169_579)"/>
<path d="M42.6034 39.5935L42.356 39.841L41.6136 40.3358C40.6238 41.0782 39.3865 41.8206 38.8915 42.8104C21.0746 70.5257 9.19664 72.0105 6.96952 72.0105C3.75257 72.0105 1.7729 71.5155 1.7729 68.7935H0.783081C0.783081 72.7528 4.74239 72.7529 6.72205 72.7529C7.95934 72.7529 11.6712 72.2579 17.1153 68.5461C24.0441 63.5969 31.4678 55.1833 39.139 43.3054C39.8814 42.3155 40.6238 41.5732 41.8611 41.0783L42.6034 40.5834L42.8509 40.3358C47.3051 37.1189 48.2949 36.624 48.7898 36.624C49.0373 36.624 49.2848 36.624 49.2848 36.624L49.7797 36.1292C49.5322 35.8817 49.2848 35.8816 48.7898 35.8816C48.2949 35.6342 46.3153 36.624 42.6034 39.5935Z" fill="url(#paint19_linear_169_579)"/>
<path d="M72.0509 37.1186C72.0509 41.0779 74.278 43.305 78.7323 43.305C81.9492 43.305 84.9187 41.5728 87.3933 39.0982C87.1458 39.0982 86.8984 39.0982 86.4035 39.0982C84.4238 41.0779 81.7017 42.8101 78.7323 42.8101C74.7729 42.8101 72.7933 41.078 72.7933 37.3661C72.5458 37.1187 72.2984 36.8711 72.0509 37.1186Z" fill="url(#paint20_linear_169_579)"/>
<path d="M100.508 39.0977C99.766 40.3349 99.0237 41.3248 99.0237 41.5722C98.7762 41.8197 98.5287 42.0672 98.5287 42.0672H91.3525L92.5898 40.3349C92.8372 40.0875 93.0847 39.5927 93.3321 39.3452C93.0847 39.3452 92.8372 39.3452 92.5898 39.3452C92.3423 39.5927 92.3423 39.8401 92.0948 40.0875L90.8575 41.8198C90.8575 41.8198 90.6101 42.0673 90.6101 42.3147V42.5621C90.6101 42.8096 90.8576 42.8095 91.3525 42.8095H98.5287C99.0237 42.8095 99.2711 42.5621 99.766 42.0672C99.766 41.8197 100.508 40.8299 101.746 39.0977C101.003 39.0977 100.756 39.0977 100.508 39.0977Z" fill="url(#paint21_linear_169_579)"/>
<path d="M112.139 38.3558C112.139 39.8405 112.386 41.5728 113.376 42.5626C114.119 43.305 115.109 43.7999 116.346 43.7999V43.0576C115.356 43.0576 114.614 42.81 114.119 42.0677C113.129 41.0778 112.881 39.3457 112.881 38.1084C112.634 38.1084 112.386 38.1083 112.139 38.3558Z" fill="url(#paint22_linear_169_579)"/>
<path d="M49.5322 36.1289L49.2847 36.3763V36.6237V36.8712C49.2847 36.8712 49.2847 37.1187 49.0373 37.6136C48.7898 38.1085 48.5424 39.0983 48.5424 40.0882H49.2847C49.2847 39.3458 49.5322 38.6034 49.7796 37.861C49.7796 37.3661 50.0271 37.1187 50.0271 36.8712V36.6237C50.0271 36.3762 50.0271 36.1289 49.5322 36.1289Z" fill="url(#paint23_linear_169_579)"/>
<path d="M121.048 50.2339C118.573 53.4509 116.346 55.9255 114.366 58.1526C109.17 64.3391 106.695 67.3085 106.695 69.2882C106.695 70.278 106.942 71.0204 107.437 71.7628L107.932 71.2678C107.685 70.7729 107.437 70.2781 107.437 69.5358C107.437 67.8035 109.912 64.8339 115.109 58.895C117.088 56.6678 119.315 54.1934 121.79 50.9764C125.254 46.7697 127.481 43.8001 129.214 41.3255L128.471 41.0781C126.492 43.3052 124.264 46.2746 121.048 50.2339Z" fill="url(#paint24_linear_169_579)"/>
<path d="M139.112 31.922C137.38 34.6441 136.142 36.8712 133.915 40.583C131.441 45.0373 128.719 49.9865 125.007 55.9254C116.346 70.278 111.892 72.2576 110.159 72.2576C109.665 72.2576 108.427 72.0101 107.932 71.0203L107.437 71.5153C108.18 72.5051 109.417 72.9999 110.159 72.9999C113.624 72.9999 119.068 67.3084 125.749 56.1728C129.461 50.2339 132.183 45.2847 134.658 40.8304C137.132 36.6237 138.37 34.1492 140.349 31.1797C139.854 31.6746 139.359 31.6746 139.112 31.922Z" fill="url(#paint25_linear_169_579)"/>
<path d="M131.441 34.644C131.193 34.644 131.193 34.644 130.451 35.3864C127.976 37.366 121.79 43.0577 116.346 43.0577V43.8C121.79 43.8 128.471 38.1085 130.946 36.1289C131.193 35.8814 131.441 35.6339 131.441 35.6339C131.193 36.1288 130.698 37.6136 128.224 41.3254L128.966 41.5728C132.183 36.8711 132.183 35.6339 132.183 35.6339C132.183 35.3865 132.183 35.139 131.936 35.139C131.936 34.6441 131.688 34.644 131.441 34.644Z" fill="url(#paint26_linear_169_579)"/>
<path d="M94.5695 22.519C94.5695 24.0038 93.8272 26.9733 92.3424 29.9428C92.5899 29.9428 92.8373 29.9428 93.0848 29.9428C94.3221 26.9733 95.0645 24.2512 95.0645 22.7664C95.0645 22.519 95.0644 22.2715 95.3119 22.2715C95.8068 22.2715 97.2915 22.519 98.0339 22.519H98.2814C98.7763 22.519 99.7661 23.0139 99.7661 24.4987C99.7661 25.4885 99.0237 27.2207 98.0339 28.9529C98.2814 28.9529 98.5289 28.9529 99.0238 28.7055C100.014 26.9733 100.508 25.2409 100.508 24.2511C100.508 22.5189 99.2712 21.7766 98.2814 21.5291H98.0339C97.0441 21.5291 95.8068 21.2817 95.3119 21.2817C95.0644 21.2817 94.5695 21.7767 94.5695 22.519Z" fill="url(#paint27_linear_169_579)"/>
<path d="M76.2577 8.90799C76.2577 14.3521 86.8984 18.3113 89.6204 18.3113C90.6102 18.3113 90.6102 17.8164 90.6102 17.3215C90.6102 16.5791 86.8984 5.69092 79.2272 5.69092C77.495 5.93838 76.2577 7.17578 76.2577 8.90799ZM77.0001 8.90799C77.0001 7.42324 77.9899 6.68081 79.2272 6.68081C86.156 6.68081 89.8679 16.8266 89.8679 17.569C89.8679 17.569 89.8679 17.8164 89.373 17.8164C87.1458 17.5689 77.0001 13.6097 77.0001 8.90799Z" fill="url(#paint28_linear_169_579)"/>
<path d="M70.0712 30.9321C70.5661 30.9321 70.8135 30.9321 71.3085 30.9321C71.8034 30.6847 72.2983 30.6847 72.7932 30.6847C73.2881 30.6847 73.2881 30.9321 73.2881 30.9321C73.2881 30.9321 73.2881 30.9322 73.2881 31.1797C73.5356 31.1797 73.783 31.1797 74.0305 31.1797V30.9321C74.0305 30.6847 74.0305 29.9424 72.7932 29.9424C71.8034 29.9424 71.061 30.1897 70.0712 30.9321Z" fill="url(#paint29_linear_169_579)"/>
<path d="M86.8984 20.7861C86.6509 21.0336 86.6509 21.2809 86.6509 21.7759C86.6509 22.0233 87.1458 22.5183 87.3933 22.7658C87.6407 23.0132 87.8882 23.2606 87.8882 23.5081C87.8882 23.7556 87.3933 24.7454 85.6611 25.7353C84.6712 26.2302 82.4441 28.7047 80.9594 30.9318C81.2068 30.9318 81.4543 30.9318 81.7017 30.9318C83.1865 28.9522 84.9187 26.7251 85.9085 26.2302C87.6407 25.2404 88.6306 24.2505 88.6306 23.5081C88.6306 23.0132 88.3831 22.7657 87.8882 22.2708C87.6407 22.0234 87.3933 21.7759 87.3933 21.5285V21.2811C87.3933 21.2811 87.8882 21.0336 88.3831 21.2811L89.1255 21.5285C90.3627 21.7759 90.8577 22.0234 90.8577 22.5184C90.8577 23.2607 89.8678 26.9725 88.1356 30.1895C88.3831 30.1895 88.6306 30.1895 88.878 30.1895C90.6102 26.9725 91.6 23.5082 91.6 22.5184C91.6 21.2811 90.6102 21.0336 89.3729 20.7861L88.6306 20.5386C88.3831 20.5386 88.1356 20.5386 87.8882 20.5386C87.3933 20.5386 87.1458 20.7861 86.8984 20.7861Z" fill="url(#paint30_linear_169_579)"/>
<path d="M48.5424 20.2918L47.3051 21.5291C46.0678 22.7664 44.5831 24.4986 42.6034 26.2308C42.8509 26.2308 43.0983 26.4782 43.3458 26.4782C44.8305 24.9935 46.3153 23.5088 47.8 22.024L49.0373 20.7867C51.2644 18.5596 54.2339 18.0646 54.7288 18.0646C55.4712 18.0646 55.9661 18.3121 55.9661 18.5596H56.7085C56.7085 17.8172 55.7187 17.3223 54.7288 17.3223C54.2339 17.5697 51.017 18.0647 48.5424 20.2918Z" fill="url(#paint31_linear_169_579)"/>
<path d="M55.9662 18.8071C55.9662 19.0546 55.4713 19.7968 54.7289 20.5392L54.4814 20.7868C53.739 21.5291 51.017 25.2409 49.0374 27.9629C49.2848 27.9629 49.5323 27.963 49.7797 28.2105C51.7594 25.4885 54.2339 22.0241 54.9763 21.2817L55.2238 21.0342C56.2136 19.7969 56.7086 19.302 56.7086 18.8071H55.9662Z" fill="url(#paint32_linear_169_579)"/>
<path d="M36.4169 17.5697C34.4373 19.3019 32.9525 21.2815 31.4678 23.0137C31.7152 23.0137 31.9627 23.2612 32.2102 23.2612C33.4474 21.529 35.1797 19.7967 36.9119 18.0645C39.6339 15.59 42.3559 13.6104 45.0779 12.1256L44.8305 11.3833C42.1085 12.868 39.139 14.8477 36.4169 17.5697Z" fill="url(#paint33_linear_169_579)"/>
<path d="M52.0068 28.4581C52.2543 28.4581 52.5018 28.4582 52.7492 28.7057C62.1526 19.5498 66.1119 17.8175 69.5763 17.8175C71.0611 17.8175 72.0509 18.3123 72.7933 19.3022C73.2882 20.0445 73.2882 20.787 73.2882 22.0243C73.2882 23.2616 73.0408 24.2514 72.7933 24.7463C72.7933 24.9937 72.5458 25.2412 72.5458 25.4886C72.5458 25.7361 72.7933 26.231 73.0407 26.4785L73.5356 25.9836L73.2882 25.7362C73.2882 25.7362 73.2882 25.4887 73.5356 25.2412C73.7831 24.4988 74.0306 23.509 74.0306 22.2717C74.0306 21.2819 73.7831 20.2921 73.5356 19.5497C72.7933 18.065 71.556 17.3225 69.5763 17.3225C66.1119 17.0751 61.9051 19.0547 52.0068 28.4581Z" fill="url(#paint34_linear_169_579)"/>
<path d="M81.9491 19.3021C81.4542 20.2919 77.4949 25.2412 74.0305 25.7361H73.783L73.2881 26.231C73.5355 26.4785 73.783 26.4784 74.0305 26.4784C78.2372 25.736 82.6915 19.7971 82.6915 19.0547L81.9491 19.3021Z" fill="url(#paint35_linear_169_579)"/>
<path d="M110.159 20.7861C109.665 21.281 108.922 22.0234 108.675 22.0234C108.427 21.7759 108.18 21.0335 107.932 20.5385C107.685 20.0436 107.437 19.5488 107.19 19.0538C106.2 17.8166 104.963 17.3216 101.251 17.3216C100.261 17.3216 99.5187 17.3216 98.7764 17.3216V18.064C99.5187 18.064 100.261 18.064 101.003 18.064C104.468 18.064 105.705 18.3115 106.448 19.5488C106.695 19.7963 106.942 20.2912 107.19 20.7861C107.685 21.7759 107.932 22.5183 108.675 22.5183C108.922 22.5183 109.417 22.0233 110.654 21.0335C111.892 19.7962 113.871 17.8166 115.109 17.8166C115.851 17.8166 115.851 18.064 115.851 18.5589C115.851 18.8064 115.603 19.3013 115.356 19.7962C114.861 20.786 114.119 22.0233 114.119 24.2504C114.366 24.2504 114.614 24.003 114.861 24.003C115.109 22.2708 115.603 21.0336 116.098 20.0437C116.346 19.5488 116.593 19.0538 116.593 18.5589C116.593 18.064 116.593 17.8166 116.346 17.5692C116.098 17.3217 115.604 17.0742 115.109 17.0742C113.624 17.3217 111.644 19.3013 110.159 20.7861Z" fill="url(#paint36_linear_169_579)"/>
<path d="M93.5797 17.3216C94.0746 18.3114 94.817 18.3115 96.5492 18.3115H98.7763V17.5692H96.7967C94.817 17.5692 94.817 17.569 94.5695 16.8267L93.5797 17.3216Z" fill="url(#paint37_linear_169_579)"/>
<path d="M68.8339 22.0234C67.5966 22.0234 63.6373 24.9929 60.6678 28.2099C60.4204 28.4573 60.4204 28.4574 60.1729 28.7048C59.9255 28.9523 59.4306 29.4472 59.1831 29.9421C59.4306 29.9421 59.678 29.9421 59.9254 29.9421C60.1729 29.6947 60.4204 29.4471 60.6678 29.1996C60.9153 28.9522 61.1628 28.7047 61.4102 28.4573C64.3797 25.2403 67.8441 22.7658 68.5865 22.7658C69.0814 22.7658 69.3288 22.7657 69.3288 23.0132C69.3288 23.7556 68.339 24.498 67.3492 25.2404L66.6068 25.7353C65.3695 26.7251 64.8746 26.9725 64.8746 27.9623V28.2099C64.8746 28.4573 65.1221 28.7048 65.3695 28.9522C65.617 29.1997 65.617 29.1997 65.617 29.4472H66.3594C66.3594 28.9523 65.8645 28.7047 65.8645 28.4573C65.617 28.2098 65.617 28.2099 65.617 28.2099C65.617 27.715 65.617 27.4675 67.1017 26.4776L67.8441 25.9827C69.0814 25.2403 70.3187 24.2505 70.3187 23.0132C70.3187 22.5183 69.8238 22.0234 68.8339 22.0234Z" fill="url(#paint38_linear_169_579)"/>
<path d="M65.6169 29.4473C65.6169 29.6947 65.6169 29.6947 65.6169 29.4473C65.8644 29.6947 65.8644 29.6947 65.6169 29.4473C65.6169 29.9422 65.617 30.1895 65.3695 30.437C65.617 30.437 65.8644 30.437 66.1118 30.437C66.3593 29.9421 66.3593 29.6947 66.3593 29.4473H65.6169Z" fill="url(#paint39_linear_169_579)"/>
<path d="M70.5661 4.94982C70.3186 5.69219 70.0712 6.43462 70.0712 7.177C70.0712 10.1465 71.5559 15.8379 81.7017 19.3023H81.9491H82.6915C82.6915 18.8074 82.1966 18.8075 82.1966 18.8075C72.5457 15.5906 71.061 10.1464 71.061 7.42439C71.061 6.68202 71.3085 5.93968 71.3085 5.44476C72.2983 3.21765 75.0203 2.97019 76.2576 2.97019C86.8983 2.97019 92.3424 14.1058 93.8271 17.5702V17.8176L94.5695 17.5702C93.0847 14.1058 87.6407 2.47524 76.5051 2.47524C73.2881 1.98033 71.3084 2.97016 70.5661 4.94982Z" fill="url(#paint40_linear_169_579)"/>
<path d="M66.1119 0.742343C66.3594 0.742343 66.6068 0.742343 66.8543 0.742343C65.3695 3.21692 63.1424 7.42382 62.895 7.67128H62.6475C60.6678 7.42382 58.9356 7.17633 57.6984 7.17633C54.4814 7.17633 49.7797 8.41356 45.078 11.1356L45.3255 11.8779C50.0272 9.1559 54.4814 7.91867 57.6984 7.91867C58.9356 7.91867 60.6678 8.16616 62.6475 8.41362H62.895C63.1424 8.41362 63.1424 8.41362 63.3899 8.41362C63.6373 8.41362 63.6373 8.16607 63.6373 8.16607C63.8848 7.91861 67.5967 1.23735 67.5967 0.989891C67.5967 0.742433 67.5967 0.742403 67.5967 0.494945C67.5967 0.247488 67.3492 0.247548 67.3492 0.247548C67.1017 0.247548 66.6068 0 66.3594 0V0.742343H66.1119Z" fill="url(#paint41_linear_169_579)"/>
<path d="M33.6949 12.8678C46.8102 3.21698 59.4305 0.742343 64.8746 0.742343C65.3695 0.742343 65.8644 0.742343 66.1119 0.742343V0C65.6169 0 65.3695 0 64.8746 0C59.4305 0 46.5627 2.47458 33.2 12.3729C29.4882 15.0949 26.5186 17.817 24.0441 20.2916C24.2915 20.2916 24.539 20.539 24.7864 20.539C27.261 18.0644 30.2305 15.5899 33.6949 12.8678Z" fill="#90C643"/>
<defs>
<radialGradient id="paint0_radial_169_579" cx="0" cy="0" r="1" gradientUnits="userSpaceOnUse" gradientTransform="translate(77.0578 38.8389) scale(110.82 110.82)">
<stop stop-color="#C11566"/>
<stop offset="0.9944" stop-color="#AF0A55"/>
<stop offset="1" stop-color="#AF0A55"/>
</radialGradient>
<radialGradient id="paint1_radial_169_579" cx="0" cy="0" r="1" gradientUnits="userSpaceOnUse" gradientTransform="translate(88.0878 24.2863) scale(47.0714 47.0715)">
<stop stop-color="#63BBEB"/>
<stop offset="1" stop-color="#3777C5"/>
</radialGradient>
<radialGradient id="paint2_radial_169_579" cx="0" cy="0" r="1" gradientUnits="userSpaceOnUse" gradientTransform="translate(91.5951 28.3811) scale(59.7166 59.7167)">
<stop stop-color="#90C643"/>
<stop offset="0.8309" stop-color="#5FB233"/>
<stop offset="1" stop-color="#5FB233"/>
</radialGradient>
<linearGradient id="paint3_linear_169_579" x1="105.945" y1="35.6462" x2="110.129" y2="39.1572" gradientUnits="userSpaceOnUse">
<stop stop-color="#4980CA"/>
<stop offset="1" stop-color="#63BBEB"/>
</linearGradient>
<linearGradient id="paint4_linear_169_579" x1="86.7142" y1="34.4039" x2="81.7576" y2="31.4567" gradientUnits="userSpaceOnUse">
<stop stop-color="#82C7EF"/>
<stop offset="1" stop-color="#3777C5"/>
</linearGradient>
<linearGradient id="paint5_linear_169_579" x1="120.332" y1="26.9138" x2="134.818" y2="26.9138" gradientUnits="userSpaceOnUse">
<stop stop-color="#2F67AB"/>
<stop offset="1" stop-color="#2D61A2"/>
</linearGradient>
<linearGradient id="paint6_linear_169_579" x1="119.403" y1="26.0366" x2="115.421" y2="26.5471" gradientUnits="userSpaceOnUse">
<stop stop-color="#63BBEB"/>
<stop offset="1" stop-color="#3777C5"/>
</linearGradient>
<linearGradient id="paint7_linear_169_579" x1="130.824" y1="21.3327" x2="133.274" y2="21.5368" gradientUnits="userSpaceOnUse">
<stop stop-color="#63BBEB"/>
<stop offset="1" stop-color="#2D61A2"/>
</linearGradient>
<linearGradient id="paint8_linear_169_579" x1="126.987" y1="26.37" x2="125.748" y2="24.821" gradientUnits="userSpaceOnUse">
<stop stop-color="#5AAAD7"/>
<stop offset="1" stop-color="#2F67AB"/>
</linearGradient>
<linearGradient id="paint9_linear_169_579" x1="148.926" y1="12.5739" x2="150.764" y2="13.3396" gradientUnits="userSpaceOnUse">
<stop stop-color="#63BBEB"/>
<stop offset="1" stop-color="#2B5C99"/>
</linearGradient>
<linearGradient id="paint10_linear_169_579" x1="145.842" y1="20.9347" x2="139.87" y2="24.3039" gradientUnits="userSpaceOnUse">
<stop stop-color="#63BBEB"/>
<stop offset="1" stop-color="#2F67AB"/>
</linearGradient>
<linearGradient id="paint11_linear_169_579" x1="141.963" y1="21.9644" x2="142.622" y2="22.9524" gradientUnits="userSpaceOnUse">
<stop stop-color="#63BBEB"/>
<stop offset="1" stop-color="#2B5C99"/>
</linearGradient>
<linearGradient id="paint12_linear_169_579" x1="56.6804" y1="35.3455" x2="62.4014" y2="35.3455" gradientUnits="userSpaceOnUse">
<stop stop-color="#AF0A55"/>
<stop offset="1" stop-color="#DB4990"/>
</linearGradient>
<linearGradient id="paint13_linear_169_579" x1="46.3451" y1="31.4907" x2="49.5436" y2="31.4907" gradientUnits="userSpaceOnUse">
<stop stop-color="#A2094D"/>
<stop offset="1" stop-color="#D73585"/>
</linearGradient>
<linearGradient id="paint14_linear_169_579" x1="14.9371" y1="59.3896" x2="16.3146" y2="61.3793" gradientUnits="userSpaceOnUse">
<stop stop-color="#AF0A55"/>
<stop offset="1" stop-color="#DB4990"/>
</linearGradient>
<linearGradient id="paint15_linear_169_579" x1="28.7022" y1="29.0732" x2="34.3149" y2="33.3787" gradientUnits="userSpaceOnUse">
<stop stop-color="#A2094D"/>
<stop offset="1" stop-color="#DB4990"/>
</linearGradient>
<linearGradient id="paint16_linear_169_579" x1="24.7949" y1="50.5025" x2="30.2059" y2="47.2354" gradientUnits="userSpaceOnUse">
<stop stop-color="#DB4990"/>
<stop offset="1" stop-color="#AF0A55"/>
</linearGradient>
<linearGradient id="paint17_linear_169_579" x1="23.5442" y1="36.0361" x2="24.8712" y2="37.8734" gradientUnits="userSpaceOnUse">
<stop stop-color="#DB4990"/>
<stop offset="1" stop-color="#AF0A55"/>
</linearGradient>
<linearGradient id="paint18_linear_169_579" x1="53.8643" y1="37.5768" x2="51.4908" y2="36.5814" gradientUnits="userSpaceOnUse">
<stop stop-color="#A2094D"/>
<stop offset="1" stop-color="#DF5E9C"/>
</linearGradient>
<linearGradient id="paint19_linear_169_579" x1="14.1674" y1="47.281" x2="16.3887" y2="48.5065" gradientUnits="userSpaceOnUse">
<stop stop-color="#DB4990"/>
<stop offset="1" stop-color="#A2094D"/>
</linearGradient>
<linearGradient id="paint20_linear_169_579" x1="78.512" y1="40.2238" x2="74.3009" y2="39.9175" gradientUnits="userSpaceOnUse">
<stop stop-color="#A2094D"/>
<stop offset="1" stop-color="#DF5E9C"/>
</linearGradient>
<linearGradient id="paint21_linear_169_579" x1="96.7097" y1="41.6696" x2="94.1729" y2="38.7485" gradientUnits="userSpaceOnUse">
<stop stop-color="#A2094D"/>
<stop offset="1" stop-color="#DB4990"/>
</linearGradient>
<linearGradient id="paint22_linear_169_579" x1="116.105" y1="43.1595" x2="114.957" y2="42.0109" gradientUnits="userSpaceOnUse">
<stop stop-color="#C01F6E"/>
<stop offset="1" stop-color="#D63384"/>
</linearGradient>
<linearGradient id="paint23_linear_169_579" x1="49.5183" y1="39.2559" x2="49.0591" y2="36.6786" gradientUnits="userSpaceOnUse">
<stop stop-color="#DF5E9C"/>
<stop offset="1" stop-color="#A2094D"/>
</linearGradient>
<linearGradient id="paint24_linear_169_579" x1="119.005" y1="54.7878" x2="127.504" y2="44.2647" gradientUnits="userSpaceOnUse">
<stop stop-color="#DF5E9C"/>
<stop offset="1" stop-color="#A2094D"/>
</linearGradient>
<linearGradient id="paint25_linear_169_579" x1="116.037" y1="49.2523" x2="117.976" y2="49.925" gradientUnits="userSpaceOnUse">
<stop stop-color="#DF5E9C"/>
<stop offset="1" stop-color="#A2094D"/>
</linearGradient>
<linearGradient id="paint26_linear_169_579" x1="116.303" y1="39.162" x2="132.174" y2="39.162" gradientUnits="userSpaceOnUse">
<stop stop-color="#C01F6E"/>
<stop offset="1" stop-color="#A2094D"/>
</linearGradient>
<linearGradient id="paint27_linear_169_579" x1="97.352" y1="26.8263" x2="98.4241" y2="27.6687" gradientUnits="userSpaceOnUse">
<stop stop-color="#5FB233"/>
<stop offset="1" stop-color="#90C643"/>
</linearGradient>
<linearGradient id="paint28_linear_169_579" x1="84.7817" y1="11.8058" x2="86.8492" y2="11.0401" gradientUnits="userSpaceOnUse">
<stop stop-color="#5FB233"/>
<stop offset="1" stop-color="#90C643"/>
</linearGradient>
<linearGradient id="paint29_linear_169_579" x1="72.0831" y1="30.3515" x2="73.0365" y2="30.8632" gradientUnits="userSpaceOnUse">
<stop stop-color="#5FB233"/>
<stop offset="1" stop-color="#90C643"/>
</linearGradient>
<linearGradient id="paint30_linear_169_579" x1="87.8101" y1="27.0809" x2="89.0355" y2="27.6936" gradientUnits="userSpaceOnUse">
<stop stop-color="#5FB233"/>
<stop offset="1" stop-color="#90C643"/>
</linearGradient>
<linearGradient id="paint31_linear_169_579" x1="53.9457" y1="23.4195" x2="51.3809" y2="22.7783" gradientUnits="userSpaceOnUse">
<stop stop-color="#5FB233"/>
<stop offset="1" stop-color="#90C643"/>
</linearGradient>
<linearGradient id="paint32_linear_169_579" x1="49.0928" y1="23.5831" x2="56.7236" y2="23.5831" gradientUnits="userSpaceOnUse">
<stop stop-color="#529B2B"/>
<stop offset="0.8297" stop-color="#5FB233"/>
<stop offset="1" stop-color="#5FB233"/>
</linearGradient>
<linearGradient id="paint33_linear_169_579" x1="31.4585" y1="17.4191" x2="45.1501" y2="17.4191" gradientUnits="userSpaceOnUse">
<stop stop-color="#529B2B"/>
<stop offset="0.039566" stop-color="#529B2B"/>
<stop offset="0.8309" stop-color="#5AAB30"/>
<stop offset="1" stop-color="#5AAB30"/>
</linearGradient>
<linearGradient id="paint34_linear_169_579" x1="51.9721" y1="22.7177" x2="74.2114" y2="22.7177" gradientUnits="userSpaceOnUse">
<stop stop-color="#90C643"/>
<stop offset="1" stop-color="#56A32E"/>
</linearGradient>
<linearGradient id="paint35_linear_169_579" x1="75.5053" y1="25.5725" x2="80.6976" y2="20.9872" gradientUnits="userSpaceOnUse">
<stop stop-color="#56A32E"/>
<stop offset="0.5" stop-color="#83B43C"/>
<stop offset="1" stop-color="#5AAB30"/>
</linearGradient>
<linearGradient id="paint36_linear_169_579" x1="115.39" y1="21.1789" x2="103.814" y2="17.6503" gradientUnits="userSpaceOnUse">
<stop stop-color="#56A32E"/>
<stop offset="0.2986" stop-color="#90C643"/>
<stop offset="0.6648" stop-color="#59A72F"/>
<stop offset="1" stop-color="#90C643"/>
</linearGradient>
<linearGradient id="paint37_linear_169_579" x1="93.6252" y1="17.7909" x2="98.6629" y2="17.7909" gradientUnits="userSpaceOnUse">
<stop stop-color="#5FB233"/>
<stop offset="1" stop-color="#90C643"/>
</linearGradient>
<linearGradient id="paint38_linear_169_579" x1="64.5516" y1="25.7173" x2="66.8876" y2="28.8094" gradientUnits="userSpaceOnUse">
<stop stop-color="#56A32E"/>
<stop offset="0.4945" stop-color="#90C643"/>
<stop offset="1" stop-color="#90C643"/>
</linearGradient>
<linearGradient id="paint39_linear_169_579" x1="63.2647" y1="26.7031" x2="65.6" y2="29.7945" gradientUnits="userSpaceOnUse">
<stop stop-color="#5FB233"/>
<stop offset="1" stop-color="#90C643"/>
</linearGradient>
<linearGradient id="paint40_linear_169_579" x1="75.0876" y1="4.281" x2="73.5194" y2="2.41206" gradientUnits="userSpaceOnUse">
<stop stop-color="#5FB233"/>
<stop offset="0.8132" stop-color="#9BCB52"/>
<stop offset="1" stop-color="#9BCB52"/>
</linearGradient>
<linearGradient id="paint41_linear_169_579" x1="56.5504" y1="6.54584" x2="56.0648" y2="5.417" gradientUnits="userSpaceOnUse">
<stop stop-color="#5AAB30"/>
<stop offset="1" stop-color="#90C643"/>
</linearGradient>
</defs>
</svg>
