<svg width="86" height="91" viewBox="0 0 86 91" fill="none" xmlns="http://www.w3.org/2000/svg">
<path d="M13.6915 51.0619C23.3184 34.1614 32.9453 17.2609 42.5721 0.360352C40.8607 11.9126 38.9353 23.4649 37.2239 35.0171C37.2239 35.231 37.01 35.231 37.01 35.231C24.602 48.4947 12.408 61.5444 0 74.8081C4.49254 66.8927 8.98508 58.9773 13.6915 51.0619Z" fill="#062F62"/>
<path d="M43.4279 0.360352C57.5473 25.1763 71.8806 49.9922 86 74.8081C80.4378 68.8181 74.6617 62.828 69.0995 56.624C62.4677 49.3504 55.6219 42.2907 48.99 35.0171C48.99 35.0171 48.99 34.8031 48.99 34.5892C47.0647 23.4648 45.3532 11.9126 43.4279 0.360352Z" fill="#062F62"/>
<path d="M22.8905 53.2016C23.3184 52.7738 23.5323 52.3458 23.9602 51.918C26.3134 51.918 28.6666 51.918 31.2338 51.918C27.1691 59.6195 22.8905 67.1071 18.8258 74.8085C13.9054 74.8085 8.77111 74.8085 3.85071 74.8085C10.0547 67.7488 16.4726 60.4753 22.8905 53.2016Z" fill="#062F62"/>
<path d="M33.587 52.1318C37.8656 52.1318 41.9303 52.1318 46.2089 52.1318C46.6368 54.699 46.8507 57.2662 47.2786 59.6194C45.995 59.6194 44.4975 59.6194 43.2139 59.6194C43.2139 64.7537 43.2139 69.6741 43.2139 74.8084C38.7213 74.8084 34.4427 74.8084 29.9502 74.8084C30.592 72.6691 31.2338 70.5299 31.8756 68.1766C32.7313 65.3955 33.587 62.4005 34.4427 59.6194C32.9452 59.6194 31.6616 59.6194 30.1641 59.6194C31.2338 57.0522 32.3034 54.699 33.587 52.1318Z" fill="#062F62"/>
<path d="M50.2737 52.132C50.7015 51.918 51.1294 52.1319 51.7712 51.918C55.1941 51.918 58.8309 51.918 62.2538 51.918C64.3931 54.2712 66.3184 56.4105 68.4577 58.7638C65.6766 58.7638 62.6816 58.7638 59.9005 58.7638C59.2587 58.7638 58.8309 59.4055 59.2587 60.0473C60.1145 61.7587 60.9702 63.2564 61.8259 64.9678C62.2538 65.6096 62.8955 66.2513 63.7513 66.2513C67.1742 66.2513 70.3831 66.2513 73.806 66.2513C74.2339 66.2513 74.4478 66.2513 74.8757 66.2513C77.4428 69.0324 80.01 72.0275 82.5771 74.8085C74.0199 74.8085 65.6766 74.8085 57.1194 74.8085C56.6916 74.8085 56.2637 74.8085 56.0498 74.8085C55.1941 74.5946 54.3383 73.9528 53.9105 73.311C53.6965 72.8831 53.6965 72.4553 53.4826 72.0275C51.9851 66.2514 50.4876 60.2613 48.9901 54.4852C48.7761 53.4155 49.4179 52.5598 50.2737 52.132Z" fill="#062F62"/>
<path d="M22.2488 81.4398C23.1045 80.798 23.9602 80.3701 25.0299 80.3701C25.6717 80.3701 26.3135 80.5842 26.7413 81.012C26.9552 81.2259 27.1692 81.2259 27.3831 81.2259C27.597 81.012 27.597 80.584 27.811 80.3701C27.811 80.3701 28.0249 80.3702 28.0249 80.5841C28.0249 81.6538 28.0249 82.7234 28.0249 83.7931C28.0249 84.007 28.0249 84.007 28.0249 84.221C28.0249 84.221 27.811 84.2209 27.811 84.007C27.597 83.5791 27.597 82.9373 27.1692 82.5094C26.9552 82.0816 26.7413 81.6538 26.3134 81.2259C25.8856 80.798 25.4577 80.584 24.8159 80.3701C24.1741 80.3701 23.3184 80.5841 22.8906 81.2259C22.6766 81.6538 22.4627 82.0816 22.2488 82.7234C22.0348 83.5792 22.0348 84.4348 22.0348 85.0766C22.0348 86.1463 22.0348 87.216 22.4627 88.0717C22.6766 88.4996 23.1045 89.1413 23.5324 89.3552C24.1741 89.5692 24.8159 89.5692 25.2438 89.5692C25.8856 89.3553 26.5274 88.9274 26.9552 88.2856C27.3831 87.6438 27.3831 87.0021 27.3831 86.3603C27.597 86.3603 27.597 86.3603 27.811 86.3603V86.5742C27.811 87.002 27.597 87.6438 27.597 88.0717C27.3831 88.9274 26.5274 89.5692 25.6717 89.7831C25.0299 89.997 24.3881 89.997 23.7463 89.7831C22.8906 89.5692 22.2488 89.1413 21.607 88.7135C21.393 88.4995 21.1791 88.2856 21.1791 88.0717C20.9652 87.6438 20.7513 87.2159 20.5373 86.788C20.1095 85.7184 20.1095 84.4349 20.5373 83.1513C21.1791 82.7235 21.607 81.8676 22.2488 81.4398Z" fill="#062F62"/>
<path d="M80.2239 80.3701C80.4378 80.3701 80.6517 80.3701 80.8657 80.3701C81.0796 80.3701 81.0796 80.5841 81.0796 80.5841C81.0796 83.1513 81.0796 85.9324 81.0796 88.4996C81.0796 88.7135 81.0796 89.1413 81.2935 89.3552C81.7214 89.5692 81.9353 89.5692 82.3632 89.5692V89.7831C81.5075 89.7831 80.6517 89.7831 80.0099 89.997C79.796 89.997 79.5821 89.997 79.5821 89.7831C79.5821 89.5692 79.5821 89.1413 79.5821 88.9273C79.3681 89.1413 79.1542 89.3553 78.9403 89.5692C78.2985 89.9971 77.6567 90.2109 76.801 89.997C75.9453 89.7831 75.3035 89.3553 75.0895 88.4996C74.6617 87.6439 74.4478 86.5742 74.6617 85.5045C74.8756 84.6488 75.5174 84.007 76.3731 83.3652C77.0149 83.1513 77.6567 82.9374 78.2985 83.1513C78.7264 83.3652 79.1542 83.7931 79.5821 84.221C79.5821 84.007 79.5821 84.007 79.5821 83.7931C79.5821 82.9374 79.5821 82.2955 79.5821 81.4398C79.5821 81.2258 79.3682 81.0119 79.1542 80.798C78.7264 80.5841 78.5124 80.7981 78.0846 80.5841V80.3701C78.7264 80.584 79.5821 80.584 80.2239 80.3701ZM77.4428 83.5791C77.0149 83.793 76.801 84.007 76.587 84.4348C76.3731 85.0766 76.1592 85.9324 76.1592 86.5742C76.1592 87.002 76.1592 87.6438 76.3731 88.0717C76.3731 88.4996 76.5871 88.9274 76.801 89.1413C77.0149 89.5692 77.6567 89.5692 78.0846 89.5692C78.2985 89.5692 78.5124 89.3553 78.7264 89.1413C79.1542 88.7135 79.1542 88.0717 79.3681 87.4299C79.3681 86.5742 79.3682 85.7185 79.1542 84.8627C78.9403 84.4349 78.7264 84.007 78.2985 83.7931C78.0846 83.3652 77.8706 83.3651 77.4428 83.5791Z" fill="#062F62"/>
<path d="M43.4279 80.5838C43.8558 80.3698 44.4976 80.7977 44.4976 81.2255C44.4976 81.6534 44.0697 82.2952 43.6418 82.2952C43.214 82.2952 42.7861 81.8673 42.7861 81.4394C42.7861 81.0115 43.0001 80.5838 43.4279 80.5838Z" fill="#062F62"/>
<path d="M61.184 80.584C61.8258 80.3701 62.4676 81.0118 62.2537 81.4396C62.2537 82.0814 61.6119 82.5093 61.184 82.2954C60.7562 82.2954 60.3283 81.6536 60.5423 81.2258C60.5423 81.0118 60.7562 80.584 61.184 80.584Z" fill="#062F62"/>
<path d="M65.0349 80.7981C65.0349 80.5842 65.2488 80.5842 65.4627 80.7981C65.4627 81.6539 65.4627 82.2957 65.4627 83.1515C65.4627 83.3654 65.4627 83.3653 65.6767 83.3653C66.3185 83.3653 66.7463 83.3653 67.3881 83.3653C67.602 83.3653 67.602 83.5793 67.3881 83.7932C66.7463 83.7932 66.3185 83.7932 65.6767 83.7932C65.4627 83.7932 65.4627 84.0071 65.4627 84.0071C65.4627 85.7185 65.4627 87.216 65.4627 88.9275C65.4627 89.1414 65.4627 89.5693 65.8906 89.7832C66.3185 89.9972 66.7463 89.7833 67.1742 89.5694C67.3881 89.1415 67.602 88.7136 67.602 88.2857V88.0718H67.816C67.816 88.0718 67.816 88.2858 67.816 88.4997C67.816 89.1415 67.602 89.7833 67.1742 90.2111C66.9602 90.4251 66.5324 90.639 66.1045 90.639C65.6767 90.639 65.0349 90.6389 64.607 90.425C64.1791 90.2111 63.9652 89.7832 63.9652 89.3554C63.9652 87.8578 63.9652 86.3603 63.9652 84.6489C63.9652 84.4349 63.9652 84.435 63.7513 84.2211C63.5374 84.2211 63.3234 84.2211 63.3234 84.2211C63.1095 84.2211 62.8956 84.2211 62.6816 84.2211C62.6816 84.0072 62.6816 84.0071 62.8956 84.0071C63.7513 84.0071 64.3931 83.5792 64.8209 82.9374C64.8209 81.6539 65.0349 81.226 65.0349 80.7981Z" fill="#062F62"/>
<path d="M10.4825 80.7983C13.2636 80.7983 15.8308 80.7983 18.6119 80.7983C18.6119 82.0819 18.6119 83.1516 18.6119 84.4352C18.6119 84.6491 18.398 84.6491 18.398 84.4352C18.184 83.5795 17.9701 82.7237 17.5422 81.868C17.3283 81.4401 17.1144 81.2263 16.6865 81.0123C16.4726 81.0123 16.0447 81.0123 15.8308 81.0123C15.6169 81.0123 15.6169 81.2262 15.6169 81.4401C15.6169 84.0073 15.6169 86.3605 15.6169 88.9277C15.6169 89.1416 15.6169 89.3556 15.8308 89.3556C16.2587 89.5695 16.9005 89.5696 17.3283 89.5696C17.3283 89.7835 17.3283 89.7834 17.1144 89.7834C15.4029 89.7834 13.9054 89.7834 12.194 89.7834H11.9801V89.5696C12.4079 89.5696 13.0497 89.5695 13.4776 89.1417C13.6915 89.1417 13.6915 88.9277 13.6915 88.7138C13.6915 86.1466 13.6915 83.5795 13.6915 81.0123C13.6915 80.7984 13.6915 80.7983 13.4776 80.7983C13.0497 80.7983 12.6218 80.7984 12.194 81.0123C11.7661 81.2263 11.5522 81.868 11.3383 82.2959C11.1243 82.9377 10.9104 83.5795 10.6965 84.2213C10.6965 84.4352 10.4825 84.2213 10.4825 84.2213C10.4825 83.1517 10.4825 81.868 10.4825 80.7983Z" fill="#062F62"/>
<path d="M3.63684 81.0123C3.63684 81.0123 3.63684 80.7983 3.85077 80.7983C5.34828 80.7983 6.84579 80.7983 8.34331 80.7983C8.55724 80.7983 8.55724 81.0123 8.55724 81.0123C8.12938 81.0123 7.70152 81.0123 7.27365 81.2262C7.05972 81.2262 7.05973 81.4402 7.05973 81.6541C7.05973 84.0073 7.05973 86.5744 7.05973 88.9277C7.05973 89.1416 7.27366 89.3556 7.48759 89.3556C7.91545 89.5695 8.12938 89.5696 8.55724 89.5696V89.7834H8.34331C6.84579 89.7834 5.56221 89.7834 4.0647 89.7834C3.85077 89.7834 3.85077 89.7835 3.85077 89.5696C3.85077 89.5696 4.0647 89.5696 4.27863 89.5696C4.49256 89.5696 4.92042 89.5695 5.13435 89.3556C5.34828 89.3556 5.34829 89.1416 5.34829 88.9277C5.34829 86.5744 5.34829 84.0073 5.34829 81.6541C5.34829 81.4402 5.13435 81.2262 4.92042 81.2262C4.49256 81.0123 4.0647 81.0123 3.63684 81.0123Z" fill="#062F62"/>
<path d="M33.3731 80.7983C34.8706 80.7983 36.5821 80.7983 38.0796 80.7983C38.2935 80.7983 38.2935 81.0123 38.0796 81.0123C37.6517 81.0123 37.2239 81.0123 36.796 81.2262C36.5821 81.2262 36.3681 81.6541 36.3681 81.868C36.3681 84.2212 36.3681 86.5744 36.3681 88.9277C36.3681 89.1416 36.5821 89.3556 36.796 89.5696C37.2239 89.7835 37.6517 89.7835 38.0796 89.5696C38.7214 89.5696 39.3632 89.3555 39.791 88.9277C40.4328 88.2859 40.6467 87.4302 40.8607 86.5745C40.8607 86.3606 40.8607 86.3605 41.0746 86.1466C41.2885 86.1466 41.2885 86.3606 41.2885 86.5745C41.2885 87.6441 41.2885 88.7138 41.2885 89.7834C41.2885 89.7834 41.2885 89.9973 41.0746 89.9973C38.7214 89.9973 36.1542 89.9973 33.801 89.9973C33.587 89.9973 33.3731 89.9973 33.3731 89.9973C33.1592 89.9973 33.3731 89.7834 33.3731 89.7834C33.801 89.7834 34.2288 89.7835 34.4428 89.5696C34.6567 89.5696 34.8706 89.3556 34.6567 89.1417C34.6567 86.7884 34.6567 84.4352 34.6567 81.868C34.6567 81.6541 34.4428 81.4401 34.2288 81.4401C33.801 81.2262 33.587 81.2262 33.1592 81.2262C33.1592 81.0123 33.1592 80.7983 33.3731 80.7983Z" fill="#062F62"/>
<path d="M50.0597 83.5793C50.4876 83.3653 50.7015 83.1515 51.1294 83.1515C51.5572 83.1515 52.199 83.1514 52.6269 83.5793C53.0547 83.7932 53.2687 84.2211 53.2687 84.6489C53.2687 84.6489 53.2687 84.8629 53.4826 84.8629C53.6965 84.649 53.6965 84.4351 53.9105 84.2212C54.1244 83.7933 54.5523 83.5793 54.9801 83.3654C55.408 83.1515 56.0498 83.1515 56.6916 83.1515C57.3334 83.3654 57.9751 84.0072 58.1891 84.8629C58.1891 85.2908 58.1891 85.7186 58.1891 86.1465C58.1891 87.0022 58.1891 88.0718 58.1891 88.9275C58.1891 89.1415 58.1891 89.3554 58.403 89.3554C58.6169 89.5693 59.0448 89.5694 59.4727 89.5694V89.7833C58.8309 89.7833 57.9751 89.7833 57.3334 89.7833C56.6916 89.7833 56.0498 89.7833 55.408 89.7833V89.5694C55.6219 89.5694 56.0498 89.5693 56.2637 89.3554C56.4776 89.3554 56.4776 89.1415 56.4776 88.9275C56.4776 87.6439 56.4776 86.3604 56.4776 85.0768C56.4776 84.6489 56.4776 84.435 56.2637 84.0072C56.0498 83.7932 55.8358 83.5793 55.6219 83.5793C55.194 83.5793 54.7662 83.7932 54.5523 84.0072C54.1244 84.435 53.9105 85.0769 53.6965 85.9326C53.6965 86.3604 53.6965 86.7882 53.6965 87.2161C53.6965 87.8579 53.6965 88.2857 53.6965 88.9275C53.6965 89.1415 53.9105 89.3554 53.9105 89.3554C54.1244 89.5693 54.5523 89.5694 54.7662 89.5694V89.7833H54.5523C53.2687 89.7833 52.199 89.7833 50.9154 89.7833C50.7015 89.7833 50.7015 89.5694 50.7015 89.5694C51.1294 89.3555 51.3433 89.5693 51.7712 89.3554C51.9851 89.1415 51.9851 88.9276 51.9851 88.7136C51.9851 87.4301 51.9851 86.1465 51.9851 84.8629C51.9851 84.4351 51.9851 84.0072 51.5572 83.7933C51.3433 83.5793 50.9154 83.5793 50.7015 83.5793C50.2736 83.7932 50.0597 84.0072 49.8458 84.2212C49.6319 84.649 49.4179 85.0768 49.204 85.5047C48.9901 86.3604 48.9901 87.4301 48.9901 88.4998C48.9901 88.7137 48.9901 89.1415 49.204 89.1415C49.4179 89.3555 49.8458 89.3554 50.2737 89.3554C50.2737 89.3554 50.2737 89.3555 50.2737 89.5694C49.6319 89.5694 49.204 89.5694 48.5622 89.5694C47.7065 89.5694 46.8508 89.5694 45.995 89.5694C45.7811 89.5694 45.7811 89.3554 45.995 89.3554C46.4229 89.3554 46.6368 89.3555 47.0647 89.1415C47.2786 89.1415 47.4925 88.9276 47.4925 88.7136C47.4925 87.2161 47.4925 85.5047 47.4925 84.0072C47.4925 83.7932 47.2786 83.5793 47.0647 83.5793C46.8508 83.5793 46.4229 83.3654 46.209 83.3654C45.995 83.3654 45.995 83.1515 46.209 83.1515C47.0647 83.1515 47.9204 83.1514 48.5622 82.9375C48.7761 82.9375 48.9901 82.9376 48.9901 83.1515C48.9901 83.5794 48.9901 83.7933 48.9901 84.2212C48.9901 84.4351 49.204 84.2212 49.204 84.2212C49.4179 84.2212 49.8458 83.7932 50.0597 83.5793Z" fill="#062F62"/>
<path d="M70.811 83.1511C71.6667 82.9372 72.7364 83.365 73.3782 83.7929C74.02 84.4347 74.2339 85.2904 74.2339 86.1461C74.2339 86.1461 74.2339 86.3601 74.02 86.3601C72.7364 86.3601 71.2389 86.3601 69.9553 86.3601C69.7414 86.3601 69.7414 86.574 69.7414 86.574C69.7414 87.2158 69.7414 88.0715 69.9553 88.7133C70.1692 89.1411 70.5971 89.5691 71.0249 89.5691C71.6667 89.783 72.5225 89.569 73.1643 88.9272C73.5921 88.4993 73.806 88.0715 73.806 87.6436C73.806 87.6436 73.806 87.4298 74.02 87.4298C74.2339 87.4298 74.2339 87.6436 74.2339 87.8575C74.02 88.7132 73.5921 89.3551 72.7364 89.5691C71.8807 89.9969 70.811 89.9968 69.9553 89.355C68.8856 88.9272 68.2439 87.8575 68.2439 86.7879C67.6021 85.2903 68.8856 83.579 70.811 83.1511ZM70.811 83.5789C70.5971 83.5789 70.1692 83.7929 70.1692 84.0068C69.7414 84.4346 69.7414 85.2903 69.7414 85.7182C69.7414 85.9321 69.7414 86.1461 69.9553 86.1461C70.5971 86.1461 71.2389 86.1461 72.0946 86.1461C72.3085 86.1461 72.5225 86.1461 72.5225 85.9322C72.5225 85.7183 72.5225 85.2904 72.5225 85.0764C72.5225 84.6486 72.3085 84.2208 72.0946 83.7929C71.6667 83.365 71.2389 83.365 70.811 83.5789Z" fill="#062F62"/>
<path d="M43.4278 83.3647C43.6417 83.3647 44.0696 83.3647 44.2835 83.3647C44.4975 83.3647 44.4975 83.5787 44.4975 83.7926C44.4975 85.718 44.4975 87.4294 44.4975 89.3548C44.4975 89.5687 44.7114 89.7827 44.7114 89.7827C45.1393 89.9966 45.3532 89.9965 45.781 89.9965C45.995 89.9965 45.781 90.2105 45.781 90.2105C44.4975 90.2105 43 90.2105 41.7164 90.2105C41.5024 90.2105 41.5024 89.9965 41.5024 89.9965C41.7164 89.9965 42.1442 89.7827 42.5721 89.7827C42.786 89.7827 43 89.5687 43 89.3548C43 87.8573 43 86.3597 43 84.6483C43 84.4343 42.786 84.2205 42.786 84.2205C42.5721 84.0066 42.1442 84.0065 41.9303 84.0065V83.7926C42.1442 83.7926 42.1442 83.7926 42.3582 83.7926C42.5721 83.3648 43 83.3647 43.4278 83.3647Z" fill="#062F62"/>
<path d="M60.1145 83.3647C60.7563 83.3647 61.1841 83.3647 61.8259 83.3647C62.0399 83.3647 62.2538 83.3647 62.2538 83.5786C62.2538 85.504 62.2538 87.2155 62.2538 89.1409C62.2538 89.3548 62.2538 89.5688 62.4677 89.5688C62.8956 89.7827 63.1095 89.7827 63.5374 89.7827C63.7513 89.7827 63.5374 89.9965 63.5374 89.9965C62.2538 89.9965 60.7563 89.9965 59.4727 89.9965C59.2588 89.9965 59.2588 89.7827 59.4727 89.7827C59.9006 89.5687 60.1145 89.5688 60.5424 89.5688C60.7563 89.5688 60.7563 89.3548 60.7563 89.1409C60.7563 87.6434 60.7563 86.1458 60.7563 84.4344C60.7563 84.2205 60.5424 84.0065 60.3284 84.0065C60.1145 84.0065 59.6866 83.7926 59.4727 83.7926V83.5786C59.4727 83.3647 59.6866 83.3647 60.1145 83.3647Z" fill="#062F62"/>
</svg>
