<svg width="70" height="69" viewBox="0 0 70 69" fill="none" xmlns="http://www.w3.org/2000/svg">
<path fill-rule="evenodd" clip-rule="evenodd" d="M35.2031 0C54.1878 0 69.7021 15.7185 69.498 34.7031C69.498 53.6878 53.7795 69.2021 34.7949 68.998C15.8102 68.998 0.5 53.4836 0.5 34.7031C0.5 15.7185 15.8102 0 34.7949 0C34.999 0 34.999 0 35.2031 0Z" fill="#EE363A"/>
<path fill-rule="evenodd" clip-rule="evenodd" d="M18.6681 22.8634C18.8722 19.1889 26.017 18.3724 26.8335 22.8634V36.5405C26.8335 54.0962 -1.33728 46.339 10.0943 37.357C12.7481 41.0315 17.8515 40.8273 18.4639 37.1529L18.6681 22.8634ZM50.5133 25.5171C56.4332 25.7213 61.1283 30.6206 60.9242 36.5405C60.7201 42.4604 55.8208 47.1556 49.9009 46.9514C44.1851 46.7473 39.4899 42.0522 39.4899 36.3364C39.4899 30.4164 44.5933 25.5171 50.5133 25.5171ZM50.5133 31.6412C52.9629 31.4371 55.2084 33.4784 55.4125 35.9281C55.6167 38.3777 53.5753 40.6232 51.1257 40.8274C48.6761 41.0315 46.4306 38.9901 46.2264 36.5405V36.3364C46.2264 33.8867 48.0636 31.8454 50.5133 31.6412ZM32.5493 16.5352H34.1824C36.0196 16.5352 37.4486 17.9641 37.4486 19.8013V20.6179C37.4486 22.4551 36.0196 23.8841 34.1824 23.8841H32.5493C30.7121 23.8841 29.2831 22.4551 29.2831 20.6179V19.8013C29.2831 18.1682 30.7121 16.5352 32.5493 16.5352ZM32.5493 26.1296H33.9783C35.8155 26.1296 37.2444 27.5585 37.2444 29.3957V43.277C37.2444 45.1142 35.8155 46.5432 33.9783 46.5432H32.5493C30.7121 46.5432 29.2831 45.1142 29.2831 43.277V29.3957C29.2831 27.5585 30.7121 26.1296 32.5493 26.1296Z" fill="white"/>
</svg>
