<svg width="96" height="85" viewBox="0 0 96 85" fill="none" xmlns="http://www.w3.org/2000/svg">
<path d="M85.4833 0.995932C87.058 0.770975 88.6327 0.770996 90.2074 0.770996C88.6327 1.67082 87.283 2.57064 85.9332 3.47046C81.4341 6.39489 76.935 9.76924 72.6608 13.1436C67.7118 17.1928 63.2127 21.467 59.1635 26.191C53.9895 31.8149 49.4904 38.1137 45.6661 44.8624C45.2162 45.5372 44.7663 46.2121 44.5413 47.1119C44.3164 48.0117 43.6415 48.9116 43.1916 49.8114C42.9666 50.2613 42.7417 50.9362 42.5167 51.611C42.5167 50.4863 42.7417 49.1365 42.7417 48.0118C42.7417 46.887 42.9666 45.0873 43.4165 43.5126C43.8665 41.9379 43.8665 40.5882 44.0914 39.2385C44.3164 38.3386 44.5413 37.4388 44.7663 36.539C44.9912 35.6392 45.2162 34.7393 45.6661 33.6146C46.341 31.365 47.2408 29.1154 48.3656 26.8659C48.8155 26.191 49.0404 25.5162 49.4904 24.8413C52.8647 18.0926 58.0387 12.4687 64.3375 8.41949C66.587 7.06975 68.8366 5.72002 71.0861 4.59524C72.4359 4.14533 73.7856 3.47047 75.3603 3.02056C76.4851 2.57064 77.6099 2.34567 78.7346 2.12071C79.8594 1.89576 81.4341 1.44586 82.7838 1.2209C83.6837 1.2209 84.5835 1.22089 85.4833 0.995932Z" fill="#96C61C"/>
<path d="M13.7223 7.06934C15.9719 7.06934 17.9965 7.29429 20.0211 7.51924C21.8207 7.7442 23.6204 8.41906 25.195 9.09393C26.0949 9.54384 26.9947 9.76879 27.6696 10.2187C29.4692 11.1185 31.0439 12.2433 32.3936 13.3681C36.6678 17.1923 39.8172 21.6915 41.8418 27.0904C42.2917 28.2152 42.7416 29.34 42.9666 30.4647C43.1915 31.3646 43.6414 32.4894 43.8664 33.3892C44.0913 34.514 44.5413 35.8637 44.5413 37.2134C44.3163 36.9885 44.0914 36.5386 44.0914 36.3136C42.5167 34.0641 40.717 31.5895 38.9174 29.5649C37.7926 28.2152 36.6678 26.8654 35.3181 25.7407C34.6432 24.8408 33.9683 24.166 33.2935 23.4911C29.6942 19.8918 25.8699 16.2925 21.8207 13.1431C19.1212 11.1185 16.4218 9.09394 13.7223 7.06934Z" fill="#96C61C"/>
<path d="M21.5958 13.3687C25.645 16.518 29.4693 19.8924 33.0686 23.7166C33.7434 24.6165 34.4183 25.2913 35.0932 25.9662C35.0932 34.5145 35.0932 43.2878 35.0932 51.8361H21.5958C21.5958 39.0137 21.5958 26.1911 21.5958 13.3687Z" fill="#014FA1"/>
<path d="M59.1635 26.4161C63.2127 21.692 67.7118 17.1929 72.6608 13.3687C72.6608 26.1911 72.6608 39.0137 72.6608 51.8361H59.1635C59.1635 43.2878 59.1635 34.7395 59.1635 26.4161Z" fill="#014FA1"/>
<path d="M2.92443 68.2577C4.72408 66.9079 7.19859 66.9079 8.99824 68.0327C9.2232 68.2577 9.67311 68.4826 9.89807 68.9326C10.348 69.6074 10.7979 70.5072 11.0228 71.4071C11.6977 70.0573 12.5975 68.9325 13.7223 68.2577C14.8471 67.5828 16.4218 67.1329 17.7715 67.5828C18.4464 67.8078 18.8963 68.0327 19.5712 68.2577C20.696 69.1575 21.1459 70.5072 21.3708 71.857C21.3708 72.5318 21.5958 72.9817 21.5958 73.6566C21.5958 77.031 21.5958 80.4053 21.5958 84.0046H20.246C20.246 81.0802 20.246 77.9308 20.246 74.7814C20.246 73.8816 20.246 72.7568 20.0211 71.857C19.7961 71.1821 19.5712 70.2823 19.1213 69.8324C18.6713 69.1575 17.7715 68.9326 17.0967 68.9326C15.9719 68.9326 14.8471 69.1575 13.9473 69.8324C12.5975 70.9571 11.6977 72.5318 11.6977 74.3315C11.6977 75.2313 11.6977 76.1311 11.6977 77.031C11.6977 79.2805 11.6977 81.755 11.6977 84.0046H10.123C10.123 81.0802 10.123 78.3807 10.123 75.4563C10.123 74.5564 10.123 73.4317 10.123 72.5318C10.123 71.4071 9.67311 70.5072 8.99824 69.8324C8.32337 69.1575 7.6485 68.9326 6.74868 68.9326C5.84886 68.9326 4.94904 69.1575 4.27417 69.3825C2.69948 70.2823 1.57469 71.857 1.34974 73.6566C1.34974 75.0063 1.12478 76.5811 1.34974 77.9308C1.34974 79.9554 1.34974 81.98 1.34974 84.0046H0C0 78.6057 0 73.2067 0 67.8078H1.34974C1.34974 68.9326 1.34974 70.0573 1.34974 71.1821C1.57469 70.7322 2.0246 70.0573 2.24956 69.6074C2.0246 68.9325 2.47452 68.4826 2.92443 68.2577Z" fill="#014FA1"/>
<path d="M30.1442 67.808C31.7189 67.1332 33.2935 66.9082 35.0932 67.3581C35.7681 67.3581 36.218 67.5831 36.8928 67.808C37.3428 68.033 37.7927 68.4829 38.2426 68.9328C38.6925 69.6077 38.9174 70.2825 39.1424 70.9574C39.3674 71.4073 39.3674 71.8572 39.3674 72.3071V80.4055C39.3674 81.0804 39.3674 81.7553 39.5923 82.2052C40.0422 82.6551 40.4921 82.6551 41.167 82.6551C41.167 83.105 41.167 83.5549 41.167 84.0049C40.4921 84.2298 39.8173 84.2298 39.3674 84.0049C39.1424 83.7799 38.9174 83.5549 38.6925 83.5549C38.2426 82.8801 38.0176 82.2052 38.0176 81.5303C37.5677 81.9802 37.1178 82.4301 36.6679 82.6551C35.993 83.33 35.0932 83.7799 33.9684 84.0049C32.8436 84.2298 31.7189 84.2298 30.5941 84.0049C29.9192 83.7799 29.2443 83.33 28.5695 82.8801C28.3445 82.6551 28.1196 82.4301 27.8946 81.9802C27.2197 80.8554 26.9948 79.2808 27.2197 77.931C27.2197 77.4811 27.4447 76.8062 27.8946 76.3563C28.1196 75.9064 28.5695 75.6815 28.7944 75.2315C29.0194 75.0066 29.0194 75.0066 29.2443 75.0066C29.6942 74.7817 30.1442 74.5567 30.5941 74.3317C31.4939 74.1068 32.6187 73.6569 33.5185 73.4319C34.4183 73.207 35.0932 73.207 35.993 72.7571C36.6679 72.5321 37.3428 72.3071 38.0176 71.8572C38.2426 70.9574 37.7927 70.0576 37.3428 69.3827C36.6679 68.7078 35.5431 68.2579 34.6433 68.2579C33.2935 68.033 31.9438 68.4829 30.819 69.1577C29.9192 69.8326 29.2443 70.5075 28.7944 71.4073C28.5695 71.1823 28.1196 70.9574 27.6696 70.5075C28.1196 69.6077 28.5695 68.9328 29.2443 68.2579C29.0194 68.2579 29.4693 68.033 30.1442 67.808ZM36.4429 74.3317C35.7681 74.5567 35.0932 74.5567 34.4183 75.0066C33.2935 75.4565 31.9438 75.2316 30.819 75.9064C30.1442 76.1314 29.4693 76.3564 29.0194 76.8063C28.5695 77.2562 28.1196 77.931 27.8946 78.6059C27.6696 79.5057 27.8946 80.4055 28.1196 81.0804C28.3445 81.7553 28.7944 82.2052 29.4693 82.6551C30.819 83.33 32.3937 83.33 33.9684 82.8801C34.8682 82.6551 35.5431 82.2052 36.218 81.5303C36.6679 81.0804 36.8928 80.6305 37.1178 79.9556C37.3427 79.5057 37.3428 78.8309 37.3428 78.381C37.3428 77.0312 37.3428 75.6815 37.3428 74.3317C37.1178 73.8818 36.8928 74.1068 36.4429 74.3317Z" fill="#014FA1"/>
<path d="M49.4903 68.2576C50.1652 67.3578 51.2899 67.1328 52.4147 67.1328C52.8646 67.1328 53.3145 67.1328 53.7645 67.3577C53.7645 68.0326 53.7645 68.4825 53.7645 69.1574C52.6397 68.7075 51.2899 68.9325 50.3901 69.3824C49.4903 70.0572 48.8154 70.7321 48.5905 71.6319C48.1406 72.7567 47.6906 73.8815 47.4657 75.2312C47.4657 76.131 47.2407 76.8059 47.2407 77.7057C47.2407 79.7303 47.2407 81.7549 47.2407 83.7795H45.891C45.891 78.3806 45.891 72.9817 45.891 67.5827H47.2407C47.2407 68.9325 47.2407 70.2822 47.2407 71.6319H47.4657C47.9156 70.5072 48.5905 69.3824 49.4903 68.2576Z" fill="#014FA1"/>
<path d="M70.6362 67.3578C71.7609 67.1329 72.6608 67.3578 73.7855 67.5828C74.4604 67.8078 75.1353 68.0327 75.5852 68.4826C76.0351 68.9325 76.485 69.3824 76.9349 69.8324C77.3848 70.5072 77.8348 71.1821 78.0597 71.8569L76.71 72.5318C76.2601 71.1821 75.1353 69.8323 74.0105 69.1575C72.2109 68.2577 69.9613 68.7076 68.6116 69.8324C67.4868 70.7322 66.8119 72.0819 66.587 73.4317C66.1371 75.4563 66.362 77.4809 67.0369 79.5055C67.2618 79.9554 67.4868 80.4053 67.7117 80.8552C68.1617 81.3051 68.3866 81.755 68.8365 82.2049C69.2864 82.4299 69.7363 82.6549 70.1863 82.8798C71.311 83.1048 72.6608 83.1048 73.7855 82.6548C74.2355 82.4299 74.6854 82.2049 75.1353 81.755C75.5852 81.3051 75.8102 80.8552 76.2601 80.4053C76.485 79.9554 76.71 79.7304 76.9349 79.2805C77.3848 79.5055 77.8348 79.7304 78.2847 79.7304C78.0597 80.1803 78.0597 80.6302 77.8348 80.8552C77.3849 81.5301 76.9349 81.98 76.485 82.6548C76.0351 83.1048 75.3602 83.5547 74.6854 83.7796C74.0105 84.2295 73.1107 84.2295 72.2109 84.2295C71.311 84.2295 70.4112 84.0046 69.5114 83.7796C68.6116 83.5547 67.7117 82.8798 67.2618 82.2049C67.0369 81.98 66.8119 81.5301 66.587 81.3051C66.1371 80.4053 65.6871 79.5055 65.4622 78.6056C65.2372 77.2559 65.0123 75.6812 65.2372 74.3315C65.2372 73.8816 65.2372 73.6566 65.4622 73.2067C65.6871 72.5318 65.9121 71.632 66.362 70.9571C66.8119 70.0573 67.4868 69.3824 68.1616 68.7076C68.3866 67.8078 69.5114 67.3578 70.6362 67.3578Z" fill="#014FA1"/>
<path d="M88.4078 67.1334C90.2074 66.9084 91.7821 67.3583 93.1318 68.4831C94.0317 69.158 94.4816 70.0578 95.1565 70.9576C95.3814 71.6325 95.6064 72.5323 95.8313 73.2072C96.0563 74.7819 96.0563 76.3566 95.8313 77.9313C95.6064 79.0561 95.1565 80.1808 94.4816 81.0807C93.8067 81.9805 93.1318 82.8803 92.0071 83.3302L90.8823 83.7801C89.7575 84.0051 88.4078 84.0051 87.283 83.7801C86.8331 83.7801 86.6081 83.5552 86.1582 83.3302C85.7083 83.1053 85.4833 83.1053 85.2584 82.8803C85.0334 82.6554 84.8085 82.4304 84.3586 82.2054C83.9087 81.9805 83.6837 81.5306 83.4587 81.0807C82.334 79.281 81.6591 77.0315 81.884 75.0068C81.884 72.5323 82.7839 70.0578 84.5835 68.2582C85.7083 67.5833 87.058 67.1334 88.4078 67.1334ZM87.9579 68.4831C86.3832 68.7081 85.0334 69.8329 84.3586 71.1826C83.6837 72.3074 83.4587 73.4321 83.4587 74.7819C83.4587 76.1316 83.4587 77.2564 83.9087 78.6061C84.1336 79.281 84.3586 79.9559 84.8085 80.6307C85.2584 81.3056 85.9333 81.7555 86.6081 82.2054C88.4078 83.3302 91.1073 83.1053 92.457 81.5306C92.9069 81.0806 93.1319 80.6308 93.3568 80.1808C93.8067 79.506 94.0317 78.6061 94.2566 77.7063C94.4816 76.5815 94.4816 75.4568 94.2566 74.5569C94.2566 73.4322 93.8067 72.3074 93.3568 71.4075C92.9069 70.5077 92.0071 69.6079 91.1073 69.158C90.2074 68.4831 89.0826 68.4831 87.9579 68.4831Z" fill="#014FA1"/>
<path d="M57.8137 67.5835H59.3884V83.7803H57.8137C57.8137 78.3814 57.8137 72.9824 57.8137 67.5835Z" fill="#014FA1"/>
</svg>
