<svg width="114" height="69" viewBox="0 0 114 69" fill="none" xmlns="http://www.w3.org/2000/svg">
<g opacity="0.6">
<path d="M0.28772 0C13.1425 0 26.1863 0 39.0411 0C43.3891 4.53699 47.9261 9.26299 52.274 13.8C56.622 9.26299 61.159 4.72603 65.5069 0C78.5507 0 91.4055 0 104.449 0C104.449 9.45205 104.449 18.9041 104.449 28.3562C104.449 28.7342 104.449 29.3014 104.26 29.6795C101.047 34.7836 98.211 40.2657 96.1315 45.937C95.9425 46.5041 95.5644 47.2603 94.9973 47.6384C94.4302 47.8274 93.674 47.8274 93.485 47.2603C93.1069 46.5041 93.1069 45.7479 93.1069 44.9918C92.7288 42.1561 92.5398 39.1315 91.9726 36.2959C91.5946 34.7836 91.4055 33.2712 90.2713 32.137C89.3261 31.1918 87.6247 31.0028 86.3014 31.3809C84.9781 31.5699 83.8439 32.326 83.2768 33.4603C82.5206 34.7836 82.5206 36.485 82.7096 37.9973C83.2768 40.6439 84.222 43.2904 84.9781 45.748C86.8685 50.474 88.759 55.389 90.6494 60.115C91.0275 61.2493 91.7836 62.5726 93.1069 63.1398C94.2411 63.5179 95.3754 63.5179 96.6987 63.5179C97.6439 63.3288 98.5891 62.7617 99.1562 61.8165C100.101 60.3041 100.479 58.4137 101.047 56.7123C102.181 53.1205 103.126 49.7178 104.638 46.3151C104.638 53.8767 104.638 61.2494 104.638 68.811C96.5096 68.811 88.3809 68.811 80.2521 68.811C79.874 65.9754 79.685 63.1397 79.874 60.4931C79.874 57.8466 80.0631 55.011 80.0631 52.3644C80.0631 48.3945 79.685 44.4247 79.3069 40.4548C79.1179 37.4302 79.3069 34.4055 79.1179 31.1918C81.3864 29.6795 83.8439 28.5452 86.1124 27.222C87.6247 26.2768 89.3261 25.5205 90.6494 24.1972C91.4055 23.4411 91.9727 22.4959 91.5946 21.3616C90.6494 19.4712 88.1918 18.5261 86.3014 19.2822C84.6 20.0384 83.6548 21.5507 82.1425 22.4959C80.2521 23.6302 78.3617 24.7645 76.4713 25.7097C74.9589 24.9535 73.2576 24.7644 71.7452 25.1424C70.9891 25.3315 70.0439 25.8987 69.8548 26.8439C69.4768 27.7891 69.8548 28.7343 69.6658 29.6795C69.4768 30.2466 69.0987 30.6247 68.5315 31.0028C66.4521 32.137 64.3727 33.4603 62.2932 34.5945C60.2137 35.9178 58.1343 37.2412 55.6768 37.9973C54.1644 38.3754 52.4631 38.9425 51.7069 40.4548C50.9507 41.9672 51.8959 43.4795 53.0302 44.4247C53.9754 45.3699 55.4877 45.5589 56.811 45.1809C58.5124 44.6137 59.8357 43.4795 61.159 42.5342C62.8603 41.211 64.5617 40.0767 66.2631 38.7534C67.2083 38.1863 68.1535 37.4302 69.2877 37.0521C70.0439 36.8631 70.9891 37.0521 71.3672 37.8082C72.1233 39.5096 71.9343 41.2109 71.9343 43.1013C71.9343 48.9616 71.3672 54.6329 71.1781 60.4931C71.1781 63.1397 71.1781 65.9753 71.1781 68.6219C69.0987 68.6219 66.8302 68.6219 64.7507 68.6219C64.7507 62.1945 64.7507 55.7672 64.7507 49.3398C60.5918 52.7425 56.622 56.1452 52.4631 59.5479C48.3042 56.1452 44.3343 52.7425 40.1754 49.5288C40.1754 55.9562 40.1754 62.3836 40.1754 68.811C26.9425 68.811 13.7096 68.811 0.476762 68.811C0.28772 45.937 0.28772 22.874 0.28772 0Z" fill="#999999"/>
<path d="M42.822 0C46.7919 1.70137 50.5727 3.40276 54.5426 5.10413C55.1097 5.29317 55.4878 5.86025 56.0549 6.23833C54.9207 7.56162 53.5974 8.69587 52.4631 10.0192C49.2494 6.61642 45.8467 3.40274 42.822 0Z" fill="#999999"/>
<path d="M107.285 0C109.364 1.32329 111.633 2.45753 113.712 3.78082C113.712 8.50685 113.712 13.2329 113.712 17.7699C111.444 20.2274 109.364 22.874 107.285 25.5205C107.285 17.0137 107.285 8.50685 107.285 0Z" fill="#999999"/>
<path d="M107.663 39.8881C109.364 36.6744 111.444 33.4606 113.523 30.625C113.523 43.4798 113.523 56.1455 113.523 69.0003C111.444 69.0003 109.175 69.0003 107.096 69.0003C107.096 59.9263 107.096 50.6633 107.096 41.5894C107.096 40.8332 107.474 40.4552 107.663 39.8881Z" fill="#999999"/>
<path d="M42.822 55.2002C44.5234 56.7125 46.4138 58.2248 48.1152 59.5481C48.1152 62.5728 48.1152 65.7865 48.1152 68.8112C46.4138 68.8112 44.5234 68.8112 42.822 68.8112C42.822 64.2742 42.822 59.7372 42.822 55.2002Z" fill="#999999"/>
<path d="M56.2439 59.9262C58.1343 58.4139 60.0247 56.7125 61.9151 55.2002C61.9151 56.5235 61.9151 57.6577 61.9151 58.981C61.537 59.3591 61.159 59.5481 60.7809 59.9262C59.2686 59.9262 57.7562 59.9262 56.2439 59.9262Z" fill="#999999"/>
</g>
</svg>
