<svg width="122" height="75" viewBox="0 0 122 75" fill="none" xmlns="http://www.w3.org/2000/svg">
<path fill-rule="evenodd" clip-rule="evenodd" d="M49.2322 20.9022C49.7125 20.9022 50.1929 20.4219 50.1929 19.9416C50.1929 19.4613 49.7125 18.981 49.2322 18.981C48.7519 18.981 48.2716 19.4613 48.2716 19.9416C48.2716 20.4219 48.7519 20.9022 49.2322 20.9022Z" fill="#005BA5"/>
<path fill-rule="evenodd" clip-rule="evenodd" d="M60.5197 39.8753C61.4804 39.8753 62.441 39.8753 63.4016 39.6352C64.1221 39.395 64.6024 39.1548 65.0827 38.6745C65.3229 38.4344 65.8032 37.9541 66.0434 37.7139C66.5237 37.4737 67.004 37.4737 67.4843 37.4737C68.2048 37.4737 69.1654 37.7139 69.8859 38.1942V36.9934C68.6851 36.5131 67.4843 36.2729 66.2835 36.2729C65.3229 36.2729 64.1221 36.5131 63.4016 37.2336C62.441 38.1942 61.0001 38.6745 59.5591 38.6745C58.8386 38.6745 57.3977 38.4344 56.9174 38.4344C56.6772 38.4344 56.4371 38.4344 56.1969 38.4344C56.1969 38.6745 56.6772 39.6352 56.6772 39.6352C57.878 39.6352 59.0788 39.8753 60.5197 39.8753Z" fill="#005BA5"/>
<path fill-rule="evenodd" clip-rule="evenodd" d="M53.0748 36.2732C53.5551 36.2732 54.9961 36.5133 56.6772 36.5133C57.6378 36.5133 58.5984 36.7535 59.5591 36.7535C61.4803 36.5133 63.4016 36.033 65.0827 35.0724L64.8425 33.8716C63.6417 34.3519 62.4409 34.8322 61.2402 35.0724C60.7598 35.0724 60.2795 35.0724 59.7992 35.0724C59.3189 35.0724 58.8386 34.8322 58.3583 34.8322C57.6378 34.5921 56.9173 34.5921 56.1969 34.5921C55.7165 34.5921 54.5157 34.5921 54.0354 34.5921C52.5945 34.5921 51.1535 35.0724 49.9528 35.7928C49.2323 36.2732 48.5118 36.9936 48.0315 37.7141C48.5118 37.7141 48.752 37.9543 49.2323 37.9543C49.9528 36.7535 51.6339 36.033 53.0748 36.2732Z" fill="#005BA5"/>
<path fill-rule="evenodd" clip-rule="evenodd" d="M31.2204 36.7527C31.9409 36.7527 32.4212 36.9929 32.9015 37.233C33.1417 37.4732 33.3818 37.7134 33.8622 37.9535C34.1023 38.1937 34.3425 38.674 34.1023 38.9141L33.8622 39.1543C33.1417 39.6346 32.6614 40.1149 31.9409 40.5952C31.7007 40.8354 31.2204 40.8354 30.9803 40.8354C30.7401 40.8354 30.5 40.8354 30.2598 40.5952L28.8188 41.5559C29.2992 41.796 30.0196 42.0362 30.5 42.0362C31.4606 42.0362 32.1811 41.796 33.1417 41.5559C34.1023 41.0756 35.0629 40.5952 36.0236 39.8748C36.744 39.3945 37.7047 39.1543 38.9055 38.9141C39.8661 39.1543 40.8267 39.3945 41.7874 39.8748C43.2283 40.5952 44.6692 41.0756 46.1102 41.0756C47.0708 41.0756 48.0315 40.8354 48.9921 40.8354C50.9133 40.3551 52.8346 39.8748 54.5157 39.1543L54.0354 37.9535C53.5551 38.1937 52.1141 38.674 50.433 38.9141C49.2322 39.1543 48.0315 39.3945 46.8307 39.3945C46.1102 39.3945 45.6299 39.3945 44.9094 39.1543C43.7086 38.9141 42.9881 38.4338 42.9881 37.7134C42.9881 36.9929 43.4685 36.5126 43.9488 36.5126C45.1496 36.0323 46.5905 36.0323 48.0315 36.0323L48.9921 34.8315C48.2716 34.5913 47.311 34.5913 46.5905 34.5913C45.3897 34.5913 44.4291 34.8315 43.4685 35.0716C42.748 35.3118 42.0275 36.0323 41.5472 36.7527C41.307 36.9929 41.0669 37.233 40.8267 37.233C40.5866 37.233 39.3858 36.7527 38.6653 36.7527C38.185 36.7527 37.9448 36.7527 37.7047 36.7527C36.5039 36.5126 35.5433 36.2724 34.5826 35.5519C33.8622 35.0716 33.1417 34.8315 32.4212 34.8315C31.9409 34.8315 31.7007 34.8315 31.2204 35.0716C30.5 35.3118 29.7795 35.7921 29.2992 36.2724L30.0196 36.7527C29.5393 36.9929 30.2598 36.7527 31.2204 36.7527Z" fill="#005BA5"/>
<path fill-rule="evenodd" clip-rule="evenodd" d="M94.1419 46.8399C91.0198 44.1981 88.1379 41.3162 85.256 38.4343C80.693 33.1509 77.0907 27.3871 74.2088 21.143C73.4883 19.4619 72.0474 19.9422 72.7678 21.8635C75.4096 27.3871 78.7718 32.6706 82.6143 37.4737L79.7324 36.2729C79.2521 36.7532 78.7718 37.4737 78.2915 37.954C77.571 38.6745 77.0907 39.1548 76.8505 39.395C76.6104 39.6351 76.13 39.8753 75.6497 39.395C75.4096 38.9147 75.1694 38.4343 75.1694 38.1942L74.2088 36.9934C73.7285 36.5131 71.567 33.391 70.8466 32.4304C70.3663 31.2296 69.1655 30.5091 67.9647 30.269C66.2836 30.269 65.5631 32.1903 65.5631 34.1115L66.7639 33.6312C67.0041 32.4304 67.4844 31.9501 68.2048 31.9501C68.6852 31.9501 68.9253 32.4304 68.9253 32.9107C68.6852 33.6312 68.445 34.3517 68.2048 35.0721L69.4056 35.5525C69.4056 34.832 69.6458 34.1115 69.8859 33.391C70.1261 33.6312 70.1261 33.6312 70.3663 33.8714C70.3663 34.1115 71.0867 34.832 71.567 36.0328C72.0474 37.2336 72.7678 38.4343 73.4883 39.395C73.7285 39.8753 74.2088 40.3556 74.2088 40.5958C74.4489 41.0761 74.6891 41.3162 74.9292 41.5564C75.1694 41.5564 75.4096 41.7965 75.6497 41.7965C76.3702 41.7965 76.8505 41.5564 77.3308 41.0761C78.2915 40.1154 79.0119 39.1548 79.9726 37.954L81.8938 38.9147L84.2954 39.8753C85.9765 41.7966 87.8978 43.7178 89.819 45.3989L91.26 46.5997L92.4607 47.5603L94.1419 46.8399Z" fill="#005BA5"/>
<path fill-rule="evenodd" clip-rule="evenodd" d="M101.587 46.1193C98.2246 38.4343 94.382 30.9894 89.819 23.7847L88.8584 22.5839C87.6576 20.9028 86.2167 19.4618 84.7757 18.0209L83.8151 17.0603C81.1734 14.4185 78.0513 12.0169 75.8899 10.0957C73.7285 8.17442 72.5277 4.81222 67.7245 4.81222C64.8426 4.57206 62.4411 6.49332 61.7206 9.37521C61.7206 10.0957 61.4804 10.8162 61.0001 11.2965L58.3584 14.4185L61.4804 14.1784L59.7993 16.8201C60.76 16.5799 66.2836 15.6193 67.2442 17.3004C68.6852 19.4618 67.7245 21.8634 70.1261 26.6666L71.3269 28.5878C72.5277 30.5091 73.9686 32.4303 75.4096 34.1114L74.2088 36.7532L75.1694 37.954L77.0907 33.8713C75.1694 31.7099 73.2482 29.3083 71.8072 26.6666C68.9253 21.6232 70.1261 18.9815 68.445 16.5799C66.7639 14.1784 62.2009 15.3791 62.2009 15.3791L63.882 12.9776H61.0001L62.4411 11.2965C62.6812 11.0563 62.9214 10.576 62.9214 10.3358C63.4017 7.93426 65.5631 6.25316 67.9647 6.25316C71.5671 6.25316 72.5277 8.8949 74.9293 11.0563C79.2521 14.6587 83.3348 18.5012 87.1773 22.824C91.0198 27.1469 95.823 37.2335 99.6655 45.1587C93.9017 41.5563 89.3387 36.7532 85.7364 31.2295L84.2954 30.9894C88.1379 37.7138 93.9017 43.4776 100.626 47.5603L101.587 46.1193Z" fill="#005BA5"/>
<path fill-rule="evenodd" clip-rule="evenodd" d="M91.9804 21.3825C93.1812 20.662 94.382 19.9416 95.8229 19.4613C97.0237 20.662 98.4646 21.3825 100.146 21.6227L99.9056 23.3038C97.504 22.103 94.8623 21.6227 91.9804 21.3825L90.5394 22.5833C94.1418 22.5833 97.504 23.5439 100.866 24.9849L101.587 20.662C100.146 20.4219 97.9843 20.1817 97.2638 18.9809C99.9056 18.2605 102.787 17.7802 105.669 17.7802V12.4967C104.709 12.977 103.748 13.4573 102.787 13.6975C101.587 14.1778 100.386 14.1778 100.146 13.6975C99.9056 13.2172 101.587 12.0164 103.268 11.0557L99.4253 7.69354C98.4646 9.37464 97.2638 10.8156 96.0631 12.2565C95.1024 13.2172 94.1418 13.9376 93.4213 13.6975C92.7009 13.4573 93.1812 12.7368 93.4213 12.0164C94.1418 10.3353 94.8623 8.65417 96.0631 7.21322L90.5394 6.73291C90.2993 9.13449 89.5788 11.5361 88.1379 13.4573C87.1772 14.8983 85.7363 16.3392 84.0552 17.2998L85.0158 18.2605C88.6182 15.8589 91.0197 12.2565 91.7402 8.17386L93.6615 8.41401C92.7008 10.0951 92.2205 11.7762 91.9804 13.6975C91.9804 14.6581 92.2205 14.8983 92.7009 15.1384C93.6615 15.8589 94.8623 15.3786 96.0631 14.418C97.504 12.977 98.7048 11.5361 99.6654 9.85496L101.347 11.2959C99.4253 12.4967 98.7048 13.9376 99.4253 14.8983C99.6654 15.3786 100.386 15.6187 100.866 15.6187C101.587 15.6187 102.307 15.3786 103.028 15.3786C103.508 15.1384 104.228 15.1384 104.949 14.8983V17.0597C100.386 17.2998 92.4607 19.2211 89.3386 23.3038L90.2993 24.5046C90.5394 24.0243 90.7796 23.7841 91.2599 23.3038L91.9804 21.3825Z" fill="#005BA5"/>
<path fill-rule="evenodd" clip-rule="evenodd" d="M31.4606 10.816L32.181 11.2963C34.1023 9.61516 35.7834 7.45375 36.744 5.29233L36.2637 4.81201C34.3425 6.73327 32.6614 8.89469 31.4606 10.816Z" fill="#005BA5"/>
<path fill-rule="evenodd" clip-rule="evenodd" d="M30.4999 9.37487C29.7795 7.45361 30.7401 5.29219 32.6614 4.57172C33.1417 4.33156 33.8621 4.33156 34.3425 4.33156C34.8228 3.13077 36.2637 2.4103 37.4645 2.65045C37.7047 2.65045 37.9448 2.89061 38.185 3.13077C39.3858 4.0914 39.3858 5.7725 38.6653 6.73313C38.4251 6.97329 38.4251 6.97329 38.185 7.21345C38.4251 9.37487 36.9842 11.5363 34.8228 11.7764C34.5826 11.7764 34.3425 11.7764 34.1023 11.7764C34.1023 13.4575 32.9015 14.8985 31.2204 14.8985C30.4999 14.8985 29.5393 14.6583 29.059 14.178C27.8582 13.2174 27.8582 11.2961 28.8188 10.0953C29.2991 9.85518 29.7795 9.61502 30.4999 9.37487ZM29.2991 8.89455C28.5787 9.13471 27.8582 9.61502 27.618 10.3355C28.0984 8.65439 26.8976 6.73313 24.9763 6.49298C24.7362 6.49298 24.496 6.49298 24.2558 6.49298C24.496 4.0914 22.8149 1.92998 20.1732 1.68983C19.2125 1.68983 18.2519 1.92998 17.2913 2.4103C15.8503 0.969351 13.6889 0.969351 12.248 2.4103L12.0078 2.65045C10.807 4.0914 11.0472 6.25282 12.4881 7.45361C12.7283 7.69376 12.9684 7.93392 13.4487 7.93392C12.9684 10.0953 14.1692 12.0166 16.3306 12.4969C16.811 12.4969 17.2913 12.7371 17.7716 12.4969C18.0117 13.2174 18.4921 13.9379 19.2125 13.9379C18.4921 13.9379 17.7716 14.4182 17.5314 15.1386C15.37 14.4182 12.9684 15.3788 12.248 17.5402C12.0078 18.0205 12.0078 18.741 12.0078 19.2213C10.0865 19.9418 9.12591 21.8631 9.84639 23.7843C10.0865 24.2646 10.3267 24.9851 10.807 25.2253C12.0078 26.6662 14.1692 26.9064 15.6102 25.4654C16.0905 25.2253 16.3306 24.745 16.5708 24.2646C18.4921 24.9851 20.4133 24.2646 21.3739 22.3434C21.6141 21.8631 21.6141 21.3827 21.6141 20.9024C24.2558 21.1426 25.2165 18.9812 24.9763 16.8197H24.2558C24.2558 18.5009 22.8149 19.9418 21.1338 19.7016C20.8936 19.7016 20.8936 19.7016 20.6535 19.7016C20.4133 21.8631 18.4921 23.304 16.3306 23.0638H16.0905C15.6102 24.2646 14.1692 24.9851 12.9684 24.5048C12.7283 24.2646 12.248 24.2646 12.248 24.0245C11.2873 23.0638 11.0472 21.6229 12.0078 20.6623C12.4881 20.182 12.9684 19.9418 13.6889 19.7016C13.6889 17.3001 15.8503 15.8591 19.2125 15.8591C19.933 14.6583 21.1338 14.178 22.3346 14.4182V13.6977C20.8936 13.4575 19.6928 12.2568 19.4527 10.8158C17.2913 11.2961 15.37 10.0953 14.6495 7.93392C14.6495 7.45361 14.4094 7.21345 14.6495 6.73313C13.4487 6.25282 12.9684 4.81187 13.6889 3.61108C13.6889 3.37093 13.9291 3.37093 13.9291 3.13077C14.6495 2.17014 16.3306 1.92998 17.2913 2.89061L17.5314 3.13077C19.6928 2.17014 22.3346 3.37093 23.0551 5.53234C23.2952 6.01266 23.2952 6.73313 23.2952 7.21345C24.2558 7.21345 24.9763 7.45361 25.6968 8.17408C26.4173 9.13471 26.8976 10.3355 27.1377 11.5363C27.3779 12.9772 28.0984 14.178 29.2991 15.1386C30.7401 16.5796 33.1417 16.5796 34.5826 15.1386C35.3031 14.4182 35.7834 13.4575 35.7834 12.4969C37.9448 12.9772 39.8661 11.5363 40.1062 9.37487C40.3464 8.65439 40.1062 7.93392 39.8661 7.21345C41.5472 6.01266 42.0275 3.85124 40.8267 2.17014C40.5865 1.68982 40.1062 1.44967 39.6259 1.20951C37.9448 0.00872046 35.5432 0.489037 34.3425 2.17014C34.3425 2.4103 34.1023 2.4103 34.1023 2.65045C31.9409 2.17014 30.0196 3.37093 29.5393 5.53234C28.8188 7.21345 29.059 8.17408 29.2991 8.89455Z" fill="#005BA5"/>
<path fill-rule="evenodd" clip-rule="evenodd" d="M43.7087 27.8672C43.9489 26.6664 42.5079 26.6664 42.2678 27.627C41.7874 29.3081 40.5867 30.7491 39.3859 31.9499L39.8662 32.4302C41.5473 31.2294 42.9882 29.7885 43.7087 27.8672Z" fill="#005BA5"/>
<path fill-rule="evenodd" clip-rule="evenodd" d="M51.3937 9.13513C51.8741 9.13513 52.3544 8.65481 52.3544 8.1745C52.3544 7.69418 51.8741 7.21387 51.3937 7.21387C50.9134 7.21387 50.4331 7.69418 50.4331 8.1745C50.4331 8.65481 50.9134 9.13513 51.3937 9.13513Z" fill="#005BA5"/>
<path fill-rule="evenodd" clip-rule="evenodd" d="M65.3228 9.85557C65.3228 9.1351 65.8031 8.65479 66.5235 8.65479C67.244 8.65479 67.7243 9.1351 67.7243 9.85557C67.7243 10.576 67.244 11.0564 66.5235 11.0564C65.8031 11.0564 65.3228 10.576 65.3228 9.85557Z" fill="#005BA5"/>
<path fill-rule="evenodd" clip-rule="evenodd" d="M63.4017 30.2685C58.5985 30.0284 53.7954 30.0284 48.7521 30.2685L49.2324 28.8276C54.0355 28.5874 58.5985 28.5874 63.4017 28.8276V30.2685Z" fill="#005BA5"/>
<path fill-rule="evenodd" clip-rule="evenodd" d="M19.2126 35.3119C19.2126 35.3119 19.6929 35.7923 20.1733 36.5127C20.4134 36.7529 20.6536 36.993 20.8937 37.2332C22.3347 38.6741 24.2559 39.3946 26.1772 39.8749C26.6575 39.8749 27.378 40.1151 27.8583 40.1151C28.5788 40.1151 29.5394 39.8749 30.0197 39.1545L29.2992 38.1938C28.8189 38.1938 28.5788 38.1938 28.0985 38.1938C24.9764 38.1938 22.0945 36.5127 20.6536 34.1112C20.6536 33.871 20.4134 33.871 20.6536 33.6308C20.8937 33.3907 20.8937 32.9104 20.8937 32.6702C21.1339 32.9104 21.6142 33.1505 21.8544 33.3907C23.0552 34.1112 24.9764 35.0718 25.4567 35.3119C26.1772 35.0718 27.1378 34.8316 27.8583 34.3513C28.5788 33.871 29.5394 33.871 30.2599 33.871C32.6615 34.1112 35.063 35.0718 37.2244 36.2726L38.9055 35.5521C36.2638 33.6308 33.1418 32.4301 29.7796 31.9497C28.3386 31.9497 26.8977 33.1505 25.937 33.1505C24.9764 33.1505 21.1339 31.4694 21.1339 30.0285C21.1339 28.5875 23.2953 28.3474 26.8977 27.8671C26.1772 28.8277 25.6969 29.7883 25.2166 30.749L26.1772 31.2293C30.5 24.5049 36.0237 18.9812 42.7481 14.4182C43.9489 13.6978 44.9095 12.497 45.63 11.2962C47.0709 8.17414 48.5119 5.77257 51.1536 5.77257C52.3544 5.77257 53.315 6.25288 54.0355 7.21351L55.9567 7.69383L54.0355 8.89461L55.9567 9.61508C52.5945 10.5757 50.193 12.9773 48.752 16.0993C46.5906 16.3395 44.6693 18.0206 43.9489 20.182C43.4685 21.3828 42.5079 21.8631 41.067 22.8237L30.2599 30.2686L31.7008 30.5088L41.7874 24.0245C43.2284 23.3041 44.189 22.1033 45.1496 20.9025C46.1103 18.9812 47.0709 17.7804 48.9922 17.7804C49.9528 17.7804 50.9134 18.2608 51.8741 18.9812L53.5552 19.4615L51.6339 20.6623L53.315 21.623C48.752 23.0639 45.8701 26.4261 44.4292 32.4301L45.63 32.6702C46.1103 30.749 46.8307 28.8277 47.7914 27.1466C50.4331 27.1466 53.0748 27.1466 55.7166 27.1466C61 26.9064 66.2835 27.3867 71.567 28.3474L70.3662 26.4261C65.563 25.7056 60.5197 25.4655 55.7166 25.7056C53.5552 25.7056 51.3937 25.7056 48.9922 25.7056C50.9134 23.7844 53.0748 22.5836 55.7166 21.8631L53.5552 20.6623L55.9567 19.2214L52.5945 18.0206C51.8741 17.3001 51.1536 17.06 50.193 16.8198C51.3937 13.4576 54.9961 11.5363 58.5985 10.0954L56.1969 9.13477L58.5985 7.69383L54.756 6.25288C54.0355 5.05209 52.5945 4.57178 51.1536 4.57178C47.5512 4.57178 46.1103 7.69383 44.6693 10.5757C44.189 11.7765 43.4685 12.7371 42.2678 13.4576C38.6654 15.8592 35.5433 18.5009 32.6615 21.623C30.2599 19.7017 28.0985 17.3001 26.4174 14.6584C26.1772 15.1387 25.937 15.619 25.6969 16.0993C26.1772 16.5797 30.2599 20.9025 31.941 22.5836L31.4607 23.0639C29.0591 23.5442 26.4174 23.7844 24.0158 23.5442L23.2953 24.9852C24.4961 24.9852 28.8189 24.2647 30.5 24.2647C30.0197 24.9852 29.2992 25.7056 28.8189 26.4261C23.2953 27.1466 19.4528 28.1072 19.4528 30.2686C19.4528 30.5088 19.6929 30.9891 19.6929 31.4694C19.6929 32.1899 19.4528 32.6702 18.7323 32.9104C18.252 33.1505 18.252 33.3907 18.4922 33.6308C19.4528 35.0718 16.5709 35.7923 18.4922 38.434H20.1733C18.9725 37.4734 18.7323 36.0324 19.2126 35.3119C19.2126 35.0718 19.4528 35.0718 19.2126 35.3119Z" fill="#005BA5"/>
<path fill-rule="evenodd" clip-rule="evenodd" d="M17.0512 5.53223L16.5709 6.2527C18.252 8.17396 20.4134 10.0952 22.5749 11.5362L23.2953 10.8157C21.3741 8.65427 19.2127 6.97317 17.0512 5.53223Z" fill="#005BA5"/>
<path fill-rule="evenodd" clip-rule="evenodd" d="M14.6495 21.3826L15.1298 21.8629C17.0511 20.9022 18.7322 19.4613 20.4133 18.0204L20.1732 17.54C18.0117 18.5007 16.3306 19.9416 14.6495 21.3826Z" fill="#005BA5"/>
<path fill-rule="evenodd" clip-rule="evenodd" d="M92.2206 44.6782C92.2206 43.7175 91.5001 42.9971 90.5395 42.9971H87.8978C86.9371 42.9971 86.2167 43.7175 86.2167 44.6782V72.0561C86.2167 73.0168 86.9371 73.7372 87.8978 73.7372H90.5395C91.5001 73.7372 92.2206 73.0168 92.2206 72.0561V44.6782Z" fill="white"/>
<path fill-rule="evenodd" clip-rule="evenodd" d="M95.5828 45.398V46.5988C95.5828 47.0791 96.0631 47.5594 96.5434 47.5594H114.555C115.276 47.5594 115.996 46.8389 115.996 46.1185V43.9571C115.996 43.2366 115.516 42.5161 114.555 42.5161L96.5434 44.1972C96.0631 44.1972 95.5828 44.6775 95.5828 45.398Z" fill="white"/>
<path fill-rule="evenodd" clip-rule="evenodd" d="M80.933 73.7372C76.8503 73.7372 73.7283 70.6152 73.7283 66.5325V55.4853H72.5275C71.807 55.4853 71.3267 55.0049 71.0865 54.2845V54.0443V52.1231C71.0865 51.4026 71.5669 50.9223 72.2873 50.9223H73.4881V44.6782C73.4881 43.7175 74.2086 42.9971 75.1692 42.9971H77.5708C78.5314 42.9971 79.2519 43.7175 79.2519 44.6782V51.4026H83.3346C84.0551 51.4026 84.5354 51.8829 84.5354 52.6034V54.2845C84.5354 55.0049 84.0551 55.4853 83.3346 55.4853H79.4921V65.5719C79.2519 67.253 80.6929 68.6939 82.374 68.9341C82.6141 68.9341 82.6141 68.9341 82.8543 68.9341H83.3346C84.0551 68.9341 84.7755 69.6546 84.7755 70.375V72.2963C84.7755 73.0168 84.0551 73.7372 83.3346 73.7372H80.933Z" fill="white"/>
<path fill-rule="evenodd" clip-rule="evenodd" d="M38.9057 50.4419C32.6616 50.4419 27.6182 55.245 27.6182 61.4891C27.6182 61.7293 27.6182 61.9695 27.6182 62.2096C27.3781 68.4537 32.1812 73.9773 38.4253 74.2175C38.6655 74.2175 38.9057 74.2175 38.9057 74.2175C43.7088 74.2175 48.512 71.8159 49.2324 67.4931C49.2324 67.0128 48.9923 66.2923 48.2718 66.2923H48.0316H44.6694C44.1891 66.2923 43.4686 66.5324 43.2285 67.0128C42.2679 68.4537 40.5868 69.4143 38.6655 69.1742C35.7836 69.1742 33.6222 67.0128 33.382 64.1309H48.0316C48.9923 64.1309 49.9529 63.6506 49.9529 62.6899C49.9529 62.4498 49.9529 62.4498 49.9529 62.2096C50.1931 56.4458 46.8309 50.4419 38.9057 50.4419ZM38.9057 55.2451C41.5474 55.0049 43.949 56.9262 44.1891 59.5679H33.6222C33.8623 57.1663 36.2639 55.2451 38.9057 55.2451Z" fill="white"/>
<path fill-rule="evenodd" clip-rule="evenodd" d="M105.429 50.4419C99.1851 50.4419 94.1418 55.245 94.1418 61.4891C94.1418 61.7293 94.1418 61.9695 94.1418 62.2096C93.9016 68.4537 98.7048 73.9773 104.949 74.2175C105.189 74.2175 105.429 74.2175 105.429 74.2175C110.232 74.2175 115.036 71.8159 115.756 67.4931C115.756 67.0128 115.516 66.2923 114.795 66.2923H114.555H111.433C110.953 66.2923 110.232 66.5324 109.992 67.0128C109.032 68.4537 107.35 69.4143 105.429 69.1742C102.547 69.1742 100.386 67.0128 100.146 64.1309H114.795C115.756 64.1309 116.717 63.6506 116.717 62.6899C116.717 62.4498 116.717 62.4498 116.717 62.2096C116.717 56.4458 113.354 50.4419 105.429 50.4419ZM105.429 55.2451C108.071 55.2451 110.232 57.1663 110.713 59.808H100.386C100.626 57.1663 102.787 55.2451 105.429 55.2451Z" fill="white"/>
<path fill-rule="evenodd" clip-rule="evenodd" d="M68.6851 43.2366H21.374C20.4134 43.2366 19.4528 44.1972 19.4528 45.1578L19.6929 63.65L8.88583 44.1972C8.16535 42.9964 6.96457 42.5161 5.76378 42.5161H1.92126C0.960628 42.5161 0 43.4767 0 44.4374V71.8153C0 72.776 0.960628 73.7366 1.92126 73.7366H4.32283C5.28346 73.7366 6.2441 72.776 6.2441 71.8153L6.00394 52.6027C6.00394 52.6027 16.3307 71.0949 16.811 71.8153C17.5315 73.0161 18.4921 73.4964 19.9331 73.4964H23.5354C24.4961 73.4964 25.4567 72.5358 25.4567 71.5752V47.5594H68.6851C69.4055 47.5594 69.8858 47.0791 69.8858 46.3586V44.4374C69.8858 43.4767 69.4055 42.9964 68.6851 43.2366Z" fill="white"/>
<path fill-rule="evenodd" clip-rule="evenodd" d="M60.9999 55.0048C62.6811 54.7647 64.3622 55.4851 65.0826 56.9261C65.3228 57.6465 65.8031 57.6465 66.5236 57.6465H69.4055C69.8858 57.6465 70.3661 57.1662 70.6063 56.6859C70.6063 56.6859 70.6063 56.6859 70.6063 56.4458C70.6063 53.0836 66.7637 50.2017 60.9999 50.2017C55.2362 50.2017 51.3936 52.8434 51.3936 57.4064C51.3936 60.7686 54.0354 62.6899 57.3976 63.6505L62.6811 64.8513C63.8818 65.0914 65.0826 65.5717 65.0826 66.7725C65.0826 68.6938 63.1614 69.1741 61.2401 69.1741C59.559 69.4143 57.6377 68.4536 56.9173 67.0127C56.437 66.2922 55.7165 66.2922 54.996 66.2922H52.1141C51.6338 66.2922 51.1535 66.7725 50.9133 67.493V67.9733C50.9133 71.0954 55.2362 74.4576 60.9999 74.4576C65.0826 74.4576 71.0866 72.7765 71.0866 67.0127C71.0866 63.8906 68.685 61.0087 65.3228 60.5284L60.0393 59.0875C58.8385 58.8473 57.6377 58.367 57.6377 57.1662C57.6377 55.4851 59.0787 55.0048 60.9999 55.0048Z" fill="white"/>
<path fill-rule="evenodd" clip-rule="evenodd" d="M92.2206 44.6782C92.2206 43.7175 91.5001 42.9971 90.5395 42.9971H87.8978C86.9371 42.9971 86.2167 43.7175 86.2167 44.6782V72.0561C86.2167 73.0168 86.9371 73.7372 87.8978 73.7372H90.5395C91.5001 73.7372 92.2206 73.0168 92.2206 72.0561V44.6782Z" fill="#005BA5"/>
<path fill-rule="evenodd" clip-rule="evenodd" d="M95.5828 45.398V46.5988C95.5828 47.0791 96.0631 47.5594 96.5434 47.5594H114.555C115.276 47.5594 115.996 46.8389 115.996 46.1185V43.9571C115.996 43.2366 115.516 42.5161 114.555 42.5161L96.5434 44.1972C96.0631 44.1972 95.5828 44.6775 95.5828 45.398Z" fill="#005BA5"/>
<path fill-rule="evenodd" clip-rule="evenodd" d="M80.933 73.7372C76.8503 73.7372 73.7283 70.6152 73.7283 66.5325V55.4853H72.5275C71.807 55.4853 71.3267 55.0049 71.0865 54.2845V54.0443V52.1231C71.0865 51.4026 71.5669 50.9223 72.2873 50.9223H73.4881V44.6782C73.4881 43.7175 74.2086 42.9971 75.1692 42.9971H77.5708C78.5314 42.9971 79.2519 43.7175 79.2519 44.6782V51.4026H83.3346C84.0551 51.4026 84.5354 51.8829 84.5354 52.6034V54.2845C84.5354 55.0049 84.0551 55.4853 83.3346 55.4853H79.4921V65.5719C79.2519 67.253 80.6929 68.6939 82.374 68.9341C82.6141 68.9341 82.6141 68.9341 82.8543 68.9341H83.3346C84.0551 68.9341 84.7755 69.6546 84.7755 70.375V72.2963C84.7755 73.0168 84.0551 73.7372 83.3346 73.7372H80.933Z" fill="#005BA5"/>
<path fill-rule="evenodd" clip-rule="evenodd" d="M50.1931 62.2096C50.1931 56.4458 46.8309 50.4419 38.9057 50.4419C32.6616 50.4419 27.6182 55.245 27.6182 61.4891C27.6182 61.7293 27.6182 61.9695 27.6182 62.2096C27.3781 68.4537 32.1812 73.9773 38.4253 74.2175C38.6655 74.2175 38.9057 74.2175 38.9057 74.2175C43.7088 74.2175 48.512 71.8159 49.2324 67.4931C49.2324 67.0128 48.9923 66.2923 48.2718 66.2923H48.0316H44.6694C44.1891 66.2923 43.4686 66.5324 43.2285 67.0128C42.2679 68.4537 40.5868 69.4143 38.6655 69.1742C35.7836 69.1742 33.6222 67.0128 33.382 64.1309H48.0316C48.9923 64.1309 49.9529 63.6506 49.9529 62.6899C50.1931 62.4498 50.1931 62.4498 50.1931 62.2096ZM33.6222 59.808C34.1025 56.9261 36.7442 55.0049 39.6261 55.2451C42.0277 55.4852 43.7088 57.4065 44.1891 59.808H33.6222Z" fill="#005BA5"/>
<path fill-rule="evenodd" clip-rule="evenodd" d="M116.717 62.2096C116.717 56.4458 113.354 50.4419 105.429 50.4419C99.1851 50.4419 94.1418 55.245 94.1418 61.4891C94.1418 61.7293 94.1418 61.9695 94.1418 62.2096C93.9016 68.4537 98.7048 73.9773 104.949 74.2175C105.189 74.2175 105.429 74.2175 105.429 74.2175C110.232 74.2175 115.036 71.8159 115.756 67.4931C115.756 67.0128 115.516 66.2923 114.795 66.2923H114.555H111.433C110.953 66.2923 110.232 66.5324 109.992 67.0128C109.032 68.4537 107.35 69.4143 105.429 69.1742C102.547 69.1742 100.386 67.0128 100.146 64.1309H114.795C115.756 64.1309 116.717 63.6506 116.717 62.6899C116.717 62.4498 116.717 62.4498 116.717 62.2096ZM100.146 59.808C100.626 56.9261 103.268 55.0049 106.15 55.2451C108.551 55.4852 110.232 57.4065 110.713 59.808H100.146Z" fill="#005BA5"/>
<path fill-rule="evenodd" clip-rule="evenodd" d="M68.6851 43.2366H21.374C20.4134 43.2366 19.4528 44.1972 19.4528 45.1578L19.6929 63.65L8.88583 44.1972C8.16535 42.9964 6.96457 42.5161 5.76378 42.5161H1.92126C0.960628 42.5161 0 43.4767 0 44.4374V71.8153C0 72.776 0.960628 73.7366 1.92126 73.7366H4.32283C5.28346 73.7366 6.2441 72.776 6.2441 71.8153L6.00394 52.6027C6.00394 52.6027 16.3307 71.0949 16.811 71.8153C17.5315 73.0161 18.4921 73.4964 19.9331 73.4964H23.5354C24.4961 73.4964 25.4567 72.5358 25.4567 71.5752V47.5594H68.6851C69.4055 47.5594 69.8858 47.0791 69.8858 46.3586V44.4374C69.8858 43.4767 69.4055 42.9964 68.6851 43.2366Z" fill="#005BA5"/>
<path fill-rule="evenodd" clip-rule="evenodd" d="M60.9999 55.0048C62.6811 54.7647 64.3622 55.4851 65.0826 56.9261C65.3228 57.6465 65.8031 57.6465 66.5236 57.6465H69.4055C69.8858 57.6465 70.3661 57.1662 70.6063 56.6859C70.6063 56.6859 70.6063 56.6859 70.6063 56.4458C70.6063 53.0836 66.7637 50.2017 60.9999 50.2017C55.2362 50.2017 51.3936 52.8434 51.3936 57.4064C51.3936 60.7686 54.0354 62.6899 57.3976 63.6505L62.6811 64.8513C63.8818 65.0914 65.0826 65.5717 65.0826 66.7725C65.0826 68.6938 63.1614 69.1741 61.2401 69.1741C59.559 69.4143 57.6377 68.4536 56.9173 67.0127C56.437 66.2922 55.7165 66.2922 54.996 66.2922H52.1141C51.6338 66.2922 51.1535 66.7725 50.9133 67.493V67.9733C50.9133 71.0954 55.2362 74.4576 60.9999 74.4576C65.0826 74.4576 71.0866 72.7765 71.0866 67.0127C71.0866 63.8906 68.685 61.0087 65.3228 60.5284L60.0393 59.0875C58.8385 58.8473 57.6377 58.367 57.6377 57.1662C57.6377 55.4851 59.0787 55.0048 60.9999 55.0048Z" fill="#005BA5"/>
<path fill-rule="evenodd" clip-rule="evenodd" d="M118.638 72.5362H117.917V69.6543H119.118C119.839 69.6543 120.319 69.8945 120.319 70.615C120.319 71.0953 120.079 71.3354 119.839 71.3354C119.839 71.3354 119.839 71.3354 119.599 71.3354L120.319 72.5362H119.599L118.878 71.3354H118.638V72.5362ZM119.118 70.8551C119.358 70.8551 119.599 70.8551 119.599 70.3748C119.599 69.8945 119.358 70.1346 119.118 70.1346H118.638V70.8551H119.118ZM119.118 73.9772C117.677 73.9772 116.236 72.7764 116.236 71.0953C116.236 69.6543 117.437 68.2134 119.118 68.2134C120.559 68.2134 122 69.4142 122 71.0953C122 72.5362 120.799 73.737 119.118 73.9772C119.358 73.9772 119.358 73.9772 119.118 73.9772ZM119.118 69.174C117.917 69.174 116.957 70.1346 116.957 71.3354C116.957 72.5362 117.917 73.4968 119.118 73.4968C120.319 73.4968 121.28 72.5362 121.28 71.3354C121.28 70.1346 120.319 69.174 119.118 69.174Z" fill="#005BA5"/>
</svg>
