<svg width="172" height="61" viewBox="0 0 172 61" fill="none" xmlns="http://www.w3.org/2000/svg">
<path d="M171.152 17.812C168.712 7.32001 157.488 0 145.044 0C141.872 0 138.7 0.487996 135.528 1.464C134.796 1.708 134.064 1.952 133.576 2.196C132.844 2.44 132.112 2.928 131.38 2.928L130.404 2.196C129.672 1.708 128.696 1.22 127.72 0.731998C126.012 0.243998 124.304 0 122.596 0C120.644 0 118.448 0.243996 116.496 0.243996L112.592 1.22C111.616 1.22 110.64 1.22 109.664 1.22C106.248 1.22 102.832 1.464 99.4162 2.196C98.6842 2.44 97.9522 2.684 97.2202 2.928C96.7322 3.172 96.2442 3.416 95.7562 3.66C94.5362 3.66 93.5602 3.66 92.5842 3.416C91.3642 3.172 89.9002 2.928 88.6802 2.928C82.0922 3.172 75.7482 3.90399 69.1602 5.36799C68.1842 5.61199 66.9642 5.856 65.9882 5.856L64.0362 6.1C60.6202 6.588 56.7162 7.07599 54.5202 10.248H53.3002C53.0562 10.248 52.5682 10.248 52.3242 10.248C51.3482 10.004 50.3722 10.004 49.6402 9.516C48.6642 9.272 47.4442 8.784 46.4682 8.784C43.7842 8.296 41.1002 8.05201 38.4162 8.05201C31.8282 8.05201 25.2402 9.272 19.1402 11.956C13.5282 14.152 6.20818 17.812 4.01218 24.888C-1.84382 31.964 0.108185 45.384 4.50019 51.484C8.89219 57.584 16.4562 61 26.7042 61C34.7562 61 42.8082 59.048 50.1282 55.632C55.0082 53.436 59.4002 50.264 62.8162 46.36C63.5482 47.092 64.5242 47.824 65.7442 48.068C66.7202 48.312 67.9402 48.556 68.9162 48.556C70.8682 48.556 72.8202 48.312 74.5282 47.824C75.2602 47.58 75.9922 47.58 76.7242 47.336L78.1882 47.092C80.1402 46.848 81.8482 46.36 83.5562 45.384C84.5322 44.652 85.5082 43.92 86.2402 42.7C86.2402 42.456 86.4842 42.212 86.7282 41.968C86.9722 41.968 87.2162 42.212 87.4602 42.456C88.6802 43.432 89.9002 43.92 91.3642 44.164C91.6082 44.164 92.0962 44.164 92.3402 44.164C93.8042 44.164 95.5122 43.92 96.9762 43.432C97.7082 43.432 98.6842 43.188 99.4162 42.944L102.1 42.7C103.564 42.456 105.272 42.212 106.736 41.968C107.468 41.724 108.2 41.48 108.932 41.236L109.42 40.992H109.908C110.396 40.992 110.884 40.992 111.372 40.992C114.544 40.748 117.96 40.26 121.132 39.772C122.596 39.528 124.304 39.284 125.768 39.04C127.232 38.796 128.452 38.796 129.916 38.552C131.868 38.308 134.064 38.064 136.26 37.82C136.992 37.82 137.48 37.576 138.212 37.088C138.456 37.088 138.7 37.088 138.7 36.844C138.944 36.844 139.188 36.844 139.432 36.844C140.408 36.6 141.14 35.868 141.628 35.136C142.116 35.136 142.36 35.38 142.848 35.624L145.044 36.356C147.728 37.088 150.168 37.332 152.852 37.332C157.244 37.576 161.392 36.356 165.052 33.916C167.004 33.428 168.468 32.208 169.688 30.5C171.64 26.352 172.128 21.96 171.152 17.812Z" fill="#51C4F1"/>
<path d="M138.944 32.4521C137.968 33.4281 136.992 33.9161 135.772 33.9161C132.112 34.6481 128.696 34.6481 125.28 35.1361C120.644 35.8681 115.764 36.8441 111.128 37.0881C110.396 37.0881 109.42 37.0881 108.688 37.0881C107.956 37.3321 106.98 38.0641 106.004 38.3081C104.052 38.7961 101.368 39.0401 98.9281 39.2841C96.4881 39.7721 94.2921 40.2601 91.8521 40.2601C89.9001 40.0161 88.1921 37.8201 86.2401 37.8201C84.2881 37.8201 83.8001 40.7481 82.3361 41.7241C80.3841 42.4561 78.1881 42.9441 76.2361 43.1881C73.0641 43.9201 69.8921 45.1401 66.7201 44.1641C65.0121 43.6761 62.5721 39.2841 60.6201 42.9441C57.2041 46.6041 53.3001 49.5321 48.6641 51.7281C36.9521 57.5841 14.9921 60.5121 6.94012 48.8001C3.28012 43.9201 1.57212 31.2321 6.69612 25.8641C8.16012 20.0081 14.5041 16.5921 20.3601 14.1521C28.4121 10.7361 37.4401 9.76011 46.2241 11.2241C48.4201 11.4681 50.3721 12.4441 52.3241 12.6881C53.7881 12.6881 55.2521 12.2001 56.4721 13.1761C57.9361 8.78412 61.8401 9.02813 66.9641 8.05213C74.2841 6.34413 81.6041 5.61211 88.9241 5.36811C91.3641 5.36811 94.0481 6.34412 96.2441 6.10012C97.7081 5.61212 98.9281 5.12412 100.392 4.63612C104.54 3.90412 108.688 3.66012 112.836 3.66012C117.716 3.41612 123.328 2.44012 126.988 3.41612C128.452 3.90412 129.916 5.36812 131.38 5.61213C132.844 5.85613 135.284 4.14811 136.748 3.90411C150.412 -0.487886 165.54 6.58812 168.468 18.0561C169.688 22.6921 168.468 29.5241 163.588 30.2561C159.928 33.6721 152.364 34.4041 145.532 32.6961C144.312 32.4521 143.092 31.9641 141.628 31.4761C140.652 31.2321 138.7 30.5001 138.944 32.4521Z" fill="#1064AD"/>
<path d="M144.068 5.12393C150.656 4.63593 157 7.07594 161.636 11.7119C163.832 14.3959 166.272 18.2999 164.32 22.6919C160.66 31.7199 143.336 29.2799 137.236 22.4479C134.796 19.7639 132.112 14.6399 133.576 10.2479C134.796 7.07593 138.7 5.12393 144.068 5.12393ZM143.092 13.4199C142.36 16.5919 145.288 19.5199 147.24 20.7399C150.168 22.6919 155.78 22.6919 156.268 19.0319C157 14.1519 150.9 9.27194 146.264 10.4919C144.8 10.7359 143.336 11.9559 143.092 13.4199ZM129.672 10.7359C127.476 10.9799 125.036 10.9799 122.596 11.2239C120.4 11.2239 117.96 11.4679 115.764 11.9559C115.764 13.1759 116.496 14.1519 117.228 14.8839C120.888 14.3959 124.792 14.3959 128.696 14.3959C129.672 15.8599 130.404 17.5679 130.892 19.2759C127.964 20.7399 122.596 19.5199 119.424 20.9839C119.424 22.2039 119.912 23.1799 120.644 24.1559C125.524 24.1559 129.916 22.6919 134.552 23.1799C135.772 24.6439 136.504 26.3519 136.748 28.3039C135.284 29.2799 132.844 29.0359 130.404 29.5239C124.06 30.2559 116.496 31.7199 110.152 31.9639C108.932 30.2559 107.956 28.3039 107.712 26.1079C105.76 20.0079 103.32 13.6639 101.368 7.31993C104.784 6.34393 108.444 6.09993 112.104 6.09993C117.228 5.61193 122.352 5.61194 127.476 5.61194C128.94 7.07594 129.672 8.78394 129.672 10.7359ZM96.2442 21.4719C98.9282 24.1559 101.856 26.5959 104.54 29.0359C105.516 29.7679 106.736 30.7439 106.98 31.9639C104.784 32.9399 102.588 33.4279 100.148 33.4279C97.9522 34.1599 95.5122 34.4039 93.3162 34.4039C92.0962 34.1599 90.8762 32.4519 89.6562 31.2319C86.4842 27.8159 82.5802 24.1559 79.8962 20.7399C82.8242 19.7639 87.4602 20.2519 87.9482 17.5679C88.1922 15.8599 86.9722 14.3959 85.2642 14.1519C83.0682 13.9079 77.4562 14.6399 76.9682 15.8599C76.4802 17.0799 77.9442 19.5199 78.1882 20.9839C79.6522 26.5959 80.8722 30.7439 81.8482 36.1119C81.6042 37.3319 79.8962 37.3319 78.6762 37.3319C75.0162 38.3079 71.3562 38.7959 67.4522 38.7959C66.2322 34.6479 65.0122 30.0119 64.0362 25.3759C63.0602 20.7399 61.8402 16.1039 61.3522 11.7119C62.5722 10.4919 65.0122 10.4919 66.9642 10.2479C72.8202 9.51593 80.8722 8.29593 86.4842 7.80793C94.0482 7.31993 99.4162 8.78393 100.88 13.9079C102.1 17.8119 99.1722 20.2519 96.2442 21.4719Z" fill="white"/>
<path d="M146.264 10.492C150.9 9.51599 157 14.396 156.268 19.032C155.536 22.692 150.168 22.448 147.24 20.74C145.288 19.52 142.36 16.592 143.092 13.42C143.336 11.956 144.8 10.736 146.264 10.492Z" fill="#1064AD"/>
<path d="M39.1482 13.9076C46.7122 13.6636 53.7882 15.6156 57.4482 19.5196C59.8882 22.2036 61.1082 25.6196 61.3522 29.2796C61.5962 32.4516 60.8642 35.6236 59.1562 38.3076C54.2762 46.3596 40.8562 51.2396 29.3882 51.7276C20.1162 52.2156 12.0642 49.5316 8.89219 43.1876C5.23219 35.6236 8.89219 27.0836 13.0402 23.1796C16.2122 20.2516 20.1162 18.0556 24.0202 16.5916C28.9002 14.8836 34.0242 13.9076 39.1482 13.9076ZM25.2402 27.8156C23.7762 30.0116 23.2882 32.9396 24.0202 35.3796C26.7042 44.8956 44.2722 41.9676 45.7362 32.4516C46.4682 26.1076 41.5882 22.2036 34.7562 22.9356C30.8522 22.9356 27.4362 24.8876 25.2402 27.8156Z" fill="white"/>
<path d="M34.5123 22.6923C41.3443 21.9603 46.4683 25.8643 45.4923 32.2083C44.2723 41.9683 26.7043 44.6523 23.7763 35.1363C23.2883 32.4523 23.5323 29.7683 24.9963 27.5723C27.4363 24.8883 30.8523 22.9363 34.5123 22.6923Z" fill="#1064AD"/>
</svg>
