<svg width="148" height="71" viewBox="0 0 148 71" fill="none" xmlns="http://www.w3.org/2000/svg">
<path d="M139.621 71.0002H0.633301V11.8335H139.621V71.0002Z" fill="#004C9B"/>
<path d="M147.367 59.1667H127.788V0H147.367V59.1667Z" fill="#FFDC00"/>
<path d="M20.4273 28.3998H15.9091L15.6939 28.1846V24.0967L15.9091 23.8816H20.6424C22.3636 23.8816 23.0091 24.527 23.0091 26.0331C23.0091 27.5392 22.1485 28.3998 20.4273 28.3998ZM22.5788 30.9816C24.3 30.5513 26.2364 29.0452 26.2364 26.2483C26.2364 23.2361 24.0849 21.2998 20.6424 21.2998H12.897L12.6818 21.5149V37.6513L12.897 37.8664H15.6939L15.9091 37.6513V31.4119L16.1242 31.1967H18.7061L19.1364 31.4119L23.8697 37.6513L24.3 37.8664H25.5909L25.8061 37.6513V35.2847L22.7939 31.1967V30.9816H22.5788Z" fill="white"/>
<path d="M29.4636 42.6005C32.906 42.6005 33.7666 40.449 34.6272 38.2975L38.4999 28.8309V26.4642L38.2848 26.249H36.1333L35.9181 26.4642L33.1212 34.6399H32.906L30.109 26.4642L29.8939 26.249H27.7424L27.5272 26.4642V28.8309L31.4 38.0824V38.2975C31.1848 39.1581 30.9696 40.0187 29.6787 40.0187H28.1727L27.9575 40.2339V42.6005L28.1727 42.8157H29.4636V42.6005Z" fill="white"/>
<path d="M43.0182 30.7671C43.0182 30.1216 43.4485 28.6155 45.1697 28.6155C46.8909 28.6155 47.3212 30.1216 47.3212 30.7671L47.106 30.9822L43.0182 30.7671ZM50.7636 33.1337L50.9788 32.058C50.9788 27.5398 47.9667 26.0337 45.3848 26.0337C42.803 26.0337 39.7909 27.5398 39.7909 32.058C39.7909 34.8549 41.297 38.0822 45.6 38.0822C49.4727 38.0822 50.3333 35.5004 50.5485 34.6398L50.3333 34.4246H47.5364L47.3212 34.6398C47.106 35.0701 46.4606 35.2852 45.6 35.2852C43.6636 35.2852 43.2333 33.7792 43.2333 33.1337L43.4485 32.9186H50.7636V33.1337Z" fill="white"/>
<path d="M56.1424 27.1094L55.9272 26.2489L55.7121 26.0337H53.1302L52.9151 26.2489V37.6519L53.1302 37.867H55.9272L56.1424 37.6519V32.058C56.1424 29.9065 57.003 28.8307 58.7242 28.8307H60.4454L60.6606 28.6155V26.2489L60.4454 26.0337H58.9393C56.7878 26.0337 56.3575 27.1094 56.3575 27.1094H56.1424Z" fill="white"/>
<path d="M67.7606 30.7671C67.5454 30.7671 67.3303 30.7671 67.1151 30.7671C66.0394 30.5519 64.9636 30.5519 64.9636 29.6913C64.9636 28.8307 65.6091 28.6155 66.6848 28.6155C67.7606 28.6155 68.406 28.8307 68.406 29.4761L68.6212 29.6913H71.4181L71.6333 29.4761C71.6333 27.3246 69.6969 26.0337 66.6848 26.0337C63.6727 26.0337 61.7363 27.3246 61.7363 29.4761C61.7363 31.4125 63.2424 32.7034 66.2545 33.1337C66.4697 33.1337 66.6848 33.1337 66.6848 33.1337C67.7606 33.3489 68.6212 33.3489 68.6212 34.2095C68.6212 35.0701 67.5454 35.2852 66.6848 35.2852C65.6091 35.2852 64.7485 35.0701 64.7485 33.9943L64.5333 33.7792H61.7363L61.5212 33.9943C61.5212 36.361 63.4575 37.867 66.6848 37.867C69.2666 37.867 71.8485 36.7913 71.8485 34.2095C71.8485 31.4125 69.0515 30.9822 67.7606 30.7671Z" fill="white"/>
<path d="M78.9484 35.2851C77.2272 35.2851 76.3666 33.9942 76.3666 31.8426C76.3666 29.6911 77.4424 28.4002 78.9484 28.4002C80.4545 28.4002 81.5303 29.6911 81.5303 31.8426C81.7454 34.2093 80.6696 35.2851 78.9484 35.2851ZM78.9484 25.8184C75.2909 25.8184 73.1393 28.1851 73.1393 31.8426C73.1393 35.5002 75.506 37.8669 78.9484 37.8669C82.606 37.8669 84.7575 35.5002 84.7575 31.8426C84.7575 28.1851 82.606 25.8184 78.9484 25.8184Z" fill="white"/>
<path d="M94.6545 37.8669H97.4515L97.6666 37.6517V30.5517C97.6666 27.7547 95.9454 25.8184 93.1485 25.8184C91.8575 25.8184 90.7818 26.2487 89.9212 27.1093H89.706L89.4909 26.2487L89.2757 26.0335H86.9091L86.6939 26.2487V37.6517L86.9091 37.8669H89.706L89.9212 37.6517V31.6275C89.9212 29.476 90.7818 28.4002 92.503 28.4002C93.7939 28.4002 94.4394 29.2608 94.4394 30.5517L94.6545 37.8669Z" fill="white"/>
<path d="M25.5909 42.8148L22.5787 42.5996L22.3636 42.8148V52.7117C22.3636 55.2935 21.2878 56.5845 18.9212 56.5845C16.7696 56.5845 15.4787 55.2935 15.4787 52.7117V42.8148L15.2636 42.5996H12.4666L12.2515 42.8148V52.7117C12.2515 57.0147 14.6181 59.3814 18.9212 59.3814C23.2242 59.3814 25.5909 57.0147 25.5909 52.7117V42.8148Z" fill="white"/>
<path d="M41.5121 42.5996L41.2969 45.1814L41.5121 45.3966H44.3091L44.5242 45.1814V42.8148L44.3091 42.5996H41.5121Z" fill="white"/>
<path d="M44.3091 59.1668L44.5242 47.5487L44.3091 47.3335H41.5121L41.2969 47.5487V58.9517L41.5121 59.1668H44.3091Z" fill="white"/>
<path d="M55.2818 47.3335L52.0545 55.079H51.8394L48.8272 47.5487L48.6121 47.3335H46.4606L46.2454 47.5487V49.9153L50.3333 58.9517L50.5485 59.1668H53.1303L53.3454 58.9517L57.4333 49.9153V47.5487L57.2182 47.3335H55.2818Z" fill="white"/>
<path d="M86.6939 52.2822C86.4788 52.2822 86.2636 52.2822 86.0485 52.2822C84.9727 52.067 83.8969 52.067 83.8969 51.2064C83.8969 50.3458 84.5424 50.1307 85.6182 50.1307C86.6939 50.1307 87.3394 50.3458 87.3394 50.9913L87.5545 51.2064H90.3515L90.5667 50.9913C90.5667 48.8398 88.6303 47.5488 85.6182 47.5488C82.606 47.5488 80.6697 48.8398 80.6697 50.9913C80.6697 52.9276 82.1757 54.2186 85.1879 54.6489C85.403 54.6489 85.6182 54.6489 85.6182 54.6489C86.6939 54.864 87.5545 54.864 87.5545 55.7246C87.5545 56.5852 86.4788 56.8004 85.6182 56.8004C84.5424 56.8004 83.6818 56.5852 83.6818 55.5095L83.4667 55.2943H80.4545L80.2394 55.5095C80.2394 57.8761 82.1757 59.3822 85.403 59.3822C87.9848 59.3822 90.5667 58.3064 90.5667 55.7246C90.5667 52.9277 87.9848 52.4973 86.6939 52.2822Z" fill="white"/>
<path d="M95.5151 59.1668L95.7302 47.5487L95.5151 47.3335H92.7181L92.5029 47.5487V58.9517L92.7181 59.1668H95.5151Z" fill="white"/>
<path d="M92.7181 42.5996L92.5029 45.1814L92.7181 45.3966H95.5151L95.7302 45.1814V42.8148L95.5151 42.5996H92.7181Z" fill="white"/>
<path d="M103.476 59.1669H105.627L105.842 58.9518V56.5851L105.627 56.37H103.476C103.045 56.37 102.615 56.1548 102.615 55.5094V50.1306L102.83 49.9154H105.627L105.842 49.7002V47.3336L105.627 47.1185H102.83L102.615 46.9033V44.7518L102.4 44.5366H99.8181L99.603 44.7518V46.9033L99.3878 47.1185H97.6666L97.4515 47.3336V49.7002L97.6666 49.9154H99.3878L99.603 50.1306V55.5094C99.603 58.7366 102.4 59.1669 103.476 59.1669Z" fill="white"/>
<path d="M35.9182 59.1666H38.7152L38.9303 58.9515V51.8515C38.9303 49.0545 37.2091 47.1182 34.4121 47.1182C33.1212 47.1182 32.0455 47.5484 31.1849 48.409H30.9697L30.7546 47.5484L30.5394 47.3333H27.9576L27.7424 47.5484V58.9515L27.9576 59.1666H30.9697L31.1849 58.9515V53.1424C31.1849 50.9909 32.0455 49.9151 33.7667 49.9151C35.0576 49.9151 35.703 50.7757 35.703 52.0666L35.9182 59.1666Z" fill="white"/>
<path d="M61.9515 52.0669C61.9515 51.4214 62.3818 49.9153 64.103 49.9153C65.8242 49.9153 66.2545 51.4214 66.2545 52.0669L66.0394 52.282L61.9515 52.0669ZM69.697 54.4335L69.9121 53.3578C69.9121 48.8396 66.9 47.3335 64.3182 47.3335C61.7364 47.3335 58.7242 48.8396 58.7242 53.3578C58.7242 56.1547 60.2303 59.382 64.5333 59.382C68.4061 59.382 69.2667 56.8002 69.4818 55.9396L69.2667 55.7245H66.4697L66.2545 55.9396C66.0394 56.3699 65.3939 56.5851 64.5333 56.5851C62.597 56.5851 62.1667 55.079 62.1667 54.4335L62.3818 54.2184H69.697V54.4335Z" fill="white"/>
<path d="M74.8606 48.4093L74.6454 47.5487L74.4303 47.3335H71.8484L71.6333 47.5487V58.9517L71.8484 59.1668H74.6454L74.8606 58.9517V53.3578C74.8606 51.2063 75.7212 50.1305 77.4424 50.1305H79.1636L79.3788 49.9153V47.5487L79.1636 47.3335H77.8727C75.7212 47.3335 75.2909 48.4093 75.2909 48.4093H74.8606Z" fill="white"/>
<path d="M109.285 63.9004C112.727 63.9004 113.588 61.7488 114.448 59.5973L118.321 50.1307V47.764L118.106 47.5488H115.955L115.739 47.764L112.942 55.9397H112.727L109.93 47.764L109.715 47.5488H107.564L107.348 47.764V50.1307L111.221 59.3822V59.5973C111.006 60.4579 110.576 61.3185 109.5 61.3185H108.424L108.209 61.5337V63.9004L108.424 64.1155H109.285V63.9004Z" fill="white"/>
</svg>
