<svg width="185" height="63" viewBox="0 0 185 63" fill="none" xmlns="http://www.w3.org/2000/svg">
<path d="M106.347 34.5103C106.82 35.5426 107.057 36.7846 107.057 38.2365C107.057 40.3426 106.554 42.1476 105.549 43.6513C104.544 45.1572 103.142 46.3058 101.343 47.0992C99.5445 47.8927 97.4404 48.2873 95.029 48.2873C93.5107 48.2873 92.1045 48.1211 90.8126 47.7867C89.5207 47.4544 88.3637 47.0265 87.346 46.5073C86.3262 45.988 85.4496 45.4542 84.7185 44.9079C83.9853 44.3617 83.4058 43.8819 82.98 43.4686L86.2971 38.1119C86.7374 38.4982 87.2629 38.9302 87.8756 39.41C88.4884 39.8898 89.1738 40.3488 89.934 40.7892C90.6942 41.2295 91.5167 41.5888 92.4015 41.8692C93.2863 42.1496 94.2293 42.2888 95.2284 42.2888C96.161 42.2888 96.9835 42.1455 97.6959 41.8588C98.4083 41.5722 98.9754 41.136 99.3949 40.5503C99.8145 39.9646 100.024 39.2376 100.024 38.3715C100.024 37.5988 99.8539 36.9321 99.5154 36.3734C99.1748 35.8146 98.6825 35.312 98.0365 34.8654C97.3906 34.4189 96.5971 33.9785 95.6583 33.5465C94.7195 33.1145 93.6498 32.6368 92.4514 32.1175C91.5582 31.7187 90.7087 31.2618 89.9028 30.7487C89.0969 30.2357 88.3804 29.6396 87.7552 28.9604C87.1279 28.2812 86.6336 27.5106 86.2659 26.6528C85.9004 25.7929 85.7155 24.8312 85.7155 23.7657C85.7155 22.5008 85.9689 21.2878 86.4757 20.1288C86.9825 18.9698 87.7053 17.9375 88.6441 17.0319C89.583 16.1263 90.7025 15.4077 92.0006 14.8739C93.2988 14.3422 94.7423 14.0742 96.3271 14.0742C97.5256 14.0742 98.7261 14.2342 99.9246 14.554C101.123 14.8739 102.247 15.2934 103.291 15.8127C104.336 16.332 105.219 16.899 105.94 17.5117L103.242 22.588C102.668 22.1082 102.018 21.6679 101.293 21.2691C100.566 20.8703 99.7937 20.5504 98.9754 20.3095C98.157 20.0706 97.3262 19.9502 96.4871 19.9502C95.5399 19.9502 94.7382 20.1163 94.0798 20.4507C93.4193 20.7831 92.9166 21.2276 92.5718 21.7801C92.225 22.3325 92.0526 22.9494 92.0526 23.6286C92.0526 24.1749 92.1647 24.6443 92.3932 25.0369C92.6196 25.4294 92.9457 25.7721 93.3715 26.0671C93.7973 26.3599 94.3103 26.6362 94.9106 26.8958C95.5109 27.1554 96.1693 27.4317 96.89 27.7246C98.4353 28.3767 99.8332 29.0227 101.086 29.6624C102.338 30.3022 103.41 31.0104 104.303 31.7914C105.196 32.5703 105.877 33.4759 106.351 34.5082L106.347 34.5103Z" fill="white"/>
<path d="M106.347 34.5103C106.82 35.5426 107.057 36.7846 107.057 38.2365C107.057 40.3426 106.554 42.1476 105.549 43.6513C104.544 45.1572 103.142 46.3058 101.343 47.0992C99.5445 47.8927 97.4404 48.2873 95.029 48.2873C93.5107 48.2873 92.1045 48.1211 90.8126 47.7867C89.5207 47.4544 88.3637 47.0265 87.346 46.5073C86.3262 45.988 85.4496 45.4542 84.7185 44.9079C83.9853 44.3617 83.4058 43.8819 82.98 43.4686L86.2971 38.1119C86.7374 38.4982 87.2629 38.9302 87.8756 39.41C88.4884 39.8898 89.1738 40.3488 89.934 40.7892C90.6942 41.2295 91.5167 41.5888 92.4015 41.8692C93.2863 42.1496 94.2293 42.2888 95.2284 42.2888C96.161 42.2888 96.9835 42.1455 97.6959 41.8588C98.4083 41.5722 98.9754 41.136 99.3949 40.5503C99.8145 39.9646 100.024 39.2376 100.024 38.3715C100.024 37.5988 99.8539 36.9321 99.5154 36.3734C99.1748 35.8146 98.6825 35.312 98.0365 34.8654C97.3906 34.4189 96.5971 33.9785 95.6583 33.5465C94.7195 33.1145 93.6498 32.6368 92.4514 32.1175C91.5582 31.7187 90.7087 31.2618 89.9028 30.7487C89.0969 30.2357 88.3804 29.6396 87.7552 28.9604C87.1279 28.2812 86.6336 27.5106 86.2659 26.6528C85.9004 25.7929 85.7155 24.8312 85.7155 23.7657C85.7155 22.5008 85.9689 21.2878 86.4757 20.1288C86.9825 18.9698 87.7053 17.9375 88.6441 17.0319C89.583 16.1263 90.7025 15.4077 92.0006 14.8739C93.2988 14.3422 94.7423 14.0742 96.3271 14.0742C97.5256 14.0742 98.7261 14.2342 99.9246 14.554C101.123 14.8739 102.247 15.2934 103.291 15.8127C104.336 16.332 105.219 16.899 105.94 17.5117L103.242 22.588C102.668 22.1082 102.018 21.6679 101.293 21.2691C100.566 20.8703 99.7937 20.5504 98.9754 20.3095C98.157 20.0706 97.3262 19.9502 96.4871 19.9502C95.5399 19.9502 94.7382 20.1163 94.0798 20.4507C93.4193 20.7831 92.9166 21.2276 92.5718 21.7801C92.225 22.3325 92.0526 22.9494 92.0526 23.6286C92.0526 24.1749 92.1647 24.6443 92.3932 25.0369C92.6196 25.4294 92.9457 25.7721 93.3715 26.0671C93.7973 26.3599 94.3103 26.6362 94.9106 26.8958C95.5109 27.1554 96.1693 27.4317 96.89 27.7246C98.4353 28.3767 99.8332 29.0227 101.086 29.6624C102.338 30.3022 103.41 31.0104 104.303 31.7914C105.196 32.5703 105.877 33.4759 106.351 34.5082L106.347 34.5103Z" fill="white"/>
<path d="M106.347 34.5103C106.82 35.5426 107.057 36.7846 107.057 38.2365C107.057 40.3426 106.554 42.1476 105.549 43.6513C104.544 45.1572 103.142 46.3058 101.343 47.0992C99.5445 47.8927 97.4404 48.2873 95.029 48.2873C93.5107 48.2873 92.1045 48.1211 90.8126 47.7867C89.5207 47.4544 88.3637 47.0265 87.346 46.5073C86.3262 45.988 85.4496 45.4542 84.7185 44.9079C83.9853 44.3617 83.4058 43.8819 82.98 43.4686L86.2971 38.1119C86.7374 38.4982 87.2629 38.9302 87.8756 39.41C88.4884 39.8898 89.1738 40.3488 89.934 40.7892C90.6942 41.2295 91.5167 41.5888 92.4015 41.8692C93.2863 42.1496 94.2293 42.2888 95.2284 42.2888C96.161 42.2888 96.9835 42.1455 97.6959 41.8588C98.4083 41.5722 98.9754 41.136 99.3949 40.5503C99.8145 39.9646 100.024 39.2376 100.024 38.3715C100.024 37.5988 99.8539 36.9321 99.5154 36.3734C99.1748 35.8146 98.6825 35.312 98.0365 34.8654C97.3906 34.4189 96.5971 33.9785 95.6583 33.5465C94.7195 33.1145 93.6498 32.6368 92.4514 32.1175C91.5582 31.7187 90.7087 31.2618 89.9028 30.7487C89.0969 30.2357 88.3804 29.6396 87.7552 28.9604C87.1279 28.2812 86.6336 27.5106 86.2659 26.6528C85.9004 25.7929 85.7155 24.8312 85.7155 23.7657C85.7155 22.5008 85.9689 21.2878 86.4757 20.1288C86.9825 18.9698 87.7053 17.9375 88.6441 17.0319C89.583 16.1263 90.7025 15.4077 92.0006 14.8739C93.2988 14.3422 94.7423 14.0742 96.3271 14.0742C97.5256 14.0742 98.7261 14.2342 99.9246 14.554C101.123 14.8739 102.247 15.2934 103.291 15.8127C104.336 16.332 105.219 16.899 105.94 17.5117L103.242 22.588C102.668 22.1082 102.018 21.6679 101.293 21.2691C100.566 20.8703 99.7937 20.5504 98.9754 20.3095C98.157 20.0706 97.3262 19.9502 96.4871 19.9502C95.5399 19.9502 94.7382 20.1163 94.0798 20.4507C93.4193 20.7831 92.9166 21.2276 92.5718 21.7801C92.225 22.3325 92.0526 22.9494 92.0526 23.6286C92.0526 24.1749 92.1647 24.6443 92.3932 25.0369C92.6196 25.4294 92.9457 25.7721 93.3715 26.0671C93.7973 26.3599 94.3103 26.6362 94.9106 26.8958C95.5109 27.1554 96.1693 27.4317 96.89 27.7246C98.4353 28.3767 99.8332 29.0227 101.086 29.6624C102.338 30.3022 103.41 31.0104 104.303 31.7914C105.196 32.5703 105.877 33.4759 106.351 34.5082L106.347 34.5103Z" fill="white"/>
<path fill-rule="evenodd" clip-rule="evenodd" d="M132.085 31.8418C132.972 33.4805 133.415 35.3395 133.415 37.4165C133.415 39.4811 132.974 41.3338 132.096 42.9726C131.217 44.6114 130.017 45.9075 128.498 46.8588C126.98 47.8121 125.26 48.2878 123.343 48.2878C121.931 48.2878 120.608 47.997 119.376 47.4175C118.144 46.838 117.068 46.0155 116.148 44.95V58.0395H109.994V27.185H116.148V29.6837C116.975 28.6846 117.999 27.912 119.226 27.3657C120.452 26.8195 121.777 26.5474 123.204 26.5474C125.163 26.5474 126.912 27.0209 128.451 27.966C129.99 28.9131 131.203 30.205 132.088 31.8438L132.085 31.8418ZM126.959 37.4373C126.959 36.3448 126.72 35.3727 126.241 34.5191C125.761 33.6675 125.115 32.9945 124.303 32.5002C123.491 32.0079 122.558 31.7607 121.505 31.7607C120.452 31.7607 119.509 32.0079 118.676 32.5002C117.843 32.9924 117.191 33.6633 116.717 34.5087C116.244 35.354 116.007 36.3302 116.007 37.4373C116.007 38.5298 116.244 39.5019 116.717 40.3556C117.191 41.2092 117.839 41.8739 118.666 42.3537C119.492 42.8335 120.431 43.0723 121.484 43.0723C122.55 43.0723 123.495 42.8335 124.321 42.3537C125.148 41.8739 125.794 41.2071 126.259 40.3556C126.725 39.504 126.959 38.5298 126.959 37.4373Z" fill="white"/>
<path fill-rule="evenodd" clip-rule="evenodd" d="M132.085 31.8418C132.972 33.4805 133.415 35.3395 133.415 37.4165C133.415 39.4811 132.974 41.3338 132.096 42.9726C131.217 44.6114 130.017 45.9075 128.498 46.8588C126.98 47.8121 125.26 48.2878 123.343 48.2878C121.931 48.2878 120.608 47.997 119.376 47.4175C118.144 46.838 117.068 46.0155 116.148 44.95V58.0395H109.994V27.185H116.148V29.6837C116.975 28.6846 117.999 27.912 119.226 27.3657C120.452 26.8195 121.777 26.5474 123.204 26.5474C125.163 26.5474 126.912 27.0209 128.451 27.966C129.99 28.9131 131.203 30.205 132.088 31.8438L132.085 31.8418ZM126.959 37.4373C126.959 36.3448 126.72 35.3727 126.241 34.5191C125.761 33.6675 125.115 32.9945 124.303 32.5002C123.491 32.0079 122.558 31.7607 121.505 31.7607C120.452 31.7607 119.509 32.0079 118.676 32.5002C117.843 32.9924 117.191 33.6633 116.717 34.5087C116.244 35.354 116.007 36.3302 116.007 37.4373C116.007 38.5298 116.244 39.5019 116.717 40.3556C117.191 41.2092 117.839 41.8739 118.666 42.3537C119.492 42.8335 120.431 43.0723 121.484 43.0723C122.55 43.0723 123.495 42.8335 124.321 42.3537C125.148 41.8739 125.794 41.2071 126.259 40.3556C126.725 39.504 126.959 38.5298 126.959 37.4373Z" fill="white"/>
<path fill-rule="evenodd" clip-rule="evenodd" d="M132.085 31.8418C132.972 33.4805 133.415 35.3395 133.415 37.4165C133.415 39.4811 132.974 41.3338 132.096 42.9726C131.217 44.6114 130.017 45.9075 128.498 46.8588C126.98 47.8121 125.26 48.2878 123.343 48.2878C121.931 48.2878 120.608 47.997 119.376 47.4175C118.144 46.838 117.068 46.0155 116.148 44.95V58.0395H109.994V27.185H116.148V29.6837C116.975 28.6846 117.999 27.912 119.226 27.3657C120.452 26.8195 121.777 26.5474 123.204 26.5474C125.163 26.5474 126.912 27.0209 128.451 27.966C129.99 28.9131 131.203 30.205 132.088 31.8438L132.085 31.8418ZM126.959 37.4373C126.959 36.3448 126.72 35.3727 126.241 34.5191C125.761 33.6675 125.115 32.9945 124.303 32.5002C123.491 32.0079 122.558 31.7607 121.505 31.7607C120.452 31.7607 119.509 32.0079 118.676 32.5002C117.843 32.9924 117.191 33.6633 116.717 34.5087C116.244 35.354 116.007 36.3302 116.007 37.4373C116.007 38.5298 116.244 39.5019 116.717 40.3556C117.191 41.2092 117.839 41.8739 118.666 42.3537C119.492 42.8335 120.431 43.0723 121.484 43.0723C122.55 43.0723 123.495 42.8335 124.321 42.3537C125.148 41.8739 125.794 41.2071 126.259 40.3556C126.725 39.504 126.959 38.5298 126.959 37.4373Z" fill="white"/>
<path fill-rule="evenodd" clip-rule="evenodd" d="M153.558 27.1867H159.694V47.6498H153.558V44.9517C152.625 46.0172 151.554 46.8397 150.341 47.4192C149.128 47.9987 147.815 48.2895 146.405 48.2895C144.527 48.2895 142.818 47.8201 141.279 46.8813C139.739 45.9424 138.52 44.6505 137.621 43.0034C136.721 41.3584 136.273 39.4891 136.273 37.3975C136.273 35.3329 136.709 33.4843 137.581 31.8518C138.454 30.2192 139.652 28.9273 141.179 27.9739C142.703 27.0206 144.446 26.5449 146.405 26.5449C147.857 26.5449 149.213 26.8212 150.471 27.3737C151.73 27.9262 152.76 28.6967 153.558 29.6813V27.1826V27.1867ZM153.697 37.4183C153.697 36.3257 153.46 35.3537 152.987 34.5C152.513 33.6484 151.867 32.9775 151.049 32.4915C150.228 32.0055 149.288 31.7625 148.222 31.7625C147.169 31.7625 146.23 32.0055 145.404 32.4915C144.577 32.9775 143.925 33.6484 143.445 34.5C142.965 35.3537 142.726 36.3257 142.726 37.4183C142.726 38.4983 142.963 39.4641 143.434 40.3157C143.908 41.1694 144.56 41.8424 145.393 42.3346C146.226 42.8269 147.169 43.074 148.222 43.074C149.288 43.074 150.231 42.831 151.049 42.345C151.869 41.859 152.513 41.1902 152.987 40.3365C153.46 39.4849 153.697 38.5108 153.697 37.4183Z" fill="white"/>
<path fill-rule="evenodd" clip-rule="evenodd" d="M153.558 27.1867H159.694V47.6498H153.558V44.9517C152.625 46.0172 151.554 46.8397 150.341 47.4192C149.128 47.9987 147.815 48.2895 146.405 48.2895C144.527 48.2895 142.818 47.8201 141.279 46.8813C139.739 45.9424 138.52 44.6505 137.621 43.0034C136.721 41.3584 136.273 39.4891 136.273 37.3975C136.273 35.3329 136.709 33.4843 137.581 31.8518C138.454 30.2192 139.652 28.9273 141.179 27.9739C142.703 27.0206 144.446 26.5449 146.405 26.5449C147.857 26.5449 149.213 26.8212 150.471 27.3737C151.73 27.9262 152.76 28.6967 153.558 29.6813V27.1826V27.1867ZM153.697 37.4183C153.697 36.3257 153.46 35.3537 152.987 34.5C152.513 33.6484 151.867 32.9775 151.049 32.4915C150.228 32.0055 149.288 31.7625 148.222 31.7625C147.169 31.7625 146.23 32.0055 145.404 32.4915C144.577 32.9775 143.925 33.6484 143.445 34.5C142.965 35.3537 142.726 36.3257 142.726 37.4183C142.726 38.4983 142.963 39.4641 143.434 40.3157C143.908 41.1694 144.56 41.8424 145.393 42.3346C146.226 42.8269 147.169 43.074 148.222 43.074C149.288 43.074 150.231 42.831 151.049 42.345C151.869 41.859 152.513 41.1902 152.987 40.3365C153.46 39.4849 153.697 38.5108 153.697 37.4183Z" fill="white"/>
<path fill-rule="evenodd" clip-rule="evenodd" d="M153.558 27.1867H159.694V47.6498H153.558V44.9517C152.625 46.0172 151.554 46.8397 150.341 47.4192C149.128 47.9987 147.815 48.2895 146.405 48.2895C144.527 48.2895 142.818 47.8201 141.279 46.8813C139.739 45.9424 138.52 44.6505 137.621 43.0034C136.721 41.3584 136.273 39.4891 136.273 37.3975C136.273 35.3329 136.709 33.4843 137.581 31.8518C138.454 30.2192 139.652 28.9273 141.179 27.9739C142.703 27.0206 144.446 26.5449 146.405 26.5449C147.857 26.5449 149.213 26.8212 150.471 27.3737C151.73 27.9262 152.76 28.6967 153.558 29.6813V27.1826V27.1867ZM153.697 37.4183C153.697 36.3257 153.46 35.3537 152.987 34.5C152.513 33.6484 151.867 32.9775 151.049 32.4915C150.228 32.0055 149.288 31.7625 148.222 31.7625C147.169 31.7625 146.23 32.0055 145.404 32.4915C144.577 32.9775 143.925 33.6484 143.445 34.5C142.965 35.3537 142.726 36.3257 142.726 37.4183C142.726 38.4983 142.963 39.4641 143.434 40.3157C143.908 41.1694 144.56 41.8424 145.393 42.3346C146.226 42.8269 147.169 43.074 148.222 43.074C149.288 43.074 150.231 42.831 151.049 42.345C151.869 41.859 152.513 41.1902 152.987 40.3365C153.46 39.4849 153.697 38.5108 153.697 37.4183Z" fill="white"/>
<path d="M184.672 34.6991V47.6495H178.537V35.9994C178.537 34.533 178.154 33.3906 177.388 32.5723C176.622 31.7539 175.573 31.3426 174.241 31.3426C173.336 31.3426 172.555 31.5254 171.902 31.8931C171.25 32.2607 170.743 32.7592 170.384 33.3927C170.025 34.0262 169.844 34.7407 169.844 35.5404V47.6516H163.69V27.1886H169.844V29.4463C170.617 28.5947 171.595 27.8968 172.781 27.3589C173.967 26.8188 175.271 26.5488 176.698 26.5488C178.258 26.5488 179.635 26.8895 180.836 27.5687C182.034 28.2479 182.973 29.2012 183.654 30.4267C184.334 31.6521 184.674 33.0791 184.674 34.7033L184.672 34.6991Z" fill="white"/>
<path d="M184.672 34.6991V47.6495H178.537V35.9994C178.537 34.533 178.154 33.3906 177.388 32.5723C176.622 31.7539 175.573 31.3426 174.241 31.3426C173.336 31.3426 172.555 31.5254 171.902 31.8931C171.25 32.2607 170.743 32.7592 170.384 33.3927C170.025 34.0262 169.844 34.7407 169.844 35.5404V47.6516H163.69V27.1886H169.844V29.4463C170.617 28.5947 171.595 27.8968 172.781 27.3589C173.967 26.8188 175.271 26.5488 176.698 26.5488C178.258 26.5488 179.635 26.8895 180.836 27.5687C182.034 28.2479 182.973 29.2012 183.654 30.4267C184.334 31.6521 184.674 33.0791 184.674 34.7033L184.672 34.6991Z" fill="white"/>
<path d="M184.672 34.6991V47.6495H178.537V35.9994C178.537 34.533 178.154 33.3906 177.388 32.5723C176.622 31.7539 175.573 31.3426 174.241 31.3426C173.336 31.3426 172.555 31.5254 171.902 31.8931C171.25 32.2607 170.743 32.7592 170.384 33.3927C170.025 34.0262 169.844 34.7407 169.844 35.5404V47.6516H163.69V27.1886H169.844V29.4463C170.617 28.5947 171.595 27.8968 172.781 27.3589C173.967 26.8188 175.271 26.5488 176.698 26.5488C178.258 26.5488 179.635 26.8895 180.836 27.5687C182.034 28.2479 182.973 29.2012 183.654 30.4267C184.334 31.6521 184.674 33.0791 184.674 34.7033L184.672 34.6991Z" fill="white"/>
<path d="M86.5131 14.417L67.3253 47.6497H60.1304L75.7207 20.6481H60.1118V14.417H79.3182H82.5127H86.5131Z" fill="white"/>
<path d="M86.5131 14.417L67.3253 47.6497H60.1304L75.7207 20.6481H60.1118V14.417H79.3182H82.5127H86.5131Z" fill="white"/>
<path d="M86.5131 14.417L67.3253 47.6497H60.1304L75.7207 20.6481H60.1118V14.417H79.3182H82.5127H86.5131Z" fill="white"/>
<path d="M35.9038 0H59.8397L47.8717 20.7289L35.9038 41.4578L23.9359 62.1867L11.9679 41.4578L23.9359 20.7289H0L11.9679 0H35.9038Z" fill="#B71C1C"/>
<path d="M23.9359 20.7289H0L11.9679 0L23.9359 20.7289Z" fill="#B71C1C"/>
<path d="M47.8738 20.7289H23.9379L35.9059 0L47.8738 20.7289Z" fill="#E53935"/>
<path d="M11.968 0H35.9038L23.9359 20.7289L11.968 0Z" fill="#D32F2F"/>
<path d="M35.9038 0H59.8397L47.8717 20.7289L35.9038 0Z" fill="#C62828"/>
<path d="M35.9038 41.4599H11.968L23.9359 20.731L35.9038 41.4599Z" fill="#C62828"/>
<path d="M23.9359 20.7285H47.8717L35.9038 41.4574L23.9359 20.7285Z" fill="#B71C1C"/>
<path d="M11.968 41.4595H35.9038L23.9359 62.1884L11.968 41.4595Z" fill="#E53935"/>
</svg>
